<?xml version="1.0" encoding="iso-8859-1"?>
<!-- Generator: Adobe Illustrator 19.0.0, SVG Export Plug-In . SVG Version: 6.00 Build 0)  -->
<svg version="1.1" id="Layer_1" xmlns="http://www.w3.org/2000/svg" xmlns:xlink="http://www.w3.org/1999/xlink" x="0px" y="0px"
	 viewBox="0 0 512 512" style="enable-background:new 0 0 512 512;" xml:space="preserve">
<path style="fill:#FF3E48;" d="M443.822,319.818H263.709v-60.651c0-4.136-3.352-7.49-7.49-7.49s-7.49,3.353-7.49,7.49v60.651H68.178
	c-4.137,0-7.49,3.353-7.49,7.49v54.281c0,4.136,3.352,7.49,7.49,7.49s7.49-3.353,7.49-7.49v-46.791h173.064v46.791
	c0,4.136,3.352,7.49,7.49,7.49c4.137,0,7.49-3.353,7.49-7.49v-46.791h172.622v46.791c0,4.136,3.352,7.49,7.49,7.49
	s7.49-3.353,7.49-7.49v-54.281C451.312,323.17,447.959,319.818,443.822,319.818z"/>
<path style="fill:#3BB54A;" d="M68.178,374.969C30.584,374.969,0,405.554,0,443.148s30.584,68.178,68.178,68.178
	s68.179-30.584,68.179-68.178C136.355,405.554,105.77,374.969,68.178,374.969z"/>
<path style="fill:#FFFFFF;" d="M58.657,470.55c-1.986,0-3.891-0.789-5.297-2.194l-19.042-19.042c-2.925-2.925-2.925-7.667,0-10.591
	c2.926-2.925,7.667-2.925,10.592,0l13.746,13.746l32.787-32.788c2.926-2.925,7.667-2.925,10.592,0c2.925,2.925,2.925,7.667,0,10.592
	l-38.084,38.084C62.548,469.761,60.644,470.55,58.657,470.55z"/>
<path style="fill:#3BB54A;" d="M256.498,374.969c-37.593,0-68.176,30.584-68.176,68.178s30.584,68.177,68.176,68.177
	c37.593,0,68.179-30.584,68.179-68.177C324.677,405.554,294.092,374.969,256.498,374.969z"/>
<path style="fill:#FFFFFF;" d="M246.978,470.55c-1.986,0-3.891-0.789-5.297-2.194l-19.042-19.042c-2.925-2.925-2.925-7.667,0-10.591
	c2.926-2.925,7.667-2.925,10.592,0l13.746,13.746l32.787-32.788c2.926-2.925,7.667-2.925,10.592,0c2.925,2.925,2.925,7.667,0,10.592
	l-38.084,38.084C250.87,469.761,248.966,470.55,246.978,470.55z"/>
<path style="fill:#3BB54A;" d="M443.822,374.969c-37.593,0-68.178,30.584-68.178,68.178s30.584,68.177,68.178,68.177
	S512,480.74,512,443.147C512,405.554,481.415,374.969,443.822,374.969z"/>
<path style="fill:#FFFFFF;" d="M434.302,470.55c-1.986,0-3.892-0.789-5.297-2.194l-19.042-19.042c-2.925-2.925-2.925-7.667,0-10.591
	c2.926-2.925,7.668-2.925,10.592,0l13.746,13.746l32.787-32.788c2.926-2.925,7.668-2.925,10.592,0c2.925,2.925,2.925,7.667,0,10.592
	l-38.084,38.084C438.193,469.761,436.289,470.55,434.302,470.55z"/>
<path style="fill:#FFD357;" d="M256.214,0.675c-73.332,0-132.992,59.659-132.992,132.991s59.659,132.992,132.992,132.992
	s132.992-59.66,132.992-132.992S329.546,0.675,256.214,0.675z"/>
<path style="fill:#FFAF57;" d="M256.214,0.675c-4.616,0-9.176,0.238-13.672,0.699C309.475,8.24,361.86,64.949,361.86,133.666
	s-52.386,125.426-119.318,132.293c4.496,0.461,9.057,0.699,13.672,0.699c73.332,0,132.992-59.66,132.992-132.992
	S329.546,0.675,256.214,0.675z"/>
<circle style="fill:#F9F1EF;" cx="256.219" cy="133.666" r="87.31"/>
<g>
	<path style="fill:#4E439B;" d="M255.975,63.079L255.975,63.079c-4.137,0-7.49,3.352-7.491,7.489l-0.007,47.612
		c-0.001,4.136,3.352,7.49,7.489,7.491h0.001c4.136,0,7.489-3.352,7.49-7.489l0.007-47.612
		C263.465,66.433,260.112,63.079,255.975,63.079z"/>
	<path style="fill:#4E439B;" d="M251.205,140.4c-3.086-2.752-7.82-2.482-10.574,0.605l-19.375,21.728
		c-2.753,3.088-2.482,7.822,0.605,10.575c1.428,1.273,3.208,1.899,4.981,1.899c2.061,0,4.113-0.846,5.593-2.505l19.375-21.728
		C254.563,147.888,254.292,143.153,251.205,140.4z"/>
</g>
<path style="fill:#DDDBDB;" d="M256.214,228.465c-52.273,0-94.8-42.527-94.8-94.8c0-52.272,42.527-94.8,94.8-94.8
	s94.801,42.527,94.801,94.8S308.487,228.465,256.214,228.465z M256.214,53.845c-44.013,0-79.821,35.808-79.821,79.821
	c0,44.014,35.807,79.821,79.821,79.821s79.822-35.807,79.822-79.821C336.035,89.653,300.228,53.845,256.214,53.845z"/>
<circle style="fill:#FF3E48;" cx="255.969" cy="133.796" r="15.614"/>
<path style="fill:#CE2C34;" d="M255.967,156.897c-12.74,0-23.104-10.365-23.104-23.103c0-12.74,10.365-23.103,23.104-23.103
	s23.103,10.365,23.103,23.103C279.07,146.533,268.707,156.897,255.967,156.897z M255.967,125.669c-4.48,0-8.125,3.645-8.125,8.124
	s3.644,8.124,8.125,8.124c4.479,0,8.124-3.644,8.124-8.124C264.091,129.314,260.447,125.669,255.967,125.669z"/>
<g>
</g>
<g>
</g>
<g>
</g>
<g>
</g>
<g>
</g>
<g>
</g>
<g>
</g>
<g>
</g>
<g>
</g>
<g>
</g>
<g>
</g>
<g>
</g>
<g>
</g>
<g>
</g>
<g>
</g>
</svg>
