<?xml version="1.0" encoding="UTF-8"?>
<svg xmlns="http://www.w3.org/2000/svg" xmlns:xlink="http://www.w3.org/1999/xlink" version="1.2" >
<font id="Wes FY Thin">
<font-face  font-family="Wes FY" units-per-em="1000" ascent="720" descent="-200" font-style="normal" font-weight="200" font-stretch="normal" cap-height="720" x-height="501" underline-position="-75" underline-thickness="50" />
<missing-glyph  horiz-adv-x="602" d="M305 435 Q321 464 346.5 482 Q372 500 403 500 Q446 500 474 470.5 Q502 441 502 395 Q502 365 488.5 330 Q475 295 449.5 260 Q424 225 386.5 192.5 Q349 160 301 135 Q253 160 215.5 192.5 Q178 225 152.5 260 Q127 295 113.5 330 Q100 365 100 395 Q100 441 128 470.5 Q156 500 199 500 Q230 500 255.5 482 Q281 464 297 435 L305 435 Z " />
<glyph glyph-name=".null" horiz-adv-x="300" d="" />
<glyph glyph-name="nonmarkingreturn" unicode="&#xd;" horiz-adv-x="300" d="" />
<glyph glyph-name="space" unicode="&#x20;" horiz-adv-x="200" d="" />
<glyph glyph-name="uni00A0" unicode="&#xa0;" horiz-adv-x="200" d="" />
<glyph glyph-name="A" unicode="A" horiz-adv-x="624" d="M312 730 L619 0 L584 0 L500 199 L122 199 L39 0 L5 0 L312 730 Z M135 230 L487 230 L311 650 L135 230 Z " />
<glyph glyph-name="B" unicode="B" horiz-adv-x="511" d="M77 720 L199 720 Q266 720 313 707.5 Q360 695 389.5 672 Q419 649 432.5 616.5 Q446 584 446 544 Q446 514 439.5 488 Q433 462 418 440.5 Q403 419 377 402.5 Q351 386 312 376 Q392 358 435.5 313 Q479 268 479 202 Q479 163 467.5 126.5 Q456 90 426.5 62 Q397 34 346 17 Q295 0 216 0 L77 0 L77 720 Z M111 358 L111 31 L213 31 Q279 31 323 43 Q367 55 393.5 77 Q420 99 431 128.5 Q442 158 442 194 Q442 279 379.5 318.5 Q317 358 203 358 L111 358 Z M111 689 L111 389 L192 389 Q256 389 298 400 Q340 411 365 431.5 Q390 452 400 481 Q410 510 410 545 Q410 578 399.5 604.5 Q389 631 364.5 649.5 Q340 668 300 678.5 Q260 689 200 689 L111 689 Z " />
<glyph glyph-name="C" unicode="C" horiz-adv-x="562" d="M544 19 Q512 -1 476.5 -4.5 Q441 -8 404 -8 Q323 -8 254.5 19 Q186 46 136.5 95 Q87 144 59.5 211.5 Q32 279 32 360 Q32 441 60 508.5 Q88 576 137.5 625 Q187 674 255 701.5 Q323 729 404 729 Q439 729 473.5 723 Q508 717 538 697 L538 664 Q507 686 472 692 Q437 698 399 698 Q325 698 264 672.5 Q203 647 159.5 602 Q116 557 92 494.5 Q68 432 68 358 Q68 284 92.5 222.5 Q117 161 160.5 117 Q204 73 265 48 Q326 23 400 23 Q438 23 474.5 26.5 Q511 30 544 50 L544 19 Z " />
<glyph glyph-name="D" unicode="D" horiz-adv-x="682" d="M77 720 L243 720 Q339 720 414.5 692.5 Q490 665 542.5 616.5 Q595 568 622.5 501.5 Q650 435 650 358 Q650 271 618 204 Q586 137 532 91.5 Q478 46 406 23 Q334 0 254 0 L77 0 L77 720 Z M111 689 L111 31 L248 31 Q336 31 404.5 55 Q473 79 520 122 Q567 165 591.5 225.5 Q616 286 616 358 Q616 431 589 492 Q562 553 513 596.5 Q464 640 395.5 664.5 Q327 689 244 689 L111 689 Z " />
<glyph glyph-name="E" unicode="E" horiz-adv-x="473" d="M77 720 L424 720 L424 689 L111 689 L111 395 L370 395 L370 364 L111 364 L111 31 L424 31 L424 0 L77 0 L77 720 Z " />
<glyph glyph-name="F" unicode="F" horiz-adv-x="450" d="M77 720 L402 720 L402 689 L111 689 L111 364 L344 364 L344 333 L111 333 L111 0 L77 0 L77 720 Z " />
<glyph glyph-name="G" unicode="G" horiz-adv-x="751" d="M391 390 L723 390 Q725 378 725.5 366.5 Q726 355 726 343 Q726 271 702.5 207 Q679 143 635.5 95 Q592 47 531 19.5 Q470 -8 396 -8 Q315 -8 248 19 Q181 46 133 95 Q85 144 58.5 211.5 Q32 279 32 360 Q32 441 59 508.5 Q86 576 134.5 625 Q183 674 250.5 701.5 Q318 729 398 729 Q470 729 534.5 705.5 Q599 682 650 633 L628 609 Q580 653 521 675.5 Q462 698 397 698 Q323 698 262 672 Q201 646 158 600 Q115 554 91.5 491 Q68 428 68 354 Q68 281 92 220.5 Q116 160 159.5 116 Q203 72 263 47.5 Q323 23 396 23 Q466 23 521 48.5 Q576 74 614 119 Q652 164 672.5 225.5 Q693 287 693 359 L391 359 L391 390 Z " />
<glyph glyph-name="H" unicode="H" horiz-adv-x="704" d="M77 720 L111 720 L111 398 L593 398 L593 720 L627 720 L627 0 L593 0 L593 367 L111 367 L111 0 L77 0 L77 720 Z " />
<glyph glyph-name="I" unicode="I" horiz-adv-x="188" d="M77 720 L111 720 L111 0 L77 0 L77 720 Z " />
<glyph glyph-name="J" unicode="J" horiz-adv-x="292" d="M28 38 Q39 32 54.5 27 Q70 22 87 22 Q129 22 155 45 Q181 68 181 112 L181 720 L215 720 L215 119 Q215 59 180.5 25.5 Q146 -8 86 -8 Q66 -8 48 -3 Q30 2 14 10 L28 38 Z " />
<glyph glyph-name="K" unicode="K" horiz-adv-x="521" d="M77 720 L111 720 L111 366 L449 720 L490 720 L141 354 L518 0 L469 0 L111 336 L111 0 L77 0 L77 720 Z " />
<glyph glyph-name="L" unicode="L" horiz-adv-x="414" d="M77 720 L111 720 L111 31 L400 31 L400 0 L77 0 L77 720 Z " />
<glyph glyph-name="M" unicode="M" horiz-adv-x="824" d="M141 730 L416 170 L685 730 L784 0 L750 0 L667 622 L415 106 L157 622 L74 0 L40 0 L141 730 Z " />
<glyph glyph-name="N" unicode="N" horiz-adv-x="745" d="M77 730 L633 81 L633 720 L667 720 L667 -10 L111 640 L111 0 L77 0 L77 730 Z " />
<glyph glyph-name="O" unicode="O" horiz-adv-x="794" d="M396 -8 Q316 -8 249 19.5 Q182 47 134 96 Q86 145 59 212.5 Q32 280 32 360 Q32 440 59 507.5 Q86 575 134.5 624 Q183 673 250 700.5 Q317 728 397 728 Q477 728 544 700.5 Q611 673 659.5 624 Q708 575 735 507.5 Q762 440 762 360 Q762 280 735 212.5 Q708 145 659.5 96 Q611 47 543.5 19.5 Q476 -8 396 -8 Z M394 23 Q467 23 528.5 48 Q590 73 633.5 117 Q677 161 701.5 222.5 Q726 284 726 358 Q726 432 702 494 Q678 556 634 601 Q590 646 529 671.5 Q468 697 394 697 Q320 697 260 671.5 Q200 646 157.5 601 Q115 556 91.5 493.5 Q68 431 68 358 Q68 285 91.5 223.5 Q115 162 158 117.5 Q201 73 261 48 Q321 23 394 23 Z " />
<glyph glyph-name="P" unicode="P" horiz-adv-x="490" d="M77 720 L205 720 Q264 720 312 706 Q360 692 394 665 Q428 638 446.5 598 Q465 558 465 507 Q465 451 444.5 409.5 Q424 368 388 341 Q352 314 303 300.5 Q254 287 197 287 L111 287 L111 0 L77 0 L77 720 Z M111 689 L111 318 L200 318 Q314 318 371.5 369.5 Q429 421 429 506 Q429 591 371.5 640 Q314 689 212 689 L111 689 Z " />
<glyph glyph-name="Q" unicode="Q" horiz-adv-x="794" d="M619 61 Q574 28 517.5 10 Q461 -8 396 -8 Q316 -8 249 19.5 Q182 47 134 96 Q86 145 59 212.5 Q32 280 32 360 Q32 440 59 507.5 Q86 575 134.5 624 Q183 673 250 700.5 Q317 728 397 728 Q477 728 544 700.5 Q611 673 659.5 624 Q708 575 735 507.5 Q762 440 762 360 Q762 272 730.5 201 Q699 130 643 80 L721 -3 L701 -25 L619 61 Z M394 23 Q454 23 504.5 39 Q555 55 596 85 L474 214 L496 237 L620 104 Q670 149 698 214 Q726 279 726 358 Q726 432 702 494 Q678 556 634 601 Q590 646 529 671.5 Q468 697 394 697 Q320 697 260 671.5 Q200 646 157.5 601 Q115 556 91.5 493.5 Q68 431 68 358 Q68 285 91.5 223.5 Q115 162 158 117.5 Q201 73 261 48 Q321 23 394 23 Z " />
<glyph glyph-name="R" unicode="R" horiz-adv-x="505" d="M77 720 L205 720 Q262 720 308 706 Q354 692 387 665.5 Q420 639 437.5 601 Q455 563 455 514 Q455 466 440.5 429 Q426 392 399.5 365 Q373 338 336 322 Q299 306 253 300 L505 0 L462 0 L213 297 L195 297 L111 297 L111 0 L77 0 L77 720 Z M111 689 L111 328 L205 328 Q310 328 364.5 375 Q419 422 419 513 Q419 593 364 641 Q309 689 212 689 L111 689 Z " />
<glyph glyph-name="S" unicode="S" horiz-adv-x="525" d="M67 136 Q80 117 98.5 97 Q117 77 141 60.5 Q165 44 195.5 33.5 Q226 23 263 23 Q352 23 399.5 65 Q447 107 447 184 Q447 228 434 257 Q421 286 397 305.5 Q373 325 339.5 337.5 Q306 350 266 361 Q164 389 113.5 433.5 Q63 478 63 557 Q63 593 76 624.5 Q89 656 113.5 679.5 Q138 703 175 716 Q212 729 260 729 Q330 729 382 700.5 Q434 672 466 625 L440 606 Q402 656 358.5 677 Q315 698 255 698 Q214 698 184.5 686.5 Q155 675 136 655.5 Q117 636 108 610 Q99 584 99 556 Q99 532 106.5 508.5 Q114 485 133.5 464.5 Q153 444 186 426 Q219 408 269 395 Q311 384 350 369.5 Q389 355 418.5 332.5 Q448 310 465.5 276.5 Q483 243 483 193 Q483 157 471.5 121 Q460 85 435 56.5 Q410 28 369.5 10 Q329 -8 271 -8 Q225 -8 189.5 2.5 Q154 13 126.5 30 Q99 47 78 69.5 Q57 92 40 115 L67 136 Z " />
<glyph glyph-name="T" unicode="T" horiz-adv-x="507" d="M5 720 L502 720 L502 689 L272 689 L272 0 L238 0 L238 689 L5 689 L5 720 Z " />
<glyph glyph-name="U" unicode="U" horiz-adv-x="657" d="M70 720 L104 720 L104 332 Q104 180 158 101.5 Q212 23 326 23 Q444 23 498 101.5 Q552 180 552 333 L552 720 L586 720 L586 333 Q586 163 521.5 77.5 Q457 -8 326 -8 Q194 -8 132 78 Q70 164 70 333 L70 720 Z " />
<glyph glyph-name="V" unicode="V" horiz-adv-x="576" d="M5 720 L44 720 L290 77 L534 720 L571 720 L288 -10 L5 720 Z " />
<glyph glyph-name="W" unicode="W" horiz-adv-x="1092" d="M14 720 L53 720 L315 85 L553 730 L799 85 L1042 720 L1078 720 L797 -10 L552 629 L315 -10 L14 720 Z " />
<glyph glyph-name="X" unicode="X" horiz-adv-x="559" d="M259 366 L10 720 L51 720 L283 391 L513 720 L549 720 L301 365 L559 0 L518 0 L277 342 L37 0 L0 0 L259 366 Z " />
<glyph glyph-name="Y" unicode="Y" horiz-adv-x="526" d="M246 252 L5 720 L43 720 L263 291 L485 720 L521 720 L280 256 L280 0 L246 0 L246 252 Z " />
<glyph glyph-name="Z" unicode="Z" horiz-adv-x="601" d="M526 689 L41 689 L41 720 L587 720 L81 31 L560 31 L560 0 L14 0 L526 689 Z " />
<glyph glyph-name="AE" unicode="&#xc6;" horiz-adv-x="877" d="M460 720 L828 720 L828 689 L515 689 L515 395 L774 395 L774 364 L515 364 L515 31 L828 31 L828 0 L481 0 L481 212 L178 212 L46 0 L9 0 L460 720 Z M481 243 L481 697 L197 243 L481 243 Z " />
<glyph glyph-name="OE" unicode="&#x152;" horiz-adv-x="1124" d="M396 -8 Q316 -8 249 19.5 Q182 47 134 96 Q86 145 59 212.5 Q32 280 32 360 Q32 440 59 507.5 Q86 575 134.5 624 Q183 673 250 700.5 Q317 728 397 728 Q455 728 506 713.5 Q557 699 599.5 672.5 Q642 646 674.5 608 Q707 570 728 524 L728 720 L1075 720 L1075 689 L762 689 L762 395 L1021 395 L1021 364 L762 364 L762 31 L1075 31 L1075 0 L728 0 L728 195 Q707 148 674 110.5 Q641 73 598 47 Q555 21 504 6.5 Q453 -8 396 -8 Z M394 23 Q467 23 528.5 48 Q590 73 633.5 117 Q677 161 701.5 222.5 Q726 284 726 358 Q726 432 702 494 Q678 556 634 601 Q590 646 529 671.5 Q468 697 394 697 Q320 697 260 671.5 Q200 646 157.5 601 Q115 556 91.5 493.5 Q68 431 68 358 Q68 285 91.5 223.5 Q115 162 158 117.5 Q201 73 261 48 Q321 23 394 23 Z " />
<glyph glyph-name="Lslash" unicode="&#x141;" horiz-adv-x="414" d="M2 290 L77 338 L77 720 L111 720 L111 360 L290 477 L290 443 L111 326 L111 31 L400 31 L400 0 L77 0 L77 304 L2 256 L2 290 Z " />
<glyph glyph-name="Oslash" unicode="&#xd8;" horiz-adv-x="793" d="M143 87 Q90 137 61 206 Q32 275 32 360 Q32 440 59 507.5 Q86 575 134.5 624 Q183 673 250 700.5 Q317 728 397 728 Q459 728 513 711.5 Q567 695 612 664 L666 731 L691 710 L637 644 Q696 595 729 522 Q762 449 762 360 Q762 280 735 212.5 Q708 145 659.5 96 Q611 47 543.5 19.5 Q476 -8 396 -8 Q329 -8 271.5 11.5 Q214 31 168 66 L106 -10 L82 12 L143 87 Z M394 23 Q467 23 528.5 48 Q590 73 633.5 117 Q677 161 701.5 222.5 Q726 284 726 358 Q726 439 697 505.5 Q668 572 616 618 L188 90 Q229 58 280.5 40.5 Q332 23 394 23 Z M68 358 Q68 282 92.5 219.5 Q117 157 163 112 L590 638 Q550 666 500.5 681.5 Q451 697 394 697 Q320 697 260 671.5 Q200 646 157.5 601 Q115 556 91.5 493.5 Q68 431 68 358 Z " />
<glyph glyph-name="Eth" unicode="&#xd0;" horiz-adv-x="682" d="M5 399 L77 399 L77 720 L243 720 Q339 720 414.5 692.5 Q490 665 542.5 616.5 Q595 568 622.5 501.5 Q650 435 650 358 Q650 271 618 204 Q586 137 532 91.5 Q478 46 406 23 Q334 0 254 0 L77 0 L77 368 L5 368 L5 399 Z M111 689 L111 399 L339 399 L339 368 L111 368 L111 31 L248 31 Q336 31 404.5 55 Q473 79 520 122 Q567 165 591.5 225.5 Q616 286 616 358 Q616 431 589 492 Q562 553 513 596.5 Q464 640 395.5 664.5 Q327 689 244 689 L111 689 Z " />
<glyph glyph-name="Thorn" unicode="&#xde;" horiz-adv-x="490" d="M77 720 L111 720 L111 580 L205 580 Q264 580 312 566 Q360 552 394 525 Q428 498 446.5 458 Q465 418 465 367 Q465 311 444.5 269.5 Q424 228 388 201 Q352 174 303 160.5 Q254 147 197 147 L111 147 L111 0 L77 0 L77 720 Z M111 549 L111 178 L200 178 Q314 178 371.5 229.5 Q429 281 429 366 Q429 451 371.5 500 Q314 549 212 549 L111 549 Z " />
<glyph glyph-name="a" unicode="a" horiz-adv-x="587" d="M485 121 L482 121 Q447 58 395 25 Q343 -8 274 -8 Q223 -8 178 12 Q133 32 100 67.5 Q67 103 48 150.5 Q29 198 29 252 Q29 305 47.5 352 Q66 399 99 434 Q132 469 177 489.5 Q222 510 275 510 Q344 510 398 478.5 Q452 447 482 384 L485 384 L485 502 L519 502 L519 0 L485 0 L485 121 Z M273 23 Q319 23 357.5 40 Q396 57 424.5 87.5 Q453 118 469 159.5 Q485 201 485 251 Q485 300 469 342 Q453 384 424.5 414.5 Q396 445 357.5 462.5 Q319 480 273 480 Q228 480 190 462.5 Q152 445 124 414.5 Q96 384 80 342 Q64 300 64 251 Q64 201 80 159.5 Q96 118 124 87.5 Q152 57 190 40 Q228 23 273 23 Z " />
<glyph glyph-name="b" unicode="b" horiz-adv-x="590" d="M71 690 L105 690 L105 382 L108 382 Q140 443 192 476.5 Q244 510 313 510 Q366 510 411.5 489.5 Q457 469 490 434 Q523 399 542 352 Q561 305 561 252 Q561 198 542 150 Q523 102 489 67 Q455 32 409.5 11.5 Q364 -9 312 -9 Q243 -9 189 26 Q135 61 107 120 L105 120 L105 0 L71 0 L71 690 Z M313 20 Q359 20 398 37.5 Q437 55 465.5 86 Q494 117 510 159 Q526 201 526 251 Q526 300 510 342 Q494 384 465.5 414.5 Q437 445 398 462.5 Q359 480 313 480 Q268 480 230 462.5 Q192 445 164 414.5 Q136 384 120.5 342 Q105 300 105 251 Q105 201 120.5 159 Q136 117 164 86 Q192 55 230 37.5 Q268 20 313 20 Z " />
<glyph glyph-name="c" unicode="c" horiz-adv-x="445" d="M427 19 Q396 3 363 -3 Q330 -9 291 -9 Q236 -9 188.5 10.5 Q141 30 105.5 64.5 Q70 99 50 147.5 Q30 196 30 255 Q30 309 47.5 356 Q65 403 98 437 Q131 471 178.5 490.5 Q226 510 285 510 Q332 510 364 503 Q396 496 422 482 L422 445 Q396 461 364 470.5 Q332 480 284 480 Q231 480 190 463 Q149 446 121 416 Q93 386 79 345 Q65 304 65 256 Q65 203 82 160 Q99 117 129 86 Q159 55 200.5 38 Q242 21 291 21 Q330 21 364 29 Q398 37 427 51 L427 19 Z " />
<glyph glyph-name="d" unicode="d" horiz-adv-x="588" d="M486 121 L483 121 Q447 59 396.5 25 Q346 -9 272 -9 Q220 -9 175.5 11.5 Q131 32 98.5 67 Q66 102 47.5 150 Q29 198 29 252 Q29 305 47.5 352 Q66 399 99 434 Q132 469 177 489.5 Q222 510 274 510 Q345 510 400 477.5 Q455 445 483 384 L486 384 L486 690 L520 690 L520 0 L486 0 L486 121 Z M273 21 Q319 21 358 38.5 Q397 56 425.5 86.5 Q454 117 470 159 Q486 201 486 251 Q486 300 470 342 Q454 384 425.5 414.5 Q397 445 358 462.5 Q319 480 273 480 Q228 480 190 462.5 Q152 445 124 414.5 Q96 384 80 342 Q64 300 64 251 Q64 201 80 159 Q96 117 124 86.5 Q152 56 190 38.5 Q228 21 273 21 Z " />
<glyph glyph-name="e" unicode="e" horiz-adv-x="514" d="M65 253 Q65 205 78.5 162.5 Q92 120 117 88.5 Q142 57 178.5 39 Q215 21 262 21 Q327 21 373 54.5 Q419 88 439 158 L470 150 Q457 105 435 74.5 Q413 44 385.5 25.5 Q358 7 326 -1 Q294 -9 261 -9 Q208 -9 165 12 Q122 33 92 68.5 Q62 104 46 152 Q30 200 30 254 Q30 308 46.5 355 Q63 402 93 436.5 Q123 471 165.5 490.5 Q208 510 259 510 Q316 510 357 488 Q398 466 424.5 431.5 Q451 397 464 355.5 Q477 314 477 277 Q477 263 475 253 L65 253 Z M257 480 Q216 480 182.5 466 Q149 452 124.5 426 Q100 400 85 363.5 Q70 327 66 282 L443 282 Q440 322 426.5 358 Q413 394 389 421 Q365 448 332 464 Q299 480 257 480 Z " />
<glyph glyph-name="f" unicode="f" horiz-adv-x="276" d="M-4 501 L78 501 L78 540 Q78 622 116 660 Q154 698 217 698 Q231 698 241 697 Q251 696 266 691 L266 660 Q246 668 209 668 Q161 668 136.5 635 Q112 602 112 545 L112 501 L267 501 L267 471 L112 471 L112 0 L78 0 L78 471 L-4 471 L-4 501 Z " />
<glyph glyph-name="g" unicode="g" horiz-adv-x="570" d="M79 -88 Q114 -133 159.5 -156.5 Q205 -180 263 -180 Q303 -180 340 -168.5 Q377 -157 405.5 -128.5 Q434 -100 450.5 -52 Q467 -4 467 68 L467 142 L464 142 Q452 115 434.5 91 Q417 67 393 49 Q369 31 337 20 Q305 9 264 9 Q215 9 172 28.5 Q129 48 97.5 82 Q66 116 48 161.5 Q30 207 30 259 Q30 312 48.5 358 Q67 404 98.5 437.5 Q130 471 173 490.5 Q216 510 264 510 Q403 510 464 382 L467 382 L467 502 L501 502 L501 57 Q501 -15 483 -65.5 Q465 -116 433.5 -148 Q402 -180 358 -195 Q314 -210 262 -210 Q188 -210 137 -181 Q86 -152 54 -111 L79 -88 Z M264 39 Q307 39 344 55.5 Q381 72 408.5 101.5 Q436 131 451.5 171.5 Q467 212 467 259 Q467 307 451.5 347.5 Q436 388 408.5 417.5 Q381 447 344 463.5 Q307 480 264 480 Q222 480 186 463.5 Q150 447 123 417.5 Q96 388 80.5 347.5 Q65 307 65 259 Q65 212 80.5 171.5 Q96 131 123 101.5 Q150 72 186 55.5 Q222 39 264 39 Z " />
<glyph glyph-name="h" unicode="h" horiz-adv-x="536" d="M68 690 L102 690 L102 401 L105 401 Q128 455 170.5 482.5 Q213 510 284 510 Q338 510 375 492 Q412 474 435 443 Q458 412 468 369.5 Q478 327 478 279 L478 0 L444 0 L444 297 Q444 334 435 367.5 Q426 401 406 426 Q386 451 354.5 465.5 Q323 480 278 480 Q190 480 146 428 Q102 376 102 286 L102 0 L68 0 L68 690 Z " />
<glyph glyph-name="i" unicode="i" horiz-adv-x="171" d="M68 501 L102 501 L102 0 L68 0 L68 501 Z M53 630 Q53 646 62 655.5 Q71 665 86 665 Q100 665 108.5 655.5 Q117 646 117 630 Q117 616 108.5 607 Q100 598 86 598 Q71 598 62 607 Q53 616 53 630 Z " />
<glyph glyph-name="j" unicode="j" horiz-adv-x="171" d="M53 630 Q53 646 62 655.5 Q71 665 86 665 Q100 665 108.5 655.5 Q117 646 117 630 Q117 616 108.5 607 Q100 598 86 598 Q71 598 62 607 Q53 616 53 630 Z M-64 -171 Q-53 -174 -39.5 -177 Q-26 -180 -11 -180 Q22 -180 45 -157 Q68 -134 68 -81 L68 501 L102 501 L102 -87 Q102 -150 70 -180 Q38 -210 -13 -210 Q-30 -210 -46.5 -206.5 Q-63 -203 -73 -198 L-64 -171 Z " />
<glyph glyph-name="k" unicode="k" horiz-adv-x="423" d="M70 690 L104 690 L104 279 L340 501 L383 501 L125 258 L408 0 L363 0 L104 233 L104 0 L70 0 L70 690 Z " />
<glyph glyph-name="l" unicode="l" horiz-adv-x="170" d="M68 690 L102 690 L102 0 L68 0 L68 690 Z " />
<glyph glyph-name="m" unicode="m" horiz-adv-x="878" d="M68 501 L101 501 L101 401 L103 401 Q126 455 167 482.5 Q208 510 272 510 Q345 510 387.5 475.5 Q430 441 448 384 L450 384 Q459 413 476 436.5 Q493 460 516 476.5 Q539 493 566.5 501.5 Q594 510 624 510 Q678 510 715.5 492 Q753 474 776.5 443 Q800 412 810 369.5 Q820 327 820 279 L820 0 L786 0 L786 295 Q786 332 777 366 Q768 400 749 425 Q730 450 700 465 Q670 480 627 480 Q546 480 505.5 429.5 Q465 379 463 289 L463 282 L463 0 L429 0 L429 295 Q429 332 420 366 Q411 400 391.5 425 Q372 450 342 465 Q312 480 269 480 Q187 480 144.5 427.5 Q102 375 102 282 L102 0 L68 0 L68 501 Z " />
<glyph glyph-name="n" unicode="n" horiz-adv-x="536" d="M68 501 L102 501 L102 401 L104 401 Q149 510 283 510 Q336 510 373 492 Q410 474 433.5 443 Q457 412 467.5 369.5 Q478 327 478 279 L478 0 L444 0 L444 297 Q444 334 435 367.5 Q426 401 406 426 Q386 451 354.5 465.5 Q323 480 278 480 Q190 480 146 428 Q102 376 102 286 L102 0 L68 0 L68 501 Z " />
<glyph glyph-name="o" unicode="o" horiz-adv-x="551" d="M274 -9 Q223 -9 178.5 11 Q134 31 100.5 66 Q67 101 48 148.5 Q29 196 29 251 Q29 306 48 353.5 Q67 401 100 436 Q133 471 178 490.5 Q223 510 274 510 Q326 510 371 490 Q416 470 449.5 435.5 Q483 401 502.5 354 Q522 307 522 252 Q522 196 503 148.5 Q484 101 450.5 66 Q417 31 371.5 11 Q326 -9 274 -9 Z M274 21 Q320 21 359 39 Q398 57 426.5 88.5 Q455 120 471 162 Q487 204 487 251 Q487 298 471 339.5 Q455 381 426.5 412.5 Q398 444 359 462 Q320 480 274 480 Q229 480 191 462 Q153 444 124.5 412.5 Q96 381 80 339.5 Q64 298 64 251 Q64 204 80 162.5 Q96 121 124.5 89.5 Q153 58 191 39.5 Q229 21 274 21 Z " />
<glyph glyph-name="p" unicode="p" horiz-adv-x="587" d="M310 20 Q356 20 395 37.5 Q434 55 462.5 86 Q491 117 507 159 Q523 201 523 251 Q523 300 507 342 Q491 384 462.5 414.5 Q434 445 395 462.5 Q356 480 310 480 Q265 480 227 462.5 Q189 445 161 414.5 Q133 384 117.5 342 Q102 300 102 251 Q102 201 117.5 159 Q133 117 161 86 Q189 55 227 37.5 Q265 20 310 20 Z M68 501 L102 501 L102 382 L105 382 Q137 443 189 476.5 Q241 510 310 510 Q363 510 408.5 489.5 Q454 469 487 434 Q520 399 539 352 Q558 305 558 252 Q558 198 539 150 Q520 102 486 67 Q452 32 406.5 11.5 Q361 -9 309 -9 Q240 -9 186 26 Q132 61 104 120 L102 120 L102 -200 L68 -200 L68 501 Z " />
<glyph glyph-name="q" unicode="q" horiz-adv-x="590" d="M273 23 Q319 23 357.5 40 Q396 57 424.5 87.5 Q453 118 469 159.5 Q485 201 485 251 Q485 300 469 342 Q453 384 424.5 414.5 Q396 445 357.5 462.5 Q319 480 273 480 Q228 480 190 462.5 Q152 445 124 414.5 Q96 384 80 342 Q64 300 64 251 Q64 201 80 159.5 Q96 118 124 87.5 Q152 57 190 40 Q228 23 273 23 Z M485 121 L482 121 Q447 58 395 25 Q343 -8 274 -8 Q223 -8 178 12 Q133 32 100 67.5 Q67 103 48 150.5 Q29 198 29 252 Q29 305 47.5 352 Q66 399 99 434 Q132 469 177 489.5 Q222 510 275 510 Q344 510 398 478.5 Q452 447 482 384 L485 384 L485 501 L519 501 L519 -200 L485 -200 L485 121 Z " />
<glyph glyph-name="r" unicode="r" horiz-adv-x="299" d="M68 501 L101 501 L101 403 L103 403 Q124 454 167 482 Q210 510 279 510 L279 480 Q231 480 197.5 466.5 Q164 453 143 428 Q122 403 112 368.5 Q102 334 102 292 L102 0 L68 0 L68 501 Z " />
<glyph glyph-name="s" unicode="s" horiz-adv-x="391" d="M76 122 Q84 100 94 81 Q104 62 118.5 48.5 Q133 35 154.5 28 Q176 21 206 21 Q229 21 248.5 30 Q268 39 282 54 Q296 69 304 88 Q312 107 312 127 Q312 152 305.5 171 Q299 190 284.5 205 Q270 220 247 232.5 Q224 245 191 258 Q164 268 141 280 Q118 292 100.5 307.5 Q83 323 73.5 343.5 Q64 364 64 393 Q64 418 74.5 439.5 Q85 461 103 477 Q121 493 144.5 501.5 Q168 510 195 510 Q250 510 287 482 Q324 454 335 401 L305 391 Q297 425 270 452.5 Q243 480 195 480 Q150 480 124 454.5 Q98 429 98 394 Q98 359 123 334.5 Q148 310 204 288 Q240 273 266.5 259.5 Q293 246 310.5 229 Q328 212 337 188 Q346 164 346 128 Q346 100 335.5 75 Q325 50 306 31.5 Q287 13 260.5 2 Q234 -9 202 -9 Q167 -9 141 0 Q115 9 96.5 25 Q78 41 65.5 63.5 Q53 86 46 113 L76 122 Z " />
<glyph glyph-name="t" unicode="t" horiz-adv-x="273" d="M20 501 L106 501 L106 650 L140 650 L140 501 L263 501 L263 471 L140 471 L140 0 L106 0 L106 471 L20 471 L20 501 Z " />
<glyph glyph-name="u" unicode="u" horiz-adv-x="509" d="M58 501 L92 501 L92 205 Q92 167 102.5 133.5 Q113 100 133 75 Q153 50 183.5 35.5 Q214 21 255 21 Q295 21 325 35.5 Q355 50 375.5 75 Q396 100 406.5 133.5 Q417 167 417 205 L417 501 L451 501 L451 213 Q451 168 438 127.5 Q425 87 399.5 56.5 Q374 26 337 8.5 Q300 -9 252 -9 Q205 -9 169 8 Q133 25 108 54.5 Q83 84 70.5 124 Q58 164 58 209 L58 501 Z " />
<glyph glyph-name="v" unicode="v" horiz-adv-x="450" d="M12 501 L48 501 L226 67 L404 501 L437 501 L224 -10 L12 501 Z " />
<glyph glyph-name="w" unicode="w" horiz-adv-x="718" d="M23 501 L58 501 L184 85 L363 511 L539 85 L660 501 L693 501 L542 -10 L361 428 L178 -10 L23 501 Z " />
<glyph glyph-name="x" unicode="x" horiz-adv-x="455" d="M206 257 L23 501 L65 501 L230 282 L393 501 L432 501 L248 258 L442 0 L401 0 L226 232 L51 0 L13 0 L206 257 Z " />
<glyph glyph-name="y" unicode="y" horiz-adv-x="437" d="M222 56 L9 501 L48 501 L239 101 L399 501 L436 501 L157 -200 L121 -200 L222 56 Z " />
<glyph glyph-name="z" unicode="z" horiz-adv-x="374" d="M304 471 L24 471 L24 501 L360 501 L71 30 L350 30 L350 0 L14 0 L304 471 Z " />
<glyph glyph-name="ae" unicode="&#xe6;" horiz-adv-x="845" d="M15 395 Q41 453 91.5 481.5 Q142 510 211 510 Q284 510 333 478.5 Q382 447 399 373 Q426 435 479.5 472.5 Q533 510 605 510 Q662 510 703 488 Q744 466 770.5 431.5 Q797 397 810 355.5 Q823 314 823 277 Q823 263 821 253 L411 253 Q411 205 424.5 162.5 Q438 120 463 88.5 Q488 57 524.5 39 Q561 21 608 21 Q673 21 719 54.5 Q765 88 785 158 L816 150 Q803 105 781 74.5 Q759 44 731.5 25.5 Q704 7 672 -1 Q640 -9 607 -9 Q529 -9 475 33 Q421 75 395 142 Q383 112 364 84.5 Q345 57 318.5 36.5 Q292 16 257.5 3.5 Q223 -9 180 -9 Q145 -9 113.5 0.5 Q82 10 58 29.5 Q34 49 20 78 Q6 107 6 145 Q6 181 17 210.5 Q28 240 52.5 260.5 Q77 281 117 292 Q157 303 216 303 Q273 303 313 291 Q353 279 375 268 L375 297 Q375 378 335.5 429 Q296 480 209 480 Q143 480 104.5 453.5 Q66 427 43 380 L15 395 Z M375 230 Q356 242 334 250 Q312 258 289.5 263 Q267 268 245 270 Q223 272 205 272 Q115 272 78 239.5 Q41 207 41 147 Q41 116 52.5 92.5 Q64 69 84.5 53 Q105 37 132 29 Q159 21 189 21 Q230 21 264 37 Q298 53 323 79 Q348 105 361.5 137 Q375 169 375 201 L375 230 Z M603 480 Q562 480 528.5 466 Q495 452 470.5 426 Q446 400 431 363.5 Q416 327 412 282 L789 282 Q786 322 772.5 358 Q759 394 735 421 Q711 448 678 464 Q645 480 603 480 Z " />
<glyph glyph-name="oe" unicode="&#x153;" horiz-adv-x="971" d="M274 -9 Q223 -9 178.5 11 Q134 31 100.5 66 Q67 101 48 148.5 Q29 196 29 251 Q29 306 48 353.5 Q67 401 100 436 Q133 471 178 490.5 Q223 510 274 510 Q313 510 349 498.5 Q385 487 414.5 465.5 Q444 444 466.5 414.5 Q489 385 503 349 Q526 421 581.5 465.5 Q637 510 716 510 Q773 510 814 488 Q855 466 881.5 431.5 Q908 397 921 355.5 Q934 314 934 277 Q934 263 932 253 L522 253 Q522 205 535.5 162.5 Q549 120 574 88.5 Q599 57 635.5 39 Q672 21 719 21 Q784 21 830 54.5 Q876 88 896 158 L927 150 Q914 105 892 74.5 Q870 44 842.5 25.5 Q815 7 783 -1 Q751 -9 718 -9 Q637 -9 581.5 37 Q526 83 503 156 Q490 119 467.5 88.5 Q445 58 415.5 36.5 Q386 15 350 3 Q314 -9 274 -9 Z M274 21 Q320 21 359 39 Q398 57 426.5 88.5 Q455 120 471 162 Q487 204 487 251 Q487 298 471 339.5 Q455 381 426.5 412.5 Q398 444 359 462 Q320 480 274 480 Q229 480 191 462 Q153 444 124.5 412.5 Q96 381 80 339.5 Q64 298 64 251 Q64 204 80 162.5 Q96 121 124.5 89.5 Q153 58 191 39.5 Q229 21 274 21 Z M714 480 Q673 480 639.5 466 Q606 452 581.5 426 Q557 400 542 363.5 Q527 327 523 282 L900 282 Q897 322 883.5 358 Q870 394 846 421 Q822 448 789 464 Q756 480 714 480 Z " />
<glyph glyph-name="lslash" unicode="&#x142;" horiz-adv-x="171" d="M13 331 L68 374 L68 690 L102 690 L102 401 L160 447 L160 410 L102 364 L102 0 L68 0 L68 337 L13 293 L13 331 Z " />
<glyph glyph-name="oslash" unicode="&#xf8;" horiz-adv-x="551" d="M100 66 Q67 101 48 148.5 Q29 196 29 251 Q29 306 48 353.5 Q67 401 100 436 Q133 471 178 490.5 Q223 510 274 510 Q319 510 358 495 Q397 480 429 454 L477 510 L501 490 L452 433 Q484 398 503 352 Q522 306 522 252 Q522 196 503 148.5 Q484 101 450.5 66 Q417 31 371.5 11 Q326 -9 274 -9 Q188 -9 123 44 L78 -9 L54 12 L100 66 Z M64 251 Q64 205 79.5 164 Q95 123 122 92 L408 429 Q381 453 347 466.5 Q313 480 274 480 Q229 480 191 462 Q153 444 124.5 412.5 Q96 381 80 339.5 Q64 298 64 251 Z M274 21 Q320 21 359 39 Q398 57 426.5 88.5 Q455 120 471 162 Q487 204 487 251 Q487 296 472 336 Q457 376 431 407 L144 69 Q171 46 203.5 33.5 Q236 21 274 21 Z " />
<glyph glyph-name="eth" unicode="&#xf0;" horiz-adv-x="551" d="M221 708 Q239 700 255.5 691.5 Q272 683 287 674 L325 733 L351 716 L313 657 Q387 609 429 556.5 Q471 504 491.5 453.5 Q512 403 517 358.5 Q522 314 522 282 Q522 215 503 161.5 Q484 108 450.5 70 Q417 32 371.5 11.5 Q326 -9 274 -9 Q223 -9 178.5 11 Q134 31 101 66 Q68 101 49 148.5 Q30 196 30 252 Q30 307 49 354 Q68 401 101.5 435.5 Q135 470 180.5 490 Q226 510 279 510 Q308 510 336.5 504 Q365 498 391.5 483 Q418 468 442 444 Q466 420 485 384 Q461 469 416 528 Q371 587 298 633 L255 566 L229 584 L271 649 Q256 657 239.5 665 Q223 673 206 681 L221 708 Z M274 21 Q320 21 359 38.5 Q398 56 426.5 86.5 Q455 117 471 159 Q487 201 487 251 Q487 300 471 342 Q455 384 426.5 414.5 Q398 445 359 462.5 Q320 480 274 480 Q229 480 191 462.5 Q153 445 125 414.5 Q97 384 81 342 Q65 300 65 251 Q65 201 81 159 Q97 117 125 86.5 Q153 56 191 38.5 Q229 21 274 21 Z " />
<glyph glyph-name="thorn" unicode="&#xfe;" horiz-adv-x="590" d="M71 690 L105 690 L105 382 L108 382 Q140 443 192 476.5 Q244 510 313 510 Q366 510 411.5 489.5 Q457 469 490 434 Q523 399 542 352 Q561 305 561 252 Q561 198 542 150 Q523 102 489 67 Q455 32 409.5 11.5 Q364 -9 312 -9 Q243 -9 189 26 Q135 61 107 120 L105 120 L105 -200 L71 -200 L71 690 Z M313 20 Q359 20 398 37.5 Q437 55 465.5 86 Q494 117 510 159 Q526 201 526 251 Q526 300 510 342 Q494 384 465.5 414.5 Q437 445 398 462.5 Q359 480 313 480 Q268 480 229.5 462.5 Q191 445 162.5 414.5 Q134 384 118 342 Q102 300 102 251 Q102 201 118 159 Q134 117 162.5 86 Q191 55 229.5 37.5 Q268 20 313 20 Z " />
<glyph glyph-name="germandbls" unicode="&#xdf;" horiz-adv-x="536" d="M67 477 Q67 583 117.5 641 Q168 699 259 699 Q298 699 332 686.5 Q366 674 390.5 651 Q415 628 429.5 595.5 Q444 563 444 523 Q444 465 416 423.5 Q388 382 328 362 Q379 352 413.5 334.5 Q448 317 468.5 293 Q489 269 497.5 240 Q506 211 506 178 Q506 142 493 108 Q480 74 455 48 Q430 22 393 6.5 Q356 -9 308 -9 Q256 -9 214 12.5 Q172 34 148 69 L173 90 Q186 70 203 57 Q220 44 238 36 Q256 28 274 24.5 Q292 21 309 21 Q351 21 381.5 34 Q412 47 432 69 Q452 91 461.5 119 Q471 147 471 176 Q471 257 411 300 Q351 343 250 343 L203 343 L203 374 L249 374 Q291 374 321 386.5 Q351 399 370.5 419 Q390 439 399.5 465 Q409 491 409 517 Q409 557 395.5 586 Q382 615 360 633.5 Q338 652 311.5 660.5 Q285 669 260 669 Q218 669 187.5 654.5 Q157 640 138 615 Q119 590 110 556.5 Q101 523 101 486 L101 0 L67 0 L67 477 Z " />
<glyph glyph-name="dotlessi" unicode="&#x131;" horiz-adv-x="171" d="M68 501 L102 501 L102 0 L68 0 L68 501 Z " />
<glyph glyph-name="dotlessj" unicode="&#x237;" horiz-adv-x="171" d="M-64 -171 Q-53 -174 -39.5 -177 Q-26 -180 -11 -180 Q22 -180 45 -157 Q68 -134 68 -81 L68 501 L102 501 L102 -87 Q102 -150 70 -180 Q38 -210 -13 -210 Q-30 -210 -46.5 -206.5 Q-63 -203 -73 -198 L-64 -171 Z " />
<glyph glyph-name="fi" unicode="&#xfb01;" horiz-adv-x="447" d="M-4 501 L78 501 L78 540 Q78 622 116 660 Q154 698 217 698 Q231 698 241 697 Q251 696 266 691 L266 660 Q246 668 209 668 Q161 668 136.5 635 Q112 602 112 545 L112 501 L267 501 L267 471 L112 471 L112 0 L78 0 L78 471 L-4 471 L-4 501 Z M344 501 L378 501 L378 0 L344 0 L344 501 Z M329 630 Q329 646 338 655.5 Q347 665 362 665 Q376 665 384.5 655.5 Q393 646 393 630 Q393 616 384.5 607 Q376 598 362 598 Q347 598 338 607 Q329 616 329 630 Z " />
<glyph glyph-name="fl" unicode="&#xfb02;" horiz-adv-x="446" d="M-4 501 L78 501 L78 540 Q78 622 116 660 Q154 698 217 698 Q231 698 241 697 Q251 696 266 691 L266 660 Q246 668 209 668 Q161 668 136.5 635 Q112 602 112 545 L112 501 L267 501 L267 471 L112 471 L112 0 L78 0 L78 471 L-4 471 L-4 501 Z M344 690 L378 690 L378 0 L344 0 L344 690 Z " />
<glyph glyph-name="Aacute" unicode="&#xc1;" horiz-adv-x="624" d="M312 730 L619 0 L584 0 L500 199 L122 199 L39 0 L5 0 L312 730 Z M135 230 L487 230 L311 650 L135 230 Z M224 804 L388 940 L411 916 L242 781 L224 804 Z " />
<glyph glyph-name="Acircumflex" unicode="&#xc2;" horiz-adv-x="624" d="M312 730 L619 0 L584 0 L500 199 L122 199 L39 0 L5 0 L312 730 Z M135 230 L487 230 L311 650 L135 230 Z M159 804 L312 940 L465 804 L445 781 L312 896 L179 781 L159 804 Z " />
<glyph glyph-name="Adieresis" unicode="&#xc4;" horiz-adv-x="624" d="M312 730 L619 0 L584 0 L500 199 L122 199 L39 0 L5 0 L312 730 Z M135 230 L487 230 L311 650 L135 230 Z M344 848 Q344 864 353 873.5 Q362 883 377 883 Q391 883 399.5 873.5 Q408 864 408 848 Q408 834 399.5 825 Q391 816 377 816 Q362 816 353 825 Q344 834 344 848 Z M215 848 Q215 864 224 873.5 Q233 883 248 883 Q262 883 270.5 873.5 Q279 864 279 848 Q279 834 270.5 825 Q262 816 248 816 Q233 816 224 825 Q215 834 215 848 Z " />
<glyph glyph-name="Agrave" unicode="&#xc0;" horiz-adv-x="624" d="M312 730 L619 0 L584 0 L500 199 L122 199 L39 0 L5 0 L312 730 Z M135 230 L487 230 L311 650 L135 230 Z M235 940 L399 804 L381 781 L212 916 L235 940 Z " />
<glyph glyph-name="Aring" unicode="&#xc5;" horiz-adv-x="624" d="M312 730 L619 0 L584 0 L500 199 L122 199 L39 0 L5 0 L312 730 Z M135 230 L487 230 L311 650 L135 230 Z M311 801 Q340 801 359.5 822 Q379 843 379 873 Q379 905 359.5 925.5 Q340 946 311 946 Q282 946 261.5 925.5 Q241 905 241 873 Q241 843 261.5 822 Q282 801 311 801 Z M209 873 Q209 894 217 912.5 Q225 931 239 945 Q253 959 271.5 967 Q290 975 311 975 Q332 975 350.5 967 Q369 959 382.5 945 Q396 931 404 912.5 Q412 894 412 873 Q412 852 404 833.5 Q396 815 382.5 801.5 Q369 788 350.5 780 Q332 772 311 772 Q290 772 271.5 780 Q253 788 239 801.5 Q225 815 217 833.5 Q209 852 209 873 Z " />
<glyph glyph-name="Atilde" unicode="&#xc3;" horiz-adv-x="624" d="M312 730 L619 0 L584 0 L500 199 L122 199 L39 0 L5 0 L312 730 Z M135 230 L487 230 L311 650 L135 230 Z M135 828 Q155 861 180 886 Q205 911 238 911 Q259 911 277.5 899.5 Q296 888 312.5 874.5 Q329 861 345.5 849.5 Q362 838 379 838 Q399 838 417.5 854.5 Q436 871 453 899 L476 884 Q456 850 430.5 828 Q405 806 375 806 Q353 806 335 817 Q317 828 301 841.5 Q285 855 269 866.5 Q253 878 236 878 Q210 878 193 859 Q176 840 159 812 L135 828 Z " />
<glyph glyph-name="Abreve" unicode="&#x102;" horiz-adv-x="624" d="M312 730 L619 0 L584 0 L500 199 L122 199 L39 0 L5 0 L312 730 Z M135 230 L487 230 L311 650 L135 230 Z M231 906 Q231 880 237.5 862 Q244 844 255.5 833 Q267 822 281.5 817 Q296 812 312 812 Q343 812 367 833 Q391 854 391 906 L425 906 Q425 846 395.5 813.5 Q366 781 312 781 Q258 781 227.5 815 Q197 849 197 906 L231 906 Z " />
<glyph glyph-name="Amacron" unicode="&#x100;" horiz-adv-x="624" d="M312 730 L619 0 L584 0 L500 199 L122 199 L39 0 L5 0 L312 730 Z M135 230 L487 230 L311 650 L135 230 Z M177 856 L446 856 L446 825 L177 825 L177 856 Z " />
<glyph glyph-name="Aogonek" unicode="&#x104;" horiz-adv-x="624" d="M622 -207 Q551 -207 511.5 -178.5 Q472 -150 472 -109 Q472 -71 503 -42 Q534 -13 580 9 L500 199 L122 199 L39 0 L5 0 L312 730 L619 0 L594 0 Q555 -26 530.5 -51.5 Q506 -77 506 -108 Q506 -134 533 -155 Q560 -176 622 -176 L622 -207 Z M135 230 L487 230 L311 650 L135 230 Z " />
<glyph glyph-name="Ccedilla" unicode="&#xc7;" horiz-adv-x="562" d="M349 -4 Q279 5 221 35 Q163 65 121.5 112.5 Q80 160 57 223 Q34 286 34 360 Q34 441 61.5 508.5 Q89 576 138.5 625 Q188 674 255.5 701.5 Q323 729 404 729 Q439 729 473.5 723 Q508 717 538 697 L538 664 Q507 686 472 692 Q437 698 399 698 Q325 698 264 672.5 Q203 647 159.5 602 Q116 557 92 494.5 Q68 432 68 358 Q68 284 92.5 222.5 Q117 161 160.5 117 Q204 73 265 48 Q326 23 400 23 Q438 23 474.5 26.5 Q511 30 544 50 L544 19 Q512 -1 476.5 -4.5 Q441 -8 404 -8 Q399 -8 393.5 -8 Q388 -8 383 -7 L320 -135 L286 -135 L349 -4 Z " />
<glyph glyph-name="Cacute" unicode="&#x106;" horiz-adv-x="562" d="M544 19 Q512 -1 476.5 -4.5 Q441 -8 404 -8 Q323 -8 254.5 19 Q186 46 136.5 95 Q87 144 59.5 211.5 Q32 279 32 360 Q32 441 60 508.5 Q88 576 137.5 625 Q187 674 255 701.5 Q323 729 404 729 Q439 729 473.5 723 Q508 717 538 697 L538 664 Q507 686 472 692 Q437 698 399 698 Q325 698 264 672.5 Q203 647 159.5 602 Q116 557 92 494.5 Q68 432 68 358 Q68 284 92.5 222.5 Q117 161 160.5 117 Q204 73 265 48 Q326 23 400 23 Q438 23 474.5 26.5 Q511 30 544 50 L544 19 Z M263 804 L427 940 L450 916 L281 781 L263 804 Z " />
<glyph glyph-name="Ccaron" unicode="&#x10c;" horiz-adv-x="562" d="M544 19 Q512 -1 476.5 -4.5 Q441 -8 404 -8 Q323 -8 254.5 19 Q186 46 136.5 95 Q87 144 59.5 211.5 Q32 279 32 360 Q32 441 60 508.5 Q88 576 137.5 625 Q187 674 255 701.5 Q323 729 404 729 Q439 729 473.5 723 Q508 717 538 697 L538 664 Q507 686 472 692 Q437 698 399 698 Q325 698 264 672.5 Q203 647 159.5 602 Q116 557 92 494.5 Q68 432 68 358 Q68 284 92.5 222.5 Q117 161 160.5 117 Q204 73 265 48 Q326 23 400 23 Q438 23 474.5 26.5 Q511 30 544 50 L544 19 Z M198 917 L218 940 L351 824 L484 940 L504 917 L351 781 L198 917 Z " />
<glyph glyph-name="Ccircumflex" unicode="&#x108;" horiz-adv-x="562" d="M544 19 Q512 -1 476.5 -4.5 Q441 -8 404 -8 Q323 -8 254.5 19 Q186 46 136.5 95 Q87 144 59.5 211.5 Q32 279 32 360 Q32 441 60 508.5 Q88 576 137.5 625 Q187 674 255 701.5 Q323 729 404 729 Q439 729 473.5 723 Q508 717 538 697 L538 664 Q507 686 472 692 Q437 698 399 698 Q325 698 264 672.5 Q203 647 159.5 602 Q116 557 92 494.5 Q68 432 68 358 Q68 284 92.5 222.5 Q117 161 160.5 117 Q204 73 265 48 Q326 23 400 23 Q438 23 474.5 26.5 Q511 30 544 50 L544 19 Z M198 804 L351 940 L504 804 L484 781 L351 896 L218 781 L198 804 Z " />
<glyph glyph-name="Cdotaccent" unicode="&#x10a;" horiz-adv-x="562" d="M544 19 Q512 -1 476.5 -4.5 Q441 -8 404 -8 Q323 -8 254.5 19 Q186 46 136.5 95 Q87 144 59.5 211.5 Q32 279 32 360 Q32 441 60 508.5 Q88 576 137.5 625 Q187 674 255 701.5 Q323 729 404 729 Q439 729 473.5 723 Q508 717 538 697 L538 664 Q507 686 472 692 Q437 698 399 698 Q325 698 264 672.5 Q203 647 159.5 602 Q116 557 92 494.5 Q68 432 68 358 Q68 284 92.5 222.5 Q117 161 160.5 117 Q204 73 265 48 Q326 23 400 23 Q438 23 474.5 26.5 Q511 30 544 50 L544 19 Z M318 848 Q318 864 327 873.5 Q336 883 351 883 Q365 883 373.5 873.5 Q382 864 382 848 Q382 834 373.5 825 Q365 816 351 816 Q336 816 327 825 Q318 834 318 848 Z " />
<glyph glyph-name="Dcaron" unicode="&#x10e;" horiz-adv-x="682" d="M77 720 L243 720 Q339 720 414.5 692.5 Q490 665 542.5 616.5 Q595 568 622.5 501.5 Q650 435 650 358 Q650 271 618 204 Q586 137 532 91.5 Q478 46 406 23 Q334 0 254 0 L77 0 L77 720 Z M111 689 L111 31 L248 31 Q336 31 404.5 55 Q473 79 520 122 Q567 165 591.5 225.5 Q616 286 616 358 Q616 431 589 492 Q562 553 513 596.5 Q464 640 395.5 664.5 Q327 689 244 689 L111 689 Z M129 917 L149 940 L282 824 L415 940 L435 917 L282 781 L129 917 Z " />
<glyph glyph-name="Dcroat" unicode="&#x110;" horiz-adv-x="682" d="M5 399 L77 399 L77 720 L243 720 Q339 720 414.5 692.5 Q490 665 542.5 616.5 Q595 568 622.5 501.5 Q650 435 650 358 Q650 271 618 204 Q586 137 532 91.5 Q478 46 406 23 Q334 0 254 0 L77 0 L77 368 L5 368 L5 399 Z M111 689 L111 399 L339 399 L339 368 L111 368 L111 31 L248 31 Q336 31 404.5 55 Q473 79 520 122 Q567 165 591.5 225.5 Q616 286 616 358 Q616 431 589 492 Q562 553 513 596.5 Q464 640 395.5 664.5 Q327 689 244 689 L111 689 Z " />
<glyph glyph-name="Eacute" unicode="&#xc9;" horiz-adv-x="473" d="M77 720 L424 720 L424 689 L111 689 L111 395 L370 395 L370 364 L111 364 L111 31 L424 31 L424 0 L77 0 L77 720 Z M164 804 L328 940 L351 916 L182 781 L164 804 Z " />
<glyph glyph-name="Ecircumflex" unicode="&#xca;" horiz-adv-x="473" d="M77 720 L424 720 L424 689 L111 689 L111 395 L370 395 L370 364 L111 364 L111 31 L424 31 L424 0 L77 0 L77 720 Z M99 804 L252 940 L405 804 L385 781 L252 896 L119 781 L99 804 Z " />
<glyph glyph-name="Edieresis" unicode="&#xcb;" horiz-adv-x="473" d="M77 720 L424 720 L424 689 L111 689 L111 395 L370 395 L370 364 L111 364 L111 31 L424 31 L424 0 L77 0 L77 720 Z M284 848 Q284 864 293 873.5 Q302 883 317 883 Q331 883 339.5 873.5 Q348 864 348 848 Q348 834 339.5 825 Q331 816 317 816 Q302 816 293 825 Q284 834 284 848 Z M155 848 Q155 864 164 873.5 Q173 883 188 883 Q202 883 210.5 873.5 Q219 864 219 848 Q219 834 210.5 825 Q202 816 188 816 Q173 816 164 825 Q155 834 155 848 Z " />
<glyph glyph-name="Egrave" unicode="&#xc8;" horiz-adv-x="473" d="M77 720 L424 720 L424 689 L111 689 L111 395 L370 395 L370 364 L111 364 L111 31 L424 31 L424 0 L77 0 L77 720 Z M175 940 L339 804 L321 781 L152 916 L175 940 Z " />
<glyph glyph-name="Ebreve" unicode="&#x114;" horiz-adv-x="473" d="M77 720 L424 720 L424 689 L111 689 L111 395 L370 395 L370 364 L111 364 L111 31 L424 31 L424 0 L77 0 L77 720 Z M171 906 Q171 880 177.5 862 Q184 844 195.5 833 Q207 822 221.5 817 Q236 812 252 812 Q283 812 307 833 Q331 854 331 906 L365 906 Q365 846 335.5 813.5 Q306 781 252 781 Q198 781 167.5 815 Q137 849 137 906 L171 906 Z " />
<glyph glyph-name="Ecaron" unicode="&#x11a;" horiz-adv-x="473" d="M77 720 L424 720 L424 689 L111 689 L111 395 L370 395 L370 364 L111 364 L111 31 L424 31 L424 0 L77 0 L77 720 Z M99 917 L119 940 L252 824 L385 940 L405 917 L252 781 L99 917 Z " />
<glyph glyph-name="Edotaccent" unicode="&#x116;" horiz-adv-x="473" d="M77 720 L424 720 L424 689 L111 689 L111 395 L370 395 L370 364 L111 364 L111 31 L424 31 L424 0 L77 0 L77 720 Z M219 848 Q219 864 228 873.5 Q237 883 252 883 Q266 883 274.5 873.5 Q283 864 283 848 Q283 834 274.5 825 Q266 816 252 816 Q237 816 228 825 Q219 834 219 848 Z " />
<glyph glyph-name="Emacron" unicode="&#x112;" horiz-adv-x="473" d="M77 720 L424 720 L424 689 L111 689 L111 395 L370 395 L370 364 L111 364 L111 31 L424 31 L424 0 L77 0 L77 720 Z M117 856 L386 856 L386 825 L117 825 L117 856 Z " />
<glyph glyph-name="Eogonek" unicode="&#x118;" horiz-adv-x="473" d="M77 720 L424 720 L424 689 L111 689 L111 395 L370 395 L370 364 L111 364 L111 31 L424 31 L424 0 L395 0 Q352 -26 325 -51.5 Q298 -77 298 -108 Q298 -134 325 -155 Q352 -176 414 -176 L414 -207 Q343 -207 303.5 -178.5 Q264 -150 264 -109 Q264 -75 289.5 -48 Q315 -21 354 0 L77 0 L77 720 Z " />
<glyph glyph-name="Gbreve" unicode="&#x11e;" horiz-adv-x="751" d="M391 390 L723 390 Q725 378 725.5 366.5 Q726 355 726 343 Q726 271 702.5 207 Q679 143 635.5 95 Q592 47 531 19.5 Q470 -8 396 -8 Q315 -8 248 19 Q181 46 133 95 Q85 144 58.5 211.5 Q32 279 32 360 Q32 441 59 508.5 Q86 576 134.5 625 Q183 674 250.5 701.5 Q318 729 398 729 Q470 729 534.5 705.5 Q599 682 650 633 L628 609 Q580 653 521 675.5 Q462 698 397 698 Q323 698 262 672 Q201 646 158 600 Q115 554 91.5 491 Q68 428 68 354 Q68 281 92 220.5 Q116 160 159.5 116 Q203 72 263 47.5 Q323 23 396 23 Q466 23 521 48.5 Q576 74 614 119 Q652 164 672.5 225.5 Q693 287 693 359 L391 359 L391 390 Z M295 906 Q295 880 301.5 862 Q308 844 319.5 833 Q331 822 345.5 817 Q360 812 376 812 Q407 812 431 833 Q455 854 455 906 L489 906 Q489 846 459.5 813.5 Q430 781 376 781 Q322 781 291.5 815 Q261 849 261 906 L295 906 Z " />
<glyph glyph-name="Gcircumflex" unicode="&#x11c;" horiz-adv-x="751" d="M391 390 L723 390 Q725 378 725.5 366.5 Q726 355 726 343 Q726 271 702.5 207 Q679 143 635.5 95 Q592 47 531 19.5 Q470 -8 396 -8 Q315 -8 248 19 Q181 46 133 95 Q85 144 58.5 211.5 Q32 279 32 360 Q32 441 59 508.5 Q86 576 134.5 625 Q183 674 250.5 701.5 Q318 729 398 729 Q470 729 534.5 705.5 Q599 682 650 633 L628 609 Q580 653 521 675.5 Q462 698 397 698 Q323 698 262 672 Q201 646 158 600 Q115 554 91.5 491 Q68 428 68 354 Q68 281 92 220.5 Q116 160 159.5 116 Q203 72 263 47.5 Q323 23 396 23 Q466 23 521 48.5 Q576 74 614 119 Q652 164 672.5 225.5 Q693 287 693 359 L391 359 L391 390 Z M223 804 L376 940 L529 804 L509 781 L376 896 L243 781 L223 804 Z " />
<glyph glyph-name="Gcommaaccent" unicode="&#x122;" horiz-adv-x="751" d="M391 390 L723 390 Q725 378 725.5 366.5 Q726 355 726 343 Q726 271 702.5 207 Q679 143 635.5 95 Q592 47 531 19.5 Q470 -8 396 -8 Q315 -8 248 19 Q181 46 133 95 Q85 144 58.5 211.5 Q32 279 32 360 Q32 441 59 508.5 Q86 576 134.5 625 Q183 674 250.5 701.5 Q318 729 398 729 Q470 729 534.5 705.5 Q599 682 650 633 L628 609 Q580 653 521 675.5 Q462 698 397 698 Q323 698 262 672 Q201 646 158 600 Q115 554 91.5 491 Q68 428 68 354 Q68 281 92 220.5 Q116 160 159.5 116 Q203 72 263 47.5 Q323 23 396 23 Q466 23 521 48.5 Q576 74 614 119 Q652 164 672.5 225.5 Q693 287 693 359 L391 359 L391 390 Z M368 -59 L409 -59 L347 -219 L322 -219 L368 -59 Z " />
<glyph glyph-name="Gdotaccent" unicode="&#x120;" horiz-adv-x="751" d="M391 390 L723 390 Q725 378 725.5 366.5 Q726 355 726 343 Q726 271 702.5 207 Q679 143 635.5 95 Q592 47 531 19.5 Q470 -8 396 -8 Q315 -8 248 19 Q181 46 133 95 Q85 144 58.5 211.5 Q32 279 32 360 Q32 441 59 508.5 Q86 576 134.5 625 Q183 674 250.5 701.5 Q318 729 398 729 Q470 729 534.5 705.5 Q599 682 650 633 L628 609 Q580 653 521 675.5 Q462 698 397 698 Q323 698 262 672 Q201 646 158 600 Q115 554 91.5 491 Q68 428 68 354 Q68 281 92 220.5 Q116 160 159.5 116 Q203 72 263 47.5 Q323 23 396 23 Q466 23 521 48.5 Q576 74 614 119 Q652 164 672.5 225.5 Q693 287 693 359 L391 359 L391 390 Z M343 848 Q343 864 352 873.5 Q361 883 376 883 Q390 883 398.5 873.5 Q407 864 407 848 Q407 834 398.5 825 Q390 816 376 816 Q361 816 352 825 Q343 834 343 848 Z " />
<glyph glyph-name="Hbar" unicode="&#x126;" horiz-adv-x="704" d="M77 720 L111 720 L111 596 L593 596 L593 720 L627 720 L627 0 L593 0 L593 367 L111 367 L111 0 L77 0 L77 720 Z M111 398 L593 398 L593 565 L111 565 L111 398 Z " />
<glyph glyph-name="Hcircumflex" unicode="&#x124;" horiz-adv-x="704" d="M77 720 L111 720 L111 398 L593 398 L593 720 L627 720 L627 0 L593 0 L593 367 L111 367 L111 0 L77 0 L77 720 Z M199 804 L352 940 L505 804 L485 781 L352 896 L219 781 L199 804 Z " />
<glyph glyph-name="Iacute" unicode="&#xcd;" horiz-adv-x="188" d="M77 720 L111 720 L111 0 L77 0 L77 720 Z M7 804 L171 940 L194 916 L25 781 L7 804 Z " />
<glyph glyph-name="Icircumflex" unicode="&#xce;" horiz-adv-x="188" d="M77 720 L111 720 L111 0 L77 0 L77 720 Z M-58 804 L95 940 L248 804 L228 781 L95 896 L-38 781 L-58 804 Z " />
<glyph glyph-name="Idieresis" unicode="&#xcf;" horiz-adv-x="188" d="M77 720 L111 720 L111 0 L77 0 L77 720 Z M127 848 Q127 864 136 873.5 Q145 883 160 883 Q174 883 182.5 873.5 Q191 864 191 848 Q191 834 182.5 825 Q174 816 160 816 Q145 816 136 825 Q127 834 127 848 Z M-2 848 Q-2 864 7 873.5 Q16 883 31 883 Q45 883 53.5 873.5 Q62 864 62 848 Q62 834 53.5 825 Q45 816 31 816 Q16 816 7 825 Q-2 834 -2 848 Z " />
<glyph glyph-name="Igrave" unicode="&#xcc;" horiz-adv-x="188" d="M77 720 L111 720 L111 0 L77 0 L77 720 Z M18 940 L182 804 L164 781 L-5 916 L18 940 Z " />
<glyph glyph-name="Ibreve" unicode="&#x12c;" horiz-adv-x="188" d="M77 720 L111 720 L111 0 L77 0 L77 720 Z M14 906 Q14 880 20.5 862 Q27 844 38.5 833 Q50 822 64.5 817 Q79 812 95 812 Q126 812 150 833 Q174 854 174 906 L208 906 Q208 846 178.5 813.5 Q149 781 95 781 Q41 781 10.5 815 Q-20 849 -20 906 L14 906 Z " />
<glyph glyph-name="Idotaccent" unicode="&#x130;" horiz-adv-x="188" d="M77 720 L111 720 L111 0 L77 0 L77 720 Z M62 848 Q62 864 71 873.5 Q80 883 95 883 Q109 883 117.5 873.5 Q126 864 126 848 Q126 834 117.5 825 Q109 816 95 816 Q80 816 71 825 Q62 834 62 848 Z " />
<glyph glyph-name="Imacron" unicode="&#x12a;" horiz-adv-x="188" d="M77 720 L111 720 L111 0 L77 0 L77 720 Z M-40 856 L229 856 L229 825 L-40 825 L-40 856 Z " />
<glyph glyph-name="Iogonek" unicode="&#x12e;" horiz-adv-x="188" d="M120 -207 Q49 -207 9.5 -178.5 Q-30 -150 -30 -109 Q-30 -71 1 -42.5 Q32 -14 77 9 L77 720 L111 720 L111 0 L92 0 Q53 -26 28.5 -51.5 Q4 -77 4 -108 Q4 -134 31 -155 Q58 -176 120 -176 L120 -207 Z " />
<glyph glyph-name="Itilde" unicode="&#x128;" horiz-adv-x="188" d="M77 720 L111 720 L111 0 L77 0 L77 720 Z M-82 828 Q-62 861 -37 886 Q-12 911 21 911 Q42 911 60.5 899.5 Q79 888 95.5 874.5 Q112 861 128.5 849.5 Q145 838 162 838 Q182 838 200.5 854.5 Q219 871 236 899 L259 884 Q239 850 213.5 828 Q188 806 158 806 Q136 806 118 817 Q100 828 84 841.5 Q68 855 52 866.5 Q36 878 19 878 Q-7 878 -24 859 Q-41 840 -58 812 L-82 828 Z " />
<glyph glyph-name="Jcircumflex" unicode="&#x134;" horiz-adv-x="292" d="M28 38 Q39 32 54.5 27 Q70 22 87 22 Q129 22 155 45 Q181 68 181 112 L181 720 L215 720 L215 119 Q215 59 180.5 25.5 Q146 -8 86 -8 Q66 -8 48 -3 Q30 2 14 10 L28 38 Z M44 804 L197 940 L350 804 L330 781 L197 896 L64 781 L44 804 Z " />
<glyph glyph-name="IJ" unicode="&#x132;" horiz-adv-x="480" d="M77 720 L111 720 L111 0 L77 0 L77 720 Z M216 38 Q227 32 242.5 27 Q258 22 275 22 Q317 22 343 45 Q369 68 369 112 L369 720 L403 720 L403 119 Q403 59 368.5 25.5 Q334 -8 274 -8 Q254 -8 236 -3 Q218 2 202 10 L216 38 Z " />
<glyph glyph-name="Kcommaaccent" unicode="&#x136;" horiz-adv-x="521" d="M77 720 L111 720 L111 366 L449 720 L490 720 L141 354 L518 0 L469 0 L111 336 L111 0 L77 0 L77 720 Z M254 -59 L295 -59 L233 -219 L208 -219 L254 -59 Z " />
<glyph glyph-name="Lacute" unicode="&#x139;" horiz-adv-x="414" d="M77 720 L111 720 L111 31 L400 31 L400 0 L77 0 L77 720 Z M79 804 L243 940 L266 916 L97 781 L79 804 Z " />
<glyph glyph-name="Lcaron" unicode="&#x13d;" horiz-adv-x="414" d="M77 720 L111 720 L111 31 L400 31 L400 0 L77 0 L77 720 Z M260 720 L301 720 L239 550 L214 550 L260 720 Z " />
<glyph glyph-name="Lcommaaccent" unicode="&#x13b;" horiz-adv-x="414" d="M77 720 L111 720 L111 31 L400 31 L400 0 L77 0 L77 720 Z M210 -59 L251 -59 L189 -219 L164 -219 L210 -59 Z " />
<glyph glyph-name="Ldot" unicode="&#x13f;" horiz-adv-x="414" d="M77 720 L111 720 L111 31 L400 31 L400 0 L77 0 L77 720 Z M252 356 Q252 372 261 381.5 Q270 391 285 391 Q299 391 307.5 381.5 Q316 372 316 356 Q316 342 307.5 333 Q299 324 285 324 Q270 324 261 333 Q252 342 252 356 Z " />
<glyph glyph-name="Ntilde" unicode="&#xd1;" horiz-adv-x="745" d="M77 730 L633 81 L633 720 L667 720 L667 -10 L111 640 L111 0 L77 0 L77 730 Z M195 828 Q215 861 240 886 Q265 911 298 911 Q319 911 337.5 899.5 Q356 888 372.5 874.5 Q389 861 405.5 849.5 Q422 838 439 838 Q459 838 477.5 854.5 Q496 871 513 899 L536 884 Q516 850 490.5 828 Q465 806 435 806 Q413 806 395 817 Q377 828 361 841.5 Q345 855 329 866.5 Q313 878 296 878 Q270 878 253 859 Q236 840 219 812 L195 828 Z " />
<glyph glyph-name="Nacute" unicode="&#x143;" horiz-adv-x="745" d="M77 730 L633 81 L633 720 L667 720 L667 -10 L111 640 L111 0 L77 0 L77 730 Z M284 804 L448 940 L471 916 L302 781 L284 804 Z " />
<glyph glyph-name="Ncaron" unicode="&#x147;" horiz-adv-x="745" d="M77 730 L633 81 L633 720 L667 720 L667 -10 L111 640 L111 0 L77 0 L77 730 Z M219 917 L239 940 L372 824 L505 940 L525 917 L372 781 L219 917 Z " />
<glyph glyph-name="Ncommaaccent" unicode="&#x145;" horiz-adv-x="745" d="M77 730 L633 81 L633 720 L667 720 L667 -10 L111 640 L111 0 L77 0 L77 730 Z M335 -59 L376 -59 L314 -219 L289 -219 L335 -59 Z " />
<glyph glyph-name="Oacute" unicode="&#xd3;" horiz-adv-x="794" d="M396 -8 Q316 -8 249 19.5 Q182 47 134 96 Q86 145 59 212.5 Q32 280 32 360 Q32 440 59 507.5 Q86 575 134.5 624 Q183 673 250 700.5 Q317 728 397 728 Q477 728 544 700.5 Q611 673 659.5 624 Q708 575 735 507.5 Q762 440 762 360 Q762 280 735 212.5 Q708 145 659.5 96 Q611 47 543.5 19.5 Q476 -8 396 -8 Z M394 23 Q467 23 528.5 48 Q590 73 633.5 117 Q677 161 701.5 222.5 Q726 284 726 358 Q726 432 702 494 Q678 556 634 601 Q590 646 529 671.5 Q468 697 394 697 Q320 697 260 671.5 Q200 646 157.5 601 Q115 556 91.5 493.5 Q68 431 68 358 Q68 285 91.5 223.5 Q115 162 158 117.5 Q201 73 261 48 Q321 23 394 23 Z M309 804 L473 940 L496 916 L327 781 L309 804 Z " />
<glyph glyph-name="Ocircumflex" unicode="&#xd4;" horiz-adv-x="794" d="M396 -8 Q316 -8 249 19.5 Q182 47 134 96 Q86 145 59 212.5 Q32 280 32 360 Q32 440 59 507.5 Q86 575 134.5 624 Q183 673 250 700.5 Q317 728 397 728 Q477 728 544 700.5 Q611 673 659.5 624 Q708 575 735 507.5 Q762 440 762 360 Q762 280 735 212.5 Q708 145 659.5 96 Q611 47 543.5 19.5 Q476 -8 396 -8 Z M394 23 Q467 23 528.5 48 Q590 73 633.5 117 Q677 161 701.5 222.5 Q726 284 726 358 Q726 432 702 494 Q678 556 634 601 Q590 646 529 671.5 Q468 697 394 697 Q320 697 260 671.5 Q200 646 157.5 601 Q115 556 91.5 493.5 Q68 431 68 358 Q68 285 91.5 223.5 Q115 162 158 117.5 Q201 73 261 48 Q321 23 394 23 Z M244 804 L397 940 L550 804 L530 781 L397 896 L264 781 L244 804 Z " />
<glyph glyph-name="Odieresis" unicode="&#xd6;" horiz-adv-x="794" d="M396 -8 Q316 -8 249 19.5 Q182 47 134 96 Q86 145 59 212.5 Q32 280 32 360 Q32 440 59 507.5 Q86 575 134.5 624 Q183 673 250 700.5 Q317 728 397 728 Q477 728 544 700.5 Q611 673 659.5 624 Q708 575 735 507.5 Q762 440 762 360 Q762 280 735 212.5 Q708 145 659.5 96 Q611 47 543.5 19.5 Q476 -8 396 -8 Z M394 23 Q467 23 528.5 48 Q590 73 633.5 117 Q677 161 701.5 222.5 Q726 284 726 358 Q726 432 702 494 Q678 556 634 601 Q590 646 529 671.5 Q468 697 394 697 Q320 697 260 671.5 Q200 646 157.5 601 Q115 556 91.5 493.5 Q68 431 68 358 Q68 285 91.5 223.5 Q115 162 158 117.5 Q201 73 261 48 Q321 23 394 23 Z M429 848 Q429 864 438 873.5 Q447 883 462 883 Q476 883 484.5 873.5 Q493 864 493 848 Q493 834 484.5 825 Q476 816 462 816 Q447 816 438 825 Q429 834 429 848 Z M300 848 Q300 864 309 873.5 Q318 883 333 883 Q347 883 355.5 873.5 Q364 864 364 848 Q364 834 355.5 825 Q347 816 333 816 Q318 816 309 825 Q300 834 300 848 Z " />
<glyph glyph-name="Ograve" unicode="&#xd2;" horiz-adv-x="794" d="M396 -8 Q316 -8 249 19.5 Q182 47 134 96 Q86 145 59 212.5 Q32 280 32 360 Q32 440 59 507.5 Q86 575 134.5 624 Q183 673 250 700.5 Q317 728 397 728 Q477 728 544 700.5 Q611 673 659.5 624 Q708 575 735 507.5 Q762 440 762 360 Q762 280 735 212.5 Q708 145 659.5 96 Q611 47 543.5 19.5 Q476 -8 396 -8 Z M394 23 Q467 23 528.5 48 Q590 73 633.5 117 Q677 161 701.5 222.5 Q726 284 726 358 Q726 432 702 494 Q678 556 634 601 Q590 646 529 671.5 Q468 697 394 697 Q320 697 260 671.5 Q200 646 157.5 601 Q115 556 91.5 493.5 Q68 431 68 358 Q68 285 91.5 223.5 Q115 162 158 117.5 Q201 73 261 48 Q321 23 394 23 Z M320 940 L484 804 L466 781 L297 916 L320 940 Z " />
<glyph glyph-name="Otilde" unicode="&#xd5;" horiz-adv-x="794" d="M396 -8 Q316 -8 249 19.5 Q182 47 134 96 Q86 145 59 212.5 Q32 280 32 360 Q32 440 59 507.5 Q86 575 134.5 624 Q183 673 250 700.5 Q317 728 397 728 Q477 728 544 700.5 Q611 673 659.5 624 Q708 575 735 507.5 Q762 440 762 360 Q762 280 735 212.5 Q708 145 659.5 96 Q611 47 543.5 19.5 Q476 -8 396 -8 Z M394 23 Q467 23 528.5 48 Q590 73 633.5 117 Q677 161 701.5 222.5 Q726 284 726 358 Q726 432 702 494 Q678 556 634 601 Q590 646 529 671.5 Q468 697 394 697 Q320 697 260 671.5 Q200 646 157.5 601 Q115 556 91.5 493.5 Q68 431 68 358 Q68 285 91.5 223.5 Q115 162 158 117.5 Q201 73 261 48 Q321 23 394 23 Z M220 828 Q240 861 265 886 Q290 911 323 911 Q344 911 362.5 899.5 Q381 888 397.5 874.5 Q414 861 430.5 849.5 Q447 838 464 838 Q484 838 502.5 854.5 Q521 871 538 899 L561 884 Q541 850 515.5 828 Q490 806 460 806 Q438 806 420 817 Q402 828 386 841.5 Q370 855 354 866.5 Q338 878 321 878 Q295 878 278 859 Q261 840 244 812 L220 828 Z " />
<glyph glyph-name="Obreve" unicode="&#x14e;" horiz-adv-x="794" d="M396 -8 Q316 -8 249 19.5 Q182 47 134 96 Q86 145 59 212.5 Q32 280 32 360 Q32 440 59 507.5 Q86 575 134.5 624 Q183 673 250 700.5 Q317 728 397 728 Q477 728 544 700.5 Q611 673 659.5 624 Q708 575 735 507.5 Q762 440 762 360 Q762 280 735 212.5 Q708 145 659.5 96 Q611 47 543.5 19.5 Q476 -8 396 -8 Z M394 23 Q467 23 528.5 48 Q590 73 633.5 117 Q677 161 701.5 222.5 Q726 284 726 358 Q726 432 702 494 Q678 556 634 601 Q590 646 529 671.5 Q468 697 394 697 Q320 697 260 671.5 Q200 646 157.5 601 Q115 556 91.5 493.5 Q68 431 68 358 Q68 285 91.5 223.5 Q115 162 158 117.5 Q201 73 261 48 Q321 23 394 23 Z M316 906 Q316 880 322.5 862 Q329 844 340.5 833 Q352 822 366.5 817 Q381 812 397 812 Q428 812 452 833 Q476 854 476 906 L510 906 Q510 846 480.5 813.5 Q451 781 397 781 Q343 781 312.5 815 Q282 849 282 906 L316 906 Z " />
<glyph glyph-name="Ohungarumlaut" unicode="&#x150;" horiz-adv-x="794" d="M396 -8 Q316 -8 249 19.5 Q182 47 134 96 Q86 145 59 212.5 Q32 280 32 360 Q32 440 59 507.5 Q86 575 134.5 624 Q183 673 250 700.5 Q317 728 397 728 Q477 728 544 700.5 Q611 673 659.5 624 Q708 575 735 507.5 Q762 440 762 360 Q762 280 735 212.5 Q708 145 659.5 96 Q611 47 543.5 19.5 Q476 -8 396 -8 Z M394 23 Q467 23 528.5 48 Q590 73 633.5 117 Q677 161 701.5 222.5 Q726 284 726 358 Q726 432 702 494 Q678 556 634 601 Q590 646 529 671.5 Q468 697 394 697 Q320 697 260 671.5 Q200 646 157.5 601 Q115 556 91.5 493.5 Q68 431 68 358 Q68 285 91.5 223.5 Q115 162 158 117.5 Q201 73 261 48 Q321 23 394 23 Z M405 802 L537 940 L560 916 L425 781 L405 802 Z M285 802 L417 940 L440 916 L305 781 L285 802 Z " />
<glyph glyph-name="Omacron" unicode="&#x14c;" horiz-adv-x="794" d="M396 -8 Q316 -8 249 19.5 Q182 47 134 96 Q86 145 59 212.5 Q32 280 32 360 Q32 440 59 507.5 Q86 575 134.5 624 Q183 673 250 700.5 Q317 728 397 728 Q477 728 544 700.5 Q611 673 659.5 624 Q708 575 735 507.5 Q762 440 762 360 Q762 280 735 212.5 Q708 145 659.5 96 Q611 47 543.5 19.5 Q476 -8 396 -8 Z M394 23 Q467 23 528.5 48 Q590 73 633.5 117 Q677 161 701.5 222.5 Q726 284 726 358 Q726 432 702 494 Q678 556 634 601 Q590 646 529 671.5 Q468 697 394 697 Q320 697 260 671.5 Q200 646 157.5 601 Q115 556 91.5 493.5 Q68 431 68 358 Q68 285 91.5 223.5 Q115 162 158 117.5 Q201 73 261 48 Q321 23 394 23 Z M262 856 L531 856 L531 825 L262 825 L262 856 Z " />
<glyph glyph-name="Racute" unicode="&#x154;" horiz-adv-x="498" d="M77 720 L205 720 Q262 720 308 706 Q354 692 387 665.5 Q420 639 437.5 601 Q455 563 455 514 Q455 466 440.5 429 Q426 392 399.5 365 Q373 338 336 322 Q299 306 253 300 L505 0 L462 0 L213 297 L195 297 L111 297 L111 0 L77 0 L77 720 Z M111 689 L111 328 L205 328 Q310 328 364.5 375 Q419 422 419 513 Q419 593 364 641 Q309 689 212 689 L111 689 Z M162 804 L326 940 L349 916 L180 781 L162 804 Z " />
<glyph glyph-name="Rcaron" unicode="&#x158;" horiz-adv-x="498" d="M77 720 L205 720 Q262 720 308 706 Q354 692 387 665.5 Q420 639 437.5 601 Q455 563 455 514 Q455 466 440.5 429 Q426 392 399.5 365 Q373 338 336 322 Q299 306 253 300 L505 0 L462 0 L213 297 L195 297 L111 297 L111 0 L77 0 L77 720 Z M111 689 L111 328 L205 328 Q310 328 364.5 375 Q419 422 419 513 Q419 593 364 641 Q309 689 212 689 L111 689 Z M97 917 L117 940 L250 824 L383 940 L403 917 L250 781 L97 917 Z " />
<glyph glyph-name="Rcommaaccent" unicode="&#x156;" horiz-adv-x="498" d="M77 720 L205 720 Q262 720 308 706 Q354 692 387 665.5 Q420 639 437.5 601 Q455 563 455 514 Q455 466 440.5 429 Q426 392 399.5 365 Q373 338 336 322 Q299 306 253 300 L505 0 L462 0 L213 297 L195 297 L111 297 L111 0 L77 0 L77 720 Z M111 689 L111 328 L205 328 Q310 328 364.5 375 Q419 422 419 513 Q419 593 364 641 Q309 689 212 689 L111 689 Z M242 -59 L283 -59 L221 -219 L196 -219 L242 -59 Z " />
<glyph glyph-name="Scaron" unicode="&#x160;" horiz-adv-x="525" d="M67 136 Q80 117 98.5 97 Q117 77 141 60.5 Q165 44 195.5 33.5 Q226 23 263 23 Q352 23 399.5 65 Q447 107 447 184 Q447 228 434 257 Q421 286 397 305.5 Q373 325 339.5 337.5 Q306 350 266 361 Q164 389 113.5 433.5 Q63 478 63 557 Q63 593 76 624.5 Q89 656 113.5 679.5 Q138 703 175 716 Q212 729 260 729 Q330 729 382 700.5 Q434 672 466 625 L440 606 Q402 656 358.5 677 Q315 698 255 698 Q214 698 184.5 686.5 Q155 675 136 655.5 Q117 636 108 610 Q99 584 99 556 Q99 532 106.5 508.5 Q114 485 133.5 464.5 Q153 444 186 426 Q219 408 269 395 Q311 384 350 369.5 Q389 355 418.5 332.5 Q448 310 465.5 276.5 Q483 243 483 193 Q483 157 471.5 121 Q460 85 435 56.5 Q410 28 369.5 10 Q329 -8 271 -8 Q225 -8 189.5 2.5 Q154 13 126.5 30 Q99 47 78 69.5 Q57 92 40 115 L67 136 Z M111 917 L131 940 L264 824 L397 940 L417 917 L264 781 L111 917 Z " />
<glyph glyph-name="Sacute" unicode="&#x15a;" horiz-adv-x="525" d="M67 136 Q80 117 98.5 97 Q117 77 141 60.5 Q165 44 195.5 33.5 Q226 23 263 23 Q352 23 399.5 65 Q447 107 447 184 Q447 228 434 257 Q421 286 397 305.5 Q373 325 339.5 337.5 Q306 350 266 361 Q164 389 113.5 433.5 Q63 478 63 557 Q63 593 76 624.5 Q89 656 113.5 679.5 Q138 703 175 716 Q212 729 260 729 Q330 729 382 700.5 Q434 672 466 625 L440 606 Q402 656 358.5 677 Q315 698 255 698 Q214 698 184.5 686.5 Q155 675 136 655.5 Q117 636 108 610 Q99 584 99 556 Q99 532 106.5 508.5 Q114 485 133.5 464.5 Q153 444 186 426 Q219 408 269 395 Q311 384 350 369.5 Q389 355 418.5 332.5 Q448 310 465.5 276.5 Q483 243 483 193 Q483 157 471.5 121 Q460 85 435 56.5 Q410 28 369.5 10 Q329 -8 271 -8 Q225 -8 189.5 2.5 Q154 13 126.5 30 Q99 47 78 69.5 Q57 92 40 115 L67 136 Z M175 804 L339 940 L362 916 L193 781 L175 804 Z " />
<glyph glyph-name="Scedilla" unicode="&#x15e;" horiz-adv-x="525" d="M246 -7 Q206 -4 174.5 7 Q143 18 118.5 35 Q94 52 75 72.5 Q56 93 40 115 L67 136 Q80 117 98.5 97 Q117 77 141 60.5 Q165 44 195.5 33.5 Q226 23 263 23 Q352 23 399.5 65 Q447 107 447 184 Q447 228 434 257 Q421 286 397 305.5 Q373 325 339.5 337.5 Q306 350 266 361 Q164 389 113.5 433.5 Q63 478 63 557 Q63 593 76 624.5 Q89 656 113.5 679.5 Q138 703 175 716 Q212 729 260 729 Q330 729 382 700.5 Q434 672 466 625 L440 606 Q402 656 358.5 677 Q315 698 255 698 Q214 698 184.5 686.5 Q155 675 136 655.5 Q117 636 108 610 Q99 584 99 556 Q99 532 106.5 508.5 Q114 485 133.5 464.5 Q153 444 186 426 Q219 408 269 395 Q311 384 350 369.5 Q389 355 418.5 332.5 Q448 310 465.5 276.5 Q483 243 483 193 Q483 158 472 123 Q461 88 437 59.5 Q413 31 375 12.5 Q337 -6 282 -8 L218 -135 L185 -135 L246 -7 Z " />
<glyph glyph-name="Scircumflex" unicode="&#x15c;" horiz-adv-x="525" d="M67 136 Q80 117 98.5 97 Q117 77 141 60.5 Q165 44 195.5 33.5 Q226 23 263 23 Q352 23 399.5 65 Q447 107 447 184 Q447 228 434 257 Q421 286 397 305.5 Q373 325 339.5 337.5 Q306 350 266 361 Q164 389 113.5 433.5 Q63 478 63 557 Q63 593 76 624.5 Q89 656 113.5 679.5 Q138 703 175 716 Q212 729 260 729 Q330 729 382 700.5 Q434 672 466 625 L440 606 Q402 656 358.5 677 Q315 698 255 698 Q214 698 184.5 686.5 Q155 675 136 655.5 Q117 636 108 610 Q99 584 99 556 Q99 532 106.5 508.5 Q114 485 133.5 464.5 Q153 444 186 426 Q219 408 269 395 Q311 384 350 369.5 Q389 355 418.5 332.5 Q448 310 465.5 276.5 Q483 243 483 193 Q483 157 471.5 121 Q460 85 435 56.5 Q410 28 369.5 10 Q329 -8 271 -8 Q225 -8 189.5 2.5 Q154 13 126.5 30 Q99 47 78 69.5 Q57 92 40 115 L67 136 Z M111 804 L264 940 L417 804 L397 781 L264 896 L131 781 L111 804 Z " />
<glyph glyph-name="uni0218" unicode="&#x218;" horiz-adv-x="525" d="M67 136 Q80 117 98.5 97 Q117 77 141 60.5 Q165 44 195.5 33.5 Q226 23 263 23 Q352 23 399.5 65 Q447 107 447 184 Q447 228 434 257 Q421 286 397 305.5 Q373 325 339.5 337.5 Q306 350 266 361 Q164 389 113.5 433.5 Q63 478 63 557 Q63 593 76 624.5 Q89 656 113.5 679.5 Q138 703 175 716 Q212 729 260 729 Q330 729 382 700.5 Q434 672 466 625 L440 606 Q402 656 358.5 677 Q315 698 255 698 Q214 698 184.5 686.5 Q155 675 136 655.5 Q117 636 108 610 Q99 584 99 556 Q99 532 106.5 508.5 Q114 485 133.5 464.5 Q153 444 186 426 Q219 408 269 395 Q311 384 350 369.5 Q389 355 418.5 332.5 Q448 310 465.5 276.5 Q483 243 483 193 Q483 157 471.5 121 Q460 85 435 56.5 Q410 28 369.5 10 Q329 -8 271 -8 Q225 -8 189.5 2.5 Q154 13 126.5 30 Q99 47 78 69.5 Q57 92 40 115 L67 136 Z M256 -59 L297 -59 L235 -219 L210 -219 L256 -59 Z " />
<glyph glyph-name="Tbar" unicode="&#x166;" horiz-adv-x="507" d="M5 720 L502 720 L502 689 L272 689 L272 394 L388 394 L388 363 L272 363 L272 0 L238 0 L238 363 L119 363 L119 394 L238 394 L238 689 L5 689 L5 720 Z " />
<glyph glyph-name="Tcaron" unicode="&#x164;" horiz-adv-x="507" d="M5 720 L502 720 L502 689 L272 689 L272 0 L238 0 L238 689 L5 689 L5 720 Z M102 917 L122 940 L255 824 L388 940 L408 917 L255 781 L102 917 Z " />
<glyph glyph-name="uni0162" unicode="&#x162;" horiz-adv-x="507" d="M5 720 L502 720 L502 689 L272 689 L272 0 L238 0 L238 689 L5 689 L5 720 Z M231 -59 L272 -59 L210 -219 L185 -219 L231 -59 Z " />
<glyph glyph-name="uni021A" unicode="&#x21a;" horiz-adv-x="507" d="M5 720 L502 720 L502 689 L272 689 L272 0 L238 0 L238 689 L5 689 L5 720 Z M231 -59 L272 -59 L210 -219 L185 -219 L231 -59 Z " />
<glyph glyph-name="Uacute" unicode="&#xda;" horiz-adv-x="657" d="M70 720 L104 720 L104 332 Q104 180 158 101.5 Q212 23 326 23 Q444 23 498 101.5 Q552 180 552 333 L552 720 L586 720 L586 333 Q586 163 521.5 77.5 Q457 -8 326 -8 Q194 -8 132 78 Q70 164 70 333 L70 720 Z M240 804 L404 940 L427 916 L258 781 L240 804 Z " />
<glyph glyph-name="Ucircumflex" unicode="&#xdb;" horiz-adv-x="657" d="M70 720 L104 720 L104 332 Q104 180 158 101.5 Q212 23 326 23 Q444 23 498 101.5 Q552 180 552 333 L552 720 L586 720 L586 333 Q586 163 521.5 77.5 Q457 -8 326 -8 Q194 -8 132 78 Q70 164 70 333 L70 720 Z M176 804 L329 940 L482 804 L462 781 L329 896 L196 781 L176 804 Z " />
<glyph glyph-name="Udieresis" unicode="&#xdc;" horiz-adv-x="657" d="M70 720 L104 720 L104 332 Q104 180 158 101.5 Q212 23 326 23 Q444 23 498 101.5 Q552 180 552 333 L552 720 L586 720 L586 333 Q586 163 521.5 77.5 Q457 -8 326 -8 Q194 -8 132 78 Q70 164 70 333 L70 720 Z M361 848 Q361 864 370 873.5 Q379 883 394 883 Q408 883 416.5 873.5 Q425 864 425 848 Q425 834 416.5 825 Q408 816 394 816 Q379 816 370 825 Q361 834 361 848 Z M232 848 Q232 864 241 873.5 Q250 883 265 883 Q279 883 287.5 873.5 Q296 864 296 848 Q296 834 287.5 825 Q279 816 265 816 Q250 816 241 825 Q232 834 232 848 Z " />
<glyph glyph-name="Ugrave" unicode="&#xd9;" horiz-adv-x="657" d="M70 720 L104 720 L104 332 Q104 180 158 101.5 Q212 23 326 23 Q444 23 498 101.5 Q552 180 552 333 L552 720 L586 720 L586 333 Q586 163 521.5 77.5 Q457 -8 326 -8 Q194 -8 132 78 Q70 164 70 333 L70 720 Z M251 940 L415 804 L397 781 L228 916 L251 940 Z " />
<glyph glyph-name="Ubreve" unicode="&#x16c;" horiz-adv-x="657" d="M70 720 L104 720 L104 332 Q104 180 158 101.5 Q212 23 326 23 Q444 23 498 101.5 Q552 180 552 333 L552 720 L586 720 L586 333 Q586 163 521.5 77.5 Q457 -8 326 -8 Q194 -8 132 78 Q70 164 70 333 L70 720 Z M248 906 Q248 880 254.5 862 Q261 844 272.5 833 Q284 822 298.5 817 Q313 812 329 812 Q360 812 384 833 Q408 854 408 906 L442 906 Q442 846 412.5 813.5 Q383 781 329 781 Q275 781 244.5 815 Q214 849 214 906 L248 906 Z " />
<glyph glyph-name="Uhungarumlaut" unicode="&#x170;" horiz-adv-x="657" d="M70 720 L104 720 L104 332 Q104 180 158 101.5 Q212 23 326 23 Q444 23 498 101.5 Q552 180 552 333 L552 720 L586 720 L586 333 Q586 163 521.5 77.5 Q457 -8 326 -8 Q194 -8 132 78 Q70 164 70 333 L70 720 Z M337 802 L469 940 L492 916 L357 781 L337 802 Z M217 802 L349 940 L372 916 L237 781 L217 802 Z " />
<glyph glyph-name="Umacron" unicode="&#x16a;" horiz-adv-x="657" d="M70 720 L104 720 L104 332 Q104 180 158 101.5 Q212 23 326 23 Q444 23 498 101.5 Q552 180 552 333 L552 720 L586 720 L586 333 Q586 163 521.5 77.5 Q457 -8 326 -8 Q194 -8 132 78 Q70 164 70 333 L70 720 Z M194 856 L463 856 L463 825 L194 825 L194 856 Z " />
<glyph glyph-name="Uogonek" unicode="&#x172;" horiz-adv-x="657" d="M403 -207 Q332 -207 292.5 -178.5 Q253 -150 253 -109 Q253 -78 274 -53 Q295 -28 328 -8 L326 -8 Q194 -8 132 78 Q70 164 70 333 L70 720 L104 720 L104 332 Q104 180 158 101.5 Q212 23 326 23 Q444 23 498 101.5 Q552 180 552 333 L552 720 L586 720 L586 333 Q586 181 534 96 Q482 11 376 -4 Q336 -29 311.5 -54 Q287 -79 287 -108 Q287 -134 314 -155 Q341 -176 403 -176 L403 -207 Z " />
<glyph glyph-name="Uring" unicode="&#x16e;" horiz-adv-x="657" d="M70 720 L104 720 L104 332 Q104 180 158 101.5 Q212 23 326 23 Q444 23 498 101.5 Q552 180 552 333 L552 720 L586 720 L586 333 Q586 163 521.5 77.5 Q457 -8 326 -8 Q194 -8 132 78 Q70 164 70 333 L70 720 Z M328 801 Q357 801 376.5 822 Q396 843 396 873 Q396 905 376.5 925.5 Q357 946 328 946 Q299 946 278.5 925.5 Q258 905 258 873 Q258 843 278.5 822 Q299 801 328 801 Z M226 873 Q226 894 234 912.5 Q242 931 256 945 Q270 959 288.5 967 Q307 975 328 975 Q349 975 367.5 967 Q386 959 399.5 945 Q413 931 421 912.5 Q429 894 429 873 Q429 852 421 833.5 Q413 815 399.5 801.5 Q386 788 367.5 780 Q349 772 328 772 Q307 772 288.5 780 Q270 788 256 801.5 Q242 815 234 833.5 Q226 852 226 873 Z " />
<glyph glyph-name="Utilde" unicode="&#x168;" horiz-adv-x="657" d="M70 720 L104 720 L104 332 Q104 180 158 101.5 Q212 23 326 23 Q444 23 498 101.5 Q552 180 552 333 L552 720 L586 720 L586 333 Q586 163 521.5 77.5 Q457 -8 326 -8 Q194 -8 132 78 Q70 164 70 333 L70 720 Z M152 828 Q172 861 197 886 Q222 911 255 911 Q276 911 294.5 899.5 Q313 888 329.5 874.5 Q346 861 362.5 849.5 Q379 838 396 838 Q416 838 434.5 854.5 Q453 871 470 899 L493 884 Q473 850 447.5 828 Q422 806 392 806 Q370 806 352 817 Q334 828 318 841.5 Q302 855 286 866.5 Q270 878 253 878 Q227 878 210 859 Q193 840 176 812 L152 828 Z " />
<glyph glyph-name="Wacute" unicode="&#x1e82;" horiz-adv-x="1092" d="M14 720 L53 720 L315 85 L553 730 L799 85 L1042 720 L1078 720 L797 -10 L552 629 L315 -10 L14 720 Z M458 804 L622 940 L645 916 L476 781 L458 804 Z " />
<glyph glyph-name="Wcircumflex" unicode="&#x174;" horiz-adv-x="1092" d="M14 720 L53 720 L315 85 L553 730 L799 85 L1042 720 L1078 720 L797 -10 L552 629 L315 -10 L14 720 Z M393 804 L546 940 L699 804 L679 781 L546 896 L413 781 L393 804 Z " />
<glyph glyph-name="Wdieresis" unicode="&#x1e84;" horiz-adv-x="1092" d="M14 720 L53 720 L315 85 L553 730 L799 85 L1042 720 L1078 720 L797 -10 L552 629 L315 -10 L14 720 Z M578 848 Q578 864 587 873.5 Q596 883 611 883 Q625 883 633.5 873.5 Q642 864 642 848 Q642 834 633.5 825 Q625 816 611 816 Q596 816 587 825 Q578 834 578 848 Z M449 848 Q449 864 458 873.5 Q467 883 482 883 Q496 883 504.5 873.5 Q513 864 513 848 Q513 834 504.5 825 Q496 816 482 816 Q467 816 458 825 Q449 834 449 848 Z " />
<glyph glyph-name="Wgrave" unicode="&#x1e80;" horiz-adv-x="1092" d="M14 720 L53 720 L315 85 L553 730 L799 85 L1042 720 L1078 720 L797 -10 L552 629 L315 -10 L14 720 Z M469 940 L633 804 L615 781 L446 916 L469 940 Z " />
<glyph glyph-name="Yacute" unicode="&#xdd;" horiz-adv-x="526" d="M246 252 L5 720 L43 720 L263 291 L485 720 L521 720 L280 256 L280 0 L246 0 L246 252 Z M176 804 L340 940 L363 916 L194 781 L176 804 Z " />
<glyph glyph-name="Ydieresis" unicode="&#x178;" horiz-adv-x="526" d="M246 252 L5 720 L43 720 L263 291 L485 720 L521 720 L280 256 L280 0 L246 0 L246 252 Z M296 848 Q296 864 305 873.5 Q314 883 329 883 Q343 883 351.5 873.5 Q360 864 360 848 Q360 834 351.5 825 Q343 816 329 816 Q314 816 305 825 Q296 834 296 848 Z M167 848 Q167 864 176 873.5 Q185 883 200 883 Q214 883 222.5 873.5 Q231 864 231 848 Q231 834 222.5 825 Q214 816 200 816 Q185 816 176 825 Q167 834 167 848 Z " />
<glyph glyph-name="Ycircumflex" unicode="&#x176;" horiz-adv-x="526" d="M246 252 L5 720 L43 720 L263 291 L485 720 L521 720 L280 256 L280 0 L246 0 L246 252 Z M111 804 L264 940 L417 804 L397 781 L264 896 L131 781 L111 804 Z " />
<glyph glyph-name="Ygrave" unicode="&#x1ef2;" horiz-adv-x="526" d="M246 252 L5 720 L43 720 L263 291 L485 720 L521 720 L280 256 L280 0 L246 0 L246 252 Z M187 940 L351 804 L333 781 L164 916 L187 940 Z " />
<glyph glyph-name="Zcaron" unicode="&#x17d;" horiz-adv-x="601" d="M526 689 L41 689 L41 720 L587 720 L81 31 L560 31 L560 0 L14 0 L526 689 Z M149 917 L169 940 L302 824 L435 940 L455 917 L302 781 L149 917 Z " />
<glyph glyph-name="Zacute" unicode="&#x179;" horiz-adv-x="601" d="M526 689 L41 689 L41 720 L587 720 L81 31 L560 31 L560 0 L14 0 L526 689 Z M213 804 L377 940 L400 916 L231 781 L213 804 Z " />
<glyph glyph-name="Zdotaccent" unicode="&#x17b;" horiz-adv-x="601" d="M526 689 L41 689 L41 720 L587 720 L81 31 L560 31 L560 0 L14 0 L526 689 Z M269 848 Q269 864 278 873.5 Q287 883 302 883 Q316 883 324.5 873.5 Q333 864 333 848 Q333 834 324.5 825 Q316 816 302 816 Q287 816 278 825 Q269 834 269 848 Z " />
<glyph glyph-name="aacute" unicode="&#xe1;" horiz-adv-x="587" d="M485 121 L482 121 Q447 58 395 25 Q343 -8 274 -8 Q223 -8 178 12 Q133 32 100 67.5 Q67 103 48 150.5 Q29 198 29 252 Q29 305 47.5 352 Q66 399 99 434 Q132 469 177 489.5 Q222 510 275 510 Q344 510 398 478.5 Q452 447 482 384 L485 384 L485 502 L519 502 L519 0 L485 0 L485 121 Z M273 23 Q319 23 357.5 40 Q396 57 424.5 87.5 Q453 118 469 159.5 Q485 201 485 251 Q485 300 469 342 Q453 384 424.5 414.5 Q396 445 357.5 462.5 Q319 480 273 480 Q228 480 190 462.5 Q152 445 124 414.5 Q96 384 80 342 Q64 300 64 251 Q64 201 80 159.5 Q96 118 124 87.5 Q152 57 190 40 Q228 23 273 23 Z M206 586 L370 722 L393 698 L224 563 L206 586 Z " />
<glyph glyph-name="acircumflex" unicode="&#xe2;" horiz-adv-x="587" d="M485 121 L482 121 Q447 58 395 25 Q343 -8 274 -8 Q223 -8 178 12 Q133 32 100 67.5 Q67 103 48 150.5 Q29 198 29 252 Q29 305 47.5 352 Q66 399 99 434 Q132 469 177 489.5 Q222 510 275 510 Q344 510 398 478.5 Q452 447 482 384 L485 384 L485 502 L519 502 L519 0 L485 0 L485 121 Z M273 23 Q319 23 357.5 40 Q396 57 424.5 87.5 Q453 118 469 159.5 Q485 201 485 251 Q485 300 469 342 Q453 384 424.5 414.5 Q396 445 357.5 462.5 Q319 480 273 480 Q228 480 190 462.5 Q152 445 124 414.5 Q96 384 80 342 Q64 300 64 251 Q64 201 80 159.5 Q96 118 124 87.5 Q152 57 190 40 Q228 23 273 23 Z M142 586 L295 722 L448 586 L428 563 L295 678 L162 563 L142 586 Z " />
<glyph glyph-name="adieresis" unicode="&#xe4;" horiz-adv-x="587" d="M485 121 L482 121 Q447 58 395 25 Q343 -8 274 -8 Q223 -8 178 12 Q133 32 100 67.5 Q67 103 48 150.5 Q29 198 29 252 Q29 305 47.5 352 Q66 399 99 434 Q132 469 177 489.5 Q222 510 275 510 Q344 510 398 478.5 Q452 447 482 384 L485 384 L485 502 L519 502 L519 0 L485 0 L485 121 Z M273 23 Q319 23 357.5 40 Q396 57 424.5 87.5 Q453 118 469 159.5 Q485 201 485 251 Q485 300 469 342 Q453 384 424.5 414.5 Q396 445 357.5 462.5 Q319 480 273 480 Q228 480 190 462.5 Q152 445 124 414.5 Q96 384 80 342 Q64 300 64 251 Q64 201 80 159.5 Q96 118 124 87.5 Q152 57 190 40 Q228 23 273 23 Z M327 630 Q327 646 336 655.5 Q345 665 360 665 Q374 665 382.5 655.5 Q391 646 391 630 Q391 616 382.5 607 Q374 598 360 598 Q345 598 336 607 Q327 616 327 630 Z M198 630 Q198 646 207 655.5 Q216 665 231 665 Q245 665 253.5 655.5 Q262 646 262 630 Q262 616 253.5 607 Q245 598 231 598 Q216 598 207 607 Q198 616 198 630 Z " />
<glyph glyph-name="agrave" unicode="&#xe0;" horiz-adv-x="587" d="M485 121 L482 121 Q447 58 395 25 Q343 -8 274 -8 Q223 -8 178 12 Q133 32 100 67.5 Q67 103 48 150.5 Q29 198 29 252 Q29 305 47.5 352 Q66 399 99 434 Q132 469 177 489.5 Q222 510 275 510 Q344 510 398 478.5 Q452 447 482 384 L485 384 L485 502 L519 502 L519 0 L485 0 L485 121 Z M273 23 Q319 23 357.5 40 Q396 57 424.5 87.5 Q453 118 469 159.5 Q485 201 485 251 Q485 300 469 342 Q453 384 424.5 414.5 Q396 445 357.5 462.5 Q319 480 273 480 Q228 480 190 462.5 Q152 445 124 414.5 Q96 384 80 342 Q64 300 64 251 Q64 201 80 159.5 Q96 118 124 87.5 Q152 57 190 40 Q228 23 273 23 Z M217 722 L381 586 L363 563 L194 698 L217 722 Z " />
<glyph glyph-name="aring" unicode="&#xe5;" horiz-adv-x="587" d="M485 121 L482 121 Q447 58 395 25 Q343 -8 274 -8 Q223 -8 178 12 Q133 32 100 67.5 Q67 103 48 150.5 Q29 198 29 252 Q29 305 47.5 352 Q66 399 99 434 Q132 469 177 489.5 Q222 510 275 510 Q344 510 398 478.5 Q452 447 482 384 L485 384 L485 502 L519 502 L519 0 L485 0 L485 121 Z M273 23 Q319 23 357.5 40 Q396 57 424.5 87.5 Q453 118 469 159.5 Q485 201 485 251 Q485 300 469 342 Q453 384 424.5 414.5 Q396 445 357.5 462.5 Q319 480 273 480 Q228 480 190 462.5 Q152 445 124 414.5 Q96 384 80 342 Q64 300 64 251 Q64 201 80 159.5 Q96 118 124 87.5 Q152 57 190 40 Q228 23 273 23 Z M294 583 Q323 583 342.5 604 Q362 625 362 655 Q362 687 342.5 707.5 Q323 728 294 728 Q265 728 244.5 707.5 Q224 687 224 655 Q224 625 244.5 604 Q265 583 294 583 Z M192 655 Q192 676 200 694.5 Q208 713 222 727 Q236 741 254.5 749 Q273 757 294 757 Q315 757 333.5 749 Q352 741 365.5 727 Q379 713 387 694.5 Q395 676 395 655 Q395 634 387 615.5 Q379 597 365.5 583.5 Q352 570 333.5 562 Q315 554 294 554 Q273 554 254.5 562 Q236 570 222 583.5 Q208 597 200 615.5 Q192 634 192 655 Z " />
<glyph glyph-name="atilde" unicode="&#xe3;" horiz-adv-x="587" d="M485 121 L482 121 Q447 58 395 25 Q343 -8 274 -8 Q223 -8 178 12 Q133 32 100 67.5 Q67 103 48 150.5 Q29 198 29 252 Q29 305 47.5 352 Q66 399 99 434 Q132 469 177 489.5 Q222 510 275 510 Q344 510 398 478.5 Q452 447 482 384 L485 384 L485 502 L519 502 L519 0 L485 0 L485 121 Z M273 23 Q319 23 357.5 40 Q396 57 424.5 87.5 Q453 118 469 159.5 Q485 201 485 251 Q485 300 469 342 Q453 384 424.5 414.5 Q396 445 357.5 462.5 Q319 480 273 480 Q228 480 190 462.5 Q152 445 124 414.5 Q96 384 80 342 Q64 300 64 251 Q64 201 80 159.5 Q96 118 124 87.5 Q152 57 190 40 Q228 23 273 23 Z M118 610 Q138 643 163 668 Q188 693 221 693 Q242 693 260.5 681.5 Q279 670 295.5 656.5 Q312 643 328.5 631.5 Q345 620 362 620 Q382 620 400.5 636.5 Q419 653 436 681 L459 666 Q439 632 413.5 610 Q388 588 358 588 Q336 588 318 599 Q300 610 284 623.5 Q268 637 252 648.5 Q236 660 219 660 Q193 660 176 641 Q159 622 142 594 L118 610 Z " />
<glyph glyph-name="abreve" unicode="&#x103;" horiz-adv-x="587" d="M485 121 L482 121 Q447 58 395 25 Q343 -8 274 -8 Q223 -8 178 12 Q133 32 100 67.5 Q67 103 48 150.5 Q29 198 29 252 Q29 305 47.5 352 Q66 399 99 434 Q132 469 177 489.5 Q222 510 275 510 Q344 510 398 478.5 Q452 447 482 384 L485 384 L485 502 L519 502 L519 0 L485 0 L485 121 Z M273 23 Q319 23 357.5 40 Q396 57 424.5 87.5 Q453 118 469 159.5 Q485 201 485 251 Q485 300 469 342 Q453 384 424.5 414.5 Q396 445 357.5 462.5 Q319 480 273 480 Q228 480 190 462.5 Q152 445 124 414.5 Q96 384 80 342 Q64 300 64 251 Q64 201 80 159.5 Q96 118 124 87.5 Q152 57 190 40 Q228 23 273 23 Z M214 688 Q214 662 220.5 644 Q227 626 238.5 615 Q250 604 264.5 599 Q279 594 295 594 Q326 594 350 615 Q374 636 374 688 L408 688 Q408 628 378.5 595.5 Q349 563 295 563 Q241 563 210.5 597 Q180 631 180 688 L214 688 Z " />
<glyph glyph-name="amacron" unicode="&#x101;" horiz-adv-x="587" d="M485 121 L482 121 Q447 58 395 25 Q343 -8 274 -8 Q223 -8 178 12 Q133 32 100 67.5 Q67 103 48 150.5 Q29 198 29 252 Q29 305 47.5 352 Q66 399 99 434 Q132 469 177 489.5 Q222 510 275 510 Q344 510 398 478.5 Q452 447 482 384 L485 384 L485 502 L519 502 L519 0 L485 0 L485 121 Z M273 23 Q319 23 357.5 40 Q396 57 424.5 87.5 Q453 118 469 159.5 Q485 201 485 251 Q485 300 469 342 Q453 384 424.5 414.5 Q396 445 357.5 462.5 Q319 480 273 480 Q228 480 190 462.5 Q152 445 124 414.5 Q96 384 80 342 Q64 300 64 251 Q64 201 80 159.5 Q96 118 124 87.5 Q152 57 190 40 Q228 23 273 23 Z M160 638 L429 638 L429 607 L160 607 L160 638 Z " />
<glyph glyph-name="aogonek" unicode="&#x105;" horiz-adv-x="587" d="M528 -207 Q457 -207 417.5 -178.5 Q378 -150 378 -109 Q378 -71 409 -42.5 Q440 -14 485 9 L485 121 L482 121 Q447 58 395 25 Q343 -8 274 -8 Q223 -8 178 12 Q133 32 100 67.5 Q67 103 48 150.5 Q29 198 29 252 Q29 305 47.5 352 Q66 399 99 434 Q132 469 177 489.5 Q222 510 275 510 Q344 510 398 478.5 Q452 447 482 384 L485 384 L485 502 L519 502 L519 0 L500 0 Q461 -26 436.5 -51.5 Q412 -77 412 -108 Q412 -134 439 -155 Q466 -176 528 -176 L528 -207 Z M273 23 Q319 23 358 40 Q397 57 425.5 87.5 Q454 118 470 159.5 Q486 201 486 251 Q486 300 470 342 Q454 384 425.5 414.5 Q397 445 358 462.5 Q319 480 273 480 Q228 480 190 462.5 Q152 445 124 414.5 Q96 384 80 342 Q64 300 64 251 Q64 201 80 159.5 Q96 118 124 87.5 Q152 57 190 40 Q228 23 273 23 Z " />
<glyph glyph-name="ccedilla" unicode="&#xe7;" horiz-adv-x="445" d="M259 -7 Q210 -2 168 19.5 Q126 41 95.5 75 Q65 109 47.5 155 Q30 201 30 255 Q30 309 47.5 356 Q65 403 98 437 Q131 471 178.5 490.5 Q226 510 285 510 Q332 510 364 503 Q396 496 422 482 L422 445 Q396 461 364 470.5 Q332 480 284 480 Q231 480 190 463 Q149 446 121 416 Q93 386 79 345 Q65 304 65 256 Q65 203 82 160 Q99 117 129 86 Q159 55 200.5 38 Q242 21 291 21 Q330 21 364 29 Q398 37 427 51 L427 19 Q397 4 364.5 -2 Q332 -8 294 -9 L231 -135 L198 -135 L259 -7 Z " />
<glyph glyph-name="cacute" unicode="&#x107;" horiz-adv-x="445" d="M427 19 Q396 3 363 -3 Q330 -9 291 -9 Q236 -9 188.5 10.5 Q141 30 105.5 64.5 Q70 99 50 147.5 Q30 196 30 255 Q30 309 47.5 356 Q65 403 98 437 Q131 471 178.5 490.5 Q226 510 285 510 Q332 510 364 503 Q396 496 422 482 L422 445 Q396 461 364 470.5 Q332 480 284 480 Q231 480 190 463 Q149 446 121 416 Q93 386 79 345 Q65 304 65 256 Q65 203 82 160 Q99 117 129 86 Q159 55 200.5 38 Q242 21 291 21 Q330 21 364 29 Q398 37 427 51 L427 19 Z M175 586 L339 722 L362 698 L193 563 L175 586 Z " />
<glyph glyph-name="ccaron" unicode="&#x10d;" horiz-adv-x="445" d="M427 19 Q396 3 363 -3 Q330 -9 291 -9 Q236 -9 188.5 10.5 Q141 30 105.5 64.5 Q70 99 50 147.5 Q30 196 30 255 Q30 309 47.5 356 Q65 403 98 437 Q131 471 178.5 490.5 Q226 510 285 510 Q332 510 364 503 Q396 496 422 482 L422 445 Q396 461 364 470.5 Q332 480 284 480 Q231 480 190 463 Q149 446 121 416 Q93 386 79 345 Q65 304 65 256 Q65 203 82 160 Q99 117 129 86 Q159 55 200.5 38 Q242 21 291 21 Q330 21 364 29 Q398 37 427 51 L427 19 Z M110 699 L130 722 L263 606 L396 722 L416 699 L263 563 L110 699 Z " />
<glyph glyph-name="ccircumflex" unicode="&#x109;" horiz-adv-x="445" d="M427 19 Q396 3 363 -3 Q330 -9 291 -9 Q236 -9 188.5 10.5 Q141 30 105.5 64.5 Q70 99 50 147.5 Q30 196 30 255 Q30 309 47.5 356 Q65 403 98 437 Q131 471 178.5 490.5 Q226 510 285 510 Q332 510 364 503 Q396 496 422 482 L422 445 Q396 461 364 470.5 Q332 480 284 480 Q231 480 190 463 Q149 446 121 416 Q93 386 79 345 Q65 304 65 256 Q65 203 82 160 Q99 117 129 86 Q159 55 200.5 38 Q242 21 291 21 Q330 21 364 29 Q398 37 427 51 L427 19 Z M110 586 L263 722 L416 586 L396 563 L263 678 L130 563 L110 586 Z " />
<glyph glyph-name="cdotaccent" unicode="&#x10b;" horiz-adv-x="445" d="M427 19 Q396 3 363 -3 Q330 -9 291 -9 Q236 -9 188.5 10.5 Q141 30 105.5 64.5 Q70 99 50 147.5 Q30 196 30 255 Q30 309 47.5 356 Q65 403 98 437 Q131 471 178.5 490.5 Q226 510 285 510 Q332 510 364 503 Q396 496 422 482 L422 445 Q396 461 364 470.5 Q332 480 284 480 Q231 480 190 463 Q149 446 121 416 Q93 386 79 345 Q65 304 65 256 Q65 203 82 160 Q99 117 129 86 Q159 55 200.5 38 Q242 21 291 21 Q330 21 364 29 Q398 37 427 51 L427 19 Z M230 630 Q230 646 239 655.5 Q248 665 263 665 Q277 665 285.5 655.5 Q294 646 294 630 Q294 616 285.5 607 Q277 598 263 598 Q248 598 239 607 Q230 616 230 630 Z " />
<glyph glyph-name="dcaron" unicode="&#x10f;" horiz-adv-x="628" d="M486 121 L483 121 Q447 59 396.5 25 Q346 -9 272 -9 Q220 -9 175.5 11.5 Q131 32 98.5 67 Q66 102 47.5 150 Q29 198 29 252 Q29 305 47.5 352 Q66 399 99 434 Q132 469 177 489.5 Q222 510 274 510 Q345 510 400 477.5 Q455 445 483 384 L486 384 L486 690 L520 690 L520 0 L486 0 L486 121 Z M273 21 Q319 21 358 38.5 Q397 56 425.5 86.5 Q454 117 470 159 Q486 201 486 251 Q486 300 470 342 Q454 384 425.5 414.5 Q397 445 358 462.5 Q319 480 273 480 Q228 480 190 462.5 Q152 445 124 414.5 Q96 384 80 342 Q64 300 64 251 Q64 201 80 159 Q96 117 124 86.5 Q152 56 190 38.5 Q228 21 273 21 Z M607 720 L648 720 L586 550 L561 550 L607 720 Z " />
<glyph glyph-name="dcroat" unicode="&#x111;" horiz-adv-x="588" d="M310 608 L486 608 L486 690 L520 690 L520 608 L579 608 L579 577 L520 577 L520 0 L486 0 L486 121 L483 121 Q447 59 396.5 25 Q346 -9 272 -9 Q220 -9 175.5 11.5 Q131 32 98.5 67 Q66 102 47.5 150 Q29 198 29 252 Q29 305 47.5 352 Q66 399 99 434 Q132 469 177 489.5 Q222 510 274 510 Q345 510 400 477.5 Q455 445 483 384 L486 384 L486 577 L310 577 L310 608 Z M273 21 Q319 21 358 38.5 Q397 56 425.5 86.5 Q454 117 470 159 Q486 201 486 251 Q486 300 470 342 Q454 384 425.5 414.5 Q397 445 358 462.5 Q319 480 273 480 Q228 480 190 462.5 Q152 445 124 414.5 Q96 384 80 342 Q64 300 64 251 Q64 201 80 159 Q96 117 124 86.5 Q152 56 190 38.5 Q228 21 273 21 Z " />
<glyph glyph-name="eacute" unicode="&#xe9;" horiz-adv-x="514" d="M65 253 Q65 205 78.5 162.5 Q92 120 117 88.5 Q142 57 178.5 39 Q215 21 262 21 Q327 21 373 54.5 Q419 88 439 158 L470 150 Q457 105 435 74.5 Q413 44 385.5 25.5 Q358 7 326 -1 Q294 -9 261 -9 Q208 -9 165 12 Q122 33 92 68.5 Q62 104 46 152 Q30 200 30 254 Q30 308 46.5 355 Q63 402 93 436.5 Q123 471 165.5 490.5 Q208 510 259 510 Q316 510 357 488 Q398 466 424.5 431.5 Q451 397 464 355.5 Q477 314 477 277 Q477 263 475 253 L65 253 Z M257 480 Q216 480 182.5 466 Q149 452 124.5 426 Q100 400 85 363.5 Q70 327 66 282 L443 282 Q440 322 426.5 358 Q413 394 389 421 Q365 448 332 464 Q299 480 257 480 Z M170 586 L334 722 L357 698 L188 563 L170 586 Z " />
<glyph glyph-name="ecircumflex" unicode="&#xea;" horiz-adv-x="514" d="M65 253 Q65 205 78.5 162.5 Q92 120 117 88.5 Q142 57 178.5 39 Q215 21 262 21 Q327 21 373 54.5 Q419 88 439 158 L470 150 Q457 105 435 74.5 Q413 44 385.5 25.5 Q358 7 326 -1 Q294 -9 261 -9 Q208 -9 165 12 Q122 33 92 68.5 Q62 104 46 152 Q30 200 30 254 Q30 308 46.5 355 Q63 402 93 436.5 Q123 471 165.5 490.5 Q208 510 259 510 Q316 510 357 488 Q398 466 424.5 431.5 Q451 397 464 355.5 Q477 314 477 277 Q477 263 475 253 L65 253 Z M257 480 Q216 480 182.5 466 Q149 452 124.5 426 Q100 400 85 363.5 Q70 327 66 282 L443 282 Q440 322 426.5 358 Q413 394 389 421 Q365 448 332 464 Q299 480 257 480 Z M105 586 L258 722 L411 586 L391 563 L258 678 L125 563 L105 586 Z " />
<glyph glyph-name="edieresis" unicode="&#xeb;" horiz-adv-x="514" d="M65 253 Q65 205 78.5 162.5 Q92 120 117 88.5 Q142 57 178.5 39 Q215 21 262 21 Q327 21 373 54.5 Q419 88 439 158 L470 150 Q457 105 435 74.5 Q413 44 385.5 25.5 Q358 7 326 -1 Q294 -9 261 -9 Q208 -9 165 12 Q122 33 92 68.5 Q62 104 46 152 Q30 200 30 254 Q30 308 46.5 355 Q63 402 93 436.5 Q123 471 165.5 490.5 Q208 510 259 510 Q316 510 357 488 Q398 466 424.5 431.5 Q451 397 464 355.5 Q477 314 477 277 Q477 263 475 253 L65 253 Z M257 480 Q216 480 182.5 466 Q149 452 124.5 426 Q100 400 85 363.5 Q70 327 66 282 L443 282 Q440 322 426.5 358 Q413 394 389 421 Q365 448 332 464 Q299 480 257 480 Z M290 630 Q290 646 299 655.5 Q308 665 323 665 Q337 665 345.5 655.5 Q354 646 354 630 Q354 616 345.5 607 Q337 598 323 598 Q308 598 299 607 Q290 616 290 630 Z M161 630 Q161 646 170 655.5 Q179 665 194 665 Q208 665 216.5 655.5 Q225 646 225 630 Q225 616 216.5 607 Q208 598 194 598 Q179 598 170 607 Q161 616 161 630 Z " />
<glyph glyph-name="egrave" unicode="&#xe8;" horiz-adv-x="514" d="M65 253 Q65 205 78.5 162.5 Q92 120 117 88.5 Q142 57 178.5 39 Q215 21 262 21 Q327 21 373 54.5 Q419 88 439 158 L470 150 Q457 105 435 74.5 Q413 44 385.5 25.5 Q358 7 326 -1 Q294 -9 261 -9 Q208 -9 165 12 Q122 33 92 68.5 Q62 104 46 152 Q30 200 30 254 Q30 308 46.5 355 Q63 402 93 436.5 Q123 471 165.5 490.5 Q208 510 259 510 Q316 510 357 488 Q398 466 424.5 431.5 Q451 397 464 355.5 Q477 314 477 277 Q477 263 475 253 L65 253 Z M257 480 Q216 480 182.5 466 Q149 452 124.5 426 Q100 400 85 363.5 Q70 327 66 282 L443 282 Q440 322 426.5 358 Q413 394 389 421 Q365 448 332 464 Q299 480 257 480 Z M181 722 L345 586 L327 563 L158 698 L181 722 Z " />
<glyph glyph-name="ebreve" unicode="&#x115;" horiz-adv-x="514" d="M65 253 Q65 205 78.5 162.5 Q92 120 117 88.5 Q142 57 178.5 39 Q215 21 262 21 Q327 21 373 54.5 Q419 88 439 158 L470 150 Q457 105 435 74.5 Q413 44 385.5 25.5 Q358 7 326 -1 Q294 -9 261 -9 Q208 -9 165 12 Q122 33 92 68.5 Q62 104 46 152 Q30 200 30 254 Q30 308 46.5 355 Q63 402 93 436.5 Q123 471 165.5 490.5 Q208 510 259 510 Q316 510 357 488 Q398 466 424.5 431.5 Q451 397 464 355.5 Q477 314 477 277 Q477 263 475 253 L65 253 Z M257 480 Q216 480 182.5 466 Q149 452 124.5 426 Q100 400 85 363.5 Q70 327 66 282 L443 282 Q440 322 426.5 358 Q413 394 389 421 Q365 448 332 464 Q299 480 257 480 Z M177 688 Q177 662 183.5 644 Q190 626 201.5 615 Q213 604 227.5 599 Q242 594 258 594 Q289 594 313 615 Q337 636 337 688 L371 688 Q371 628 341.5 595.5 Q312 563 258 563 Q204 563 173.5 597 Q143 631 143 688 L177 688 Z " />
<glyph glyph-name="ecaron" unicode="&#x11b;" horiz-adv-x="514" d="M65 253 Q65 205 78.5 162.5 Q92 120 117 88.5 Q142 57 178.5 39 Q215 21 262 21 Q327 21 373 54.5 Q419 88 439 158 L470 150 Q457 105 435 74.5 Q413 44 385.5 25.5 Q358 7 326 -1 Q294 -9 261 -9 Q208 -9 165 12 Q122 33 92 68.5 Q62 104 46 152 Q30 200 30 254 Q30 308 46.5 355 Q63 402 93 436.5 Q123 471 165.5 490.5 Q208 510 259 510 Q316 510 357 488 Q398 466 424.5 431.5 Q451 397 464 355.5 Q477 314 477 277 Q477 263 475 253 L65 253 Z M257 480 Q216 480 182.5 466 Q149 452 124.5 426 Q100 400 85 363.5 Q70 327 66 282 L443 282 Q440 322 426.5 358 Q413 394 389 421 Q365 448 332 464 Q299 480 257 480 Z M105 699 L125 722 L258 606 L391 722 L411 699 L258 563 L105 699 Z " />
<glyph glyph-name="edotaccent" unicode="&#x117;" horiz-adv-x="514" d="M65 253 Q65 205 78.5 162.5 Q92 120 117 88.5 Q142 57 178.5 39 Q215 21 262 21 Q327 21 373 54.5 Q419 88 439 158 L470 150 Q457 105 435 74.5 Q413 44 385.5 25.5 Q358 7 326 -1 Q294 -9 261 -9 Q208 -9 165 12 Q122 33 92 68.5 Q62 104 46 152 Q30 200 30 254 Q30 308 46.5 355 Q63 402 93 436.5 Q123 471 165.5 490.5 Q208 510 259 510 Q316 510 357 488 Q398 466 424.5 431.5 Q451 397 464 355.5 Q477 314 477 277 Q477 263 475 253 L65 253 Z M257 480 Q216 480 182.5 466 Q149 452 124.5 426 Q100 400 85 363.5 Q70 327 66 282 L443 282 Q440 322 426.5 358 Q413 394 389 421 Q365 448 332 464 Q299 480 257 480 Z M225 630 Q225 646 234 655.5 Q243 665 258 665 Q272 665 280.5 655.5 Q289 646 289 630 Q289 616 280.5 607 Q272 598 258 598 Q243 598 234 607 Q225 616 225 630 Z " />
<glyph glyph-name="emacron" unicode="&#x113;" horiz-adv-x="514" d="M65 253 Q65 205 78.5 162.5 Q92 120 117 88.5 Q142 57 178.5 39 Q215 21 262 21 Q327 21 373 54.5 Q419 88 439 158 L470 150 Q457 105 435 74.5 Q413 44 385.5 25.5 Q358 7 326 -1 Q294 -9 261 -9 Q208 -9 165 12 Q122 33 92 68.5 Q62 104 46 152 Q30 200 30 254 Q30 308 46.5 355 Q63 402 93 436.5 Q123 471 165.5 490.5 Q208 510 259 510 Q316 510 357 488 Q398 466 424.5 431.5 Q451 397 464 355.5 Q477 314 477 277 Q477 263 475 253 L65 253 Z M257 480 Q216 480 182.5 466 Q149 452 124.5 426 Q100 400 85 363.5 Q70 327 66 282 L443 282 Q440 322 426.5 358 Q413 394 389 421 Q365 448 332 464 Q299 480 257 480 Z M123 638 L392 638 L392 607 L123 607 L123 638 Z " />
<glyph glyph-name="eogonek" unicode="&#x119;" horiz-adv-x="514" d="M351 -207 Q280 -207 240.5 -178.5 Q201 -150 201 -109 Q201 -79 221.5 -53.5 Q242 -28 275 -8 Q270 -9 261 -9 Q208 -9 165 12 Q122 33 92 68.5 Q62 104 46 152 Q30 200 30 254 Q30 308 46.5 355 Q63 402 93 436.5 Q123 471 165.5 490.5 Q208 510 259 510 Q316 510 357 488 Q398 466 424.5 431.5 Q451 397 464 355.5 Q477 314 477 277 Q477 263 475 253 L65 253 Q65 205 78.5 162.5 Q92 120 117 88.5 Q142 57 178.5 39 Q215 21 262 21 Q327 21 373 54.5 Q419 88 439 158 L470 150 Q451 84 414.5 49.5 Q378 15 333 1 Q290 -25 262.5 -50.5 Q235 -76 235 -108 Q235 -134 262 -155 Q289 -176 351 -176 L351 -207 Z M257 480 Q216 480 182.5 466 Q149 452 124.5 426 Q100 400 85 363.5 Q70 327 66 282 L443 282 Q440 322 426.5 358 Q413 394 389 421 Q365 448 332 464 Q299 480 257 480 Z " />
<glyph glyph-name="gbreve" unicode="&#x11f;" horiz-adv-x="570" d="M79 -88 Q114 -133 159.5 -156.5 Q205 -180 263 -180 Q303 -180 340 -168.5 Q377 -157 405.5 -128.5 Q434 -100 450.5 -52 Q467 -4 467 68 L467 142 L464 142 Q452 115 434.5 91 Q417 67 393 49 Q369 31 337 20 Q305 9 264 9 Q215 9 172 28.5 Q129 48 97.5 82 Q66 116 48 161.5 Q30 207 30 259 Q30 312 48.5 358 Q67 404 98.5 437.5 Q130 471 173 490.5 Q216 510 264 510 Q403 510 464 382 L467 382 L467 502 L501 502 L501 57 Q501 -15 483 -65.5 Q465 -116 433.5 -148 Q402 -180 358 -195 Q314 -210 262 -210 Q188 -210 137 -181 Q86 -152 54 -111 L79 -88 Z M264 39 Q307 39 344 55.5 Q381 72 408.5 101.5 Q436 131 451.5 171.5 Q467 212 467 259 Q467 307 451.5 347.5 Q436 388 408.5 417.5 Q381 447 344 463.5 Q307 480 264 480 Q222 480 186 463.5 Q150 447 123 417.5 Q96 388 80.5 347.5 Q65 307 65 259 Q65 212 80.5 171.5 Q96 131 123 101.5 Q150 72 186 55.5 Q222 39 264 39 Z M205 688 Q205 662 211.5 644 Q218 626 229.5 615 Q241 604 255.5 599 Q270 594 286 594 Q317 594 341 615 Q365 636 365 688 L399 688 Q399 628 369.5 595.5 Q340 563 286 563 Q232 563 201.5 597 Q171 631 171 688 L205 688 Z " />
<glyph glyph-name="gcircumflex" unicode="&#x11d;" horiz-adv-x="570" d="M79 -88 Q114 -133 159.5 -156.5 Q205 -180 263 -180 Q303 -180 340 -168.5 Q377 -157 405.5 -128.5 Q434 -100 450.5 -52 Q467 -4 467 68 L467 142 L464 142 Q452 115 434.5 91 Q417 67 393 49 Q369 31 337 20 Q305 9 264 9 Q215 9 172 28.5 Q129 48 97.5 82 Q66 116 48 161.5 Q30 207 30 259 Q30 312 48.5 358 Q67 404 98.5 437.5 Q130 471 173 490.5 Q216 510 264 510 Q403 510 464 382 L467 382 L467 502 L501 502 L501 57 Q501 -15 483 -65.5 Q465 -116 433.5 -148 Q402 -180 358 -195 Q314 -210 262 -210 Q188 -210 137 -181 Q86 -152 54 -111 L79 -88 Z M264 39 Q307 39 344 55.5 Q381 72 408.5 101.5 Q436 131 451.5 171.5 Q467 212 467 259 Q467 307 451.5 347.5 Q436 388 408.5 417.5 Q381 447 344 463.5 Q307 480 264 480 Q222 480 186 463.5 Q150 447 123 417.5 Q96 388 80.5 347.5 Q65 307 65 259 Q65 212 80.5 171.5 Q96 131 123 101.5 Q150 72 186 55.5 Q222 39 264 39 Z M133 586 L286 722 L439 586 L419 563 L286 678 L153 563 L133 586 Z " />
<glyph glyph-name="gcommaaccent" unicode="&#x123;" horiz-adv-x="570" d="M79 -88 Q114 -133 159.5 -156.5 Q205 -180 263 -180 Q303 -180 340 -168.5 Q377 -157 405.5 -128.5 Q434 -100 450.5 -52 Q467 -4 467 68 L467 142 L464 142 Q452 115 434.5 91 Q417 67 393 49 Q369 31 337 20 Q305 9 264 9 Q215 9 172 28.5 Q129 48 97.5 82 Q66 116 48 161.5 Q30 207 30 259 Q30 312 48.5 358 Q67 404 98.5 437.5 Q130 471 173 490.5 Q216 510 264 510 Q403 510 464 382 L467 382 L467 502 L501 502 L501 57 Q501 -15 483 -65.5 Q465 -116 433.5 -148 Q402 -180 358 -195 Q314 -210 262 -210 Q188 -210 137 -181 Q86 -152 54 -111 L79 -88 Z M264 39 Q307 39 344 55.5 Q381 72 408.5 101.5 Q436 131 451.5 171.5 Q467 212 467 259 Q467 307 451.5 347.5 Q436 388 408.5 417.5 Q381 447 344 463.5 Q307 480 264 480 Q222 480 186 463.5 Q150 447 123 417.5 Q96 388 80.5 347.5 Q65 307 65 259 Q65 212 80.5 171.5 Q96 131 123 101.5 Q150 72 186 55.5 Q222 39 264 39 Z M308 705 L333 705 L303 550 L266 550 L308 705 Z " />
<glyph glyph-name="gdotaccent" unicode="&#x121;" horiz-adv-x="570" d="M79 -88 Q114 -133 159.5 -156.5 Q205 -180 263 -180 Q303 -180 340 -168.5 Q377 -157 405.5 -128.5 Q434 -100 450.5 -52 Q467 -4 467 68 L467 142 L464 142 Q452 115 434.5 91 Q417 67 393 49 Q369 31 337 20 Q305 9 264 9 Q215 9 172 28.5 Q129 48 97.5 82 Q66 116 48 161.5 Q30 207 30 259 Q30 312 48.5 358 Q67 404 98.5 437.5 Q130 471 173 490.5 Q216 510 264 510 Q403 510 464 382 L467 382 L467 502 L501 502 L501 57 Q501 -15 483 -65.5 Q465 -116 433.5 -148 Q402 -180 358 -195 Q314 -210 262 -210 Q188 -210 137 -181 Q86 -152 54 -111 L79 -88 Z M264 39 Q307 39 344 55.5 Q381 72 408.5 101.5 Q436 131 451.5 171.5 Q467 212 467 259 Q467 307 451.5 347.5 Q436 388 408.5 417.5 Q381 447 344 463.5 Q307 480 264 480 Q222 480 186 463.5 Q150 447 123 417.5 Q96 388 80.5 347.5 Q65 307 65 259 Q65 212 80.5 171.5 Q96 131 123 101.5 Q150 72 186 55.5 Q222 39 264 39 Z M253 630 Q253 646 262 655.5 Q271 665 286 665 Q300 665 308.5 655.5 Q317 646 317 630 Q317 616 308.5 607 Q300 598 286 598 Q271 598 262 607 Q253 616 253 630 Z " />
<glyph glyph-name="hbar" unicode="&#x127;" horiz-adv-x="536" d="M9 608 L68 608 L68 690 L102 690 L102 608 L278 608 L278 577 L102 577 L102 401 L105 401 Q128 455 170.5 482.5 Q213 510 284 510 Q338 510 375 492 Q412 474 435 443 Q458 412 468 369.5 Q478 327 478 279 L478 0 L444 0 L444 297 Q444 334 435 367.5 Q426 401 406 426 Q386 451 354.5 465.5 Q323 480 278 480 Q190 480 146 428 Q102 376 102 286 L102 0 L68 0 L68 577 L9 577 L9 608 Z " />
<glyph glyph-name="hcircumflex" unicode="&#x125;" horiz-adv-x="536" d="M68 690 L102 690 L102 401 L105 401 Q128 455 170.5 482.5 Q213 510 284 510 Q338 510 375 492 Q412 474 435 443 Q458 412 468 369.5 Q478 327 478 279 L478 0 L444 0 L444 297 Q444 334 435 367.5 Q426 401 406 426 Q386 451 354.5 465.5 Q323 480 278 480 Q190 480 146 428 Q102 376 102 286 L102 0 L68 0 L68 690 Z M76 776 L229 912 L382 776 L362 753 L229 868 L96 753 L76 776 Z " />
<glyph glyph-name="iacute" unicode="&#xed;" horiz-adv-x="171" d="M68 501 L102 501 L102 0 L68 0 L68 501 Z M-2 586 L162 722 L185 698 L16 563 L-2 586 Z " />
<glyph glyph-name="icircumflex" unicode="&#xee;" horiz-adv-x="171" d="M68 501 L102 501 L102 0 L68 0 L68 501 Z M-66 586 L87 722 L240 586 L220 563 L87 678 L-46 563 L-66 586 Z " />
<glyph glyph-name="idieresis" unicode="&#xef;" horiz-adv-x="171" d="M68 501 L102 501 L102 0 L68 0 L68 501 Z M119 630 Q119 646 128 655.5 Q137 665 152 665 Q166 665 174.5 655.5 Q183 646 183 630 Q183 616 174.5 607 Q166 598 152 598 Q137 598 128 607 Q119 616 119 630 Z M-10 630 Q-10 646 -1 655.5 Q8 665 23 665 Q37 665 45.5 655.5 Q54 646 54 630 Q54 616 45.5 607 Q37 598 23 598 Q8 598 -1 607 Q-10 616 -10 630 Z " />
<glyph glyph-name="igrave" unicode="&#xec;" horiz-adv-x="171" d="M68 501 L102 501 L102 0 L68 0 L68 501 Z M9 722 L173 586 L155 563 L-14 698 L9 722 Z " />
<glyph glyph-name="ibreve" unicode="&#x12d;" horiz-adv-x="171" d="M68 501 L102 501 L102 0 L68 0 L68 501 Z M6 688 Q6 662 12.5 644 Q19 626 30.5 615 Q42 604 56.5 599 Q71 594 87 594 Q118 594 142 615 Q166 636 166 688 L200 688 Q200 628 170.5 595.5 Q141 563 87 563 Q33 563 2.5 597 Q-28 631 -28 688 L6 688 Z " />
<glyph glyph-name="i.dot" unicode="&#xe166;" horiz-adv-x="171" d="M68 501 L102 501 L102 0 L68 0 L68 501 Z M53 630 Q53 646 62 655.5 Q71 665 86 665 Q100 665 108.5 655.5 Q117 646 117 630 Q117 616 108.5 607 Q100 598 86 598 Q71 598 62 607 Q53 616 53 630 Z " />
<glyph glyph-name="imacron" unicode="&#x12b;" horiz-adv-x="171" d="M68 501 L102 501 L102 0 L68 0 L68 501 Z M-48 638 L221 638 L221 607 L-48 607 L-48 638 Z " />
<glyph glyph-name="iogonek" unicode="&#x12f;" horiz-adv-x="171" d="M112 -207 Q41 -207 1.5 -178.5 Q-38 -150 -38 -109 Q-38 -72 -7.5 -43 Q23 -14 68 8 L68 501 L102 501 L102 0 L84 0 Q45 -26 20.5 -51.5 Q-4 -77 -4 -108 Q-4 -134 23 -155 Q50 -176 112 -176 L112 -207 Z M53 630 Q53 646 62 655.5 Q71 665 86 665 Q100 665 108.5 655.5 Q117 646 117 630 Q117 616 108.5 607 Q100 598 86 598 Q71 598 62 607 Q53 616 53 630 Z " />
<glyph glyph-name="itilde" unicode="&#x129;" horiz-adv-x="171" d="M68 501 L102 501 L102 0 L68 0 L68 501 Z M-90 610 Q-70 643 -45 668 Q-20 693 13 693 Q34 693 52.5 681.5 Q71 670 87.5 656.5 Q104 643 120.5 631.5 Q137 620 154 620 Q174 620 192.5 636.5 Q211 653 228 681 L251 666 Q231 632 205.5 610 Q180 588 150 588 Q128 588 110 599 Q92 610 76 623.5 Q60 637 44 648.5 Q28 660 11 660 Q-15 660 -32 641 Q-49 622 -66 594 L-90 610 Z " />
<glyph glyph-name="jcircumflex" unicode="&#x135;" horiz-adv-x="171" d="M-64 -171 Q-53 -174 -39.5 -177 Q-26 -180 -11 -180 Q22 -180 45 -157 Q68 -134 68 -81 L68 501 L102 501 L102 -87 Q102 -150 70 -180 Q38 -210 -13 -210 Q-30 -210 -46.5 -206.5 Q-63 -203 -73 -198 L-64 -171 Z M-66 586 L87 722 L240 586 L220 563 L87 678 L-46 563 L-66 586 Z " />
<glyph glyph-name="ij" unicode="&#x133;" horiz-adv-x="342" d="M68 501 L102 501 L102 0 L68 0 L68 501 Z M53 630 Q53 646 62 655.5 Q71 665 86 665 Q100 665 108.5 655.5 Q117 646 117 630 Q117 616 108.5 607 Q100 598 86 598 Q71 598 62 607 Q53 616 53 630 Z M223 630 Q223 646 232 655.5 Q241 665 256 665 Q270 665 278.5 655.5 Q287 646 287 630 Q287 616 278.5 607 Q270 598 256 598 Q241 598 232 607 Q223 616 223 630 Z M106 -171 Q117 -174 130.5 -177 Q144 -180 159 -180 Q192 -180 215 -157 Q238 -134 238 -81 L238 501 L272 501 L272 -87 Q272 -150 240 -180 Q208 -210 157 -210 Q140 -210 123.5 -206.5 Q107 -203 97 -198 L106 -171 Z " />
<glyph glyph-name="kcommaaccent" unicode="&#x137;" horiz-adv-x="424" d="M70 690 L104 690 L104 279 L340 501 L383 501 L125 258 L408 0 L363 0 L104 233 L104 0 L70 0 L70 690 Z M205 -59 L246 -59 L184 -219 L159 -219 L205 -59 Z " />
<glyph glyph-name="lacute" unicode="&#x13a;" horiz-adv-x="170" d="M68 690 L102 690 L102 0 L68 0 L68 690 Z M37 776 L201 912 L224 888 L55 753 L37 776 Z " />
<glyph glyph-name="lcaron" unicode="&#x13e;" horiz-adv-x="209" d="M68 690 L102 690 L102 0 L68 0 L68 690 Z M188 720 L229 720 L167 550 L142 550 L188 720 Z " />
<glyph glyph-name="lcommaaccent" unicode="&#x13c;" horiz-adv-x="170" d="M68 690 L102 690 L102 0 L68 0 L68 690 Z M63 -59 L104 -59 L42 -219 L17 -219 L63 -59 Z " />
<glyph glyph-name="ldot" unicode="&#x140;" horiz-adv-x="191" d="M68 690 L102 690 L102 0 L68 0 L68 690 Z M143 356 Q143 372 152 381.5 Q161 391 176 391 Q190 391 198.5 381.5 Q207 372 207 356 Q207 342 198.5 333 Q190 324 176 324 Q161 324 152 333 Q143 342 143 356 Z " />
<glyph glyph-name="ntilde" unicode="&#xf1;" horiz-adv-x="536" d="M68 501 L102 501 L102 401 L104 401 Q149 510 283 510 Q336 510 373 492 Q410 474 433.5 443 Q457 412 467.5 369.5 Q478 327 478 279 L478 0 L444 0 L444 297 Q444 334 435 367.5 Q426 401 406 426 Q386 451 354.5 465.5 Q323 480 278 480 Q190 480 146 428 Q102 376 102 286 L102 0 L68 0 L68 501 Z M92 610 Q112 643 137 668 Q162 693 195 693 Q216 693 234.5 681.5 Q253 670 269.5 656.5 Q286 643 302.5 631.5 Q319 620 336 620 Q356 620 374.5 636.5 Q393 653 410 681 L433 666 Q413 632 387.5 610 Q362 588 332 588 Q310 588 292 599 Q274 610 258 623.5 Q242 637 226 648.5 Q210 660 193 660 Q167 660 150 641 Q133 622 116 594 L92 610 Z " />
<glyph glyph-name="nacute" unicode="&#x144;" horiz-adv-x="536" d="M68 501 L102 501 L102 401 L104 401 Q149 510 283 510 Q336 510 373 492 Q410 474 433.5 443 Q457 412 467.5 369.5 Q478 327 478 279 L478 0 L444 0 L444 297 Q444 334 435 367.5 Q426 401 406 426 Q386 451 354.5 465.5 Q323 480 278 480 Q190 480 146 428 Q102 376 102 286 L102 0 L68 0 L68 501 Z M181 586 L345 722 L368 698 L199 563 L181 586 Z " />
<glyph glyph-name="ncaron" unicode="&#x148;" horiz-adv-x="536" d="M68 501 L102 501 L102 401 L104 401 Q149 510 283 510 Q336 510 373 492 Q410 474 433.5 443 Q457 412 467.5 369.5 Q478 327 478 279 L478 0 L444 0 L444 297 Q444 334 435 367.5 Q426 401 406 426 Q386 451 354.5 465.5 Q323 480 278 480 Q190 480 146 428 Q102 376 102 286 L102 0 L68 0 L68 501 Z M116 699 L136 722 L269 606 L402 722 L422 699 L269 563 L116 699 Z " />
<glyph glyph-name="ncommaaccent" unicode="&#x146;" horiz-adv-x="536" d="M68 501 L102 501 L102 401 L104 401 Q149 510 283 510 Q336 510 373 492 Q410 474 433.5 443 Q457 412 467.5 369.5 Q478 327 478 279 L478 0 L444 0 L444 297 Q444 334 435 367.5 Q426 401 406 426 Q386 451 354.5 465.5 Q323 480 278 480 Q190 480 146 428 Q102 376 102 286 L102 0 L68 0 L68 501 Z M261 -59 L302 -59 L240 -219 L215 -219 L261 -59 Z " />
<glyph glyph-name="oacute" unicode="&#xf3;" horiz-adv-x="551" d="M274 -9 Q223 -9 178.5 11 Q134 31 100.5 66 Q67 101 48 148.5 Q29 196 29 251 Q29 306 48 353.5 Q67 401 100 436 Q133 471 178 490.5 Q223 510 274 510 Q326 510 371 490 Q416 470 449.5 435.5 Q483 401 502.5 354 Q522 307 522 252 Q522 196 503 148.5 Q484 101 450.5 66 Q417 31 371.5 11 Q326 -9 274 -9 Z M274 21 Q320 21 359 39 Q398 57 426.5 88.5 Q455 120 471 162 Q487 204 487 251 Q487 298 471 339.5 Q455 381 426.5 412.5 Q398 444 359 462 Q320 480 274 480 Q229 480 191 462 Q153 444 124.5 412.5 Q96 381 80 339.5 Q64 298 64 251 Q64 204 80 162.5 Q96 121 124.5 89.5 Q153 58 191 39.5 Q229 21 274 21 Z M188 586 L352 722 L375 698 L206 563 L188 586 Z " />
<glyph glyph-name="ocircumflex" unicode="&#xf4;" horiz-adv-x="551" d="M274 -9 Q223 -9 178.5 11 Q134 31 100.5 66 Q67 101 48 148.5 Q29 196 29 251 Q29 306 48 353.5 Q67 401 100 436 Q133 471 178 490.5 Q223 510 274 510 Q326 510 371 490 Q416 470 449.5 435.5 Q483 401 502.5 354 Q522 307 522 252 Q522 196 503 148.5 Q484 101 450.5 66 Q417 31 371.5 11 Q326 -9 274 -9 Z M274 21 Q320 21 359 39 Q398 57 426.5 88.5 Q455 120 471 162 Q487 204 487 251 Q487 298 471 339.5 Q455 381 426.5 412.5 Q398 444 359 462 Q320 480 274 480 Q229 480 191 462 Q153 444 124.5 412.5 Q96 381 80 339.5 Q64 298 64 251 Q64 204 80 162.5 Q96 121 124.5 89.5 Q153 58 191 39.5 Q229 21 274 21 Z M123 586 L276 722 L429 586 L409 563 L276 678 L143 563 L123 586 Z " />
<glyph glyph-name="odieresis" unicode="&#xf6;" horiz-adv-x="551" d="M274 -9 Q223 -9 178.5 11 Q134 31 100.5 66 Q67 101 48 148.5 Q29 196 29 251 Q29 306 48 353.5 Q67 401 100 436 Q133 471 178 490.5 Q223 510 274 510 Q326 510 371 490 Q416 470 449.5 435.5 Q483 401 502.5 354 Q522 307 522 252 Q522 196 503 148.5 Q484 101 450.5 66 Q417 31 371.5 11 Q326 -9 274 -9 Z M274 21 Q320 21 359 39 Q398 57 426.5 88.5 Q455 120 471 162 Q487 204 487 251 Q487 298 471 339.5 Q455 381 426.5 412.5 Q398 444 359 462 Q320 480 274 480 Q229 480 191 462 Q153 444 124.5 412.5 Q96 381 80 339.5 Q64 298 64 251 Q64 204 80 162.5 Q96 121 124.5 89.5 Q153 58 191 39.5 Q229 21 274 21 Z M308 630 Q308 646 317 655.5 Q326 665 341 665 Q355 665 363.5 655.5 Q372 646 372 630 Q372 616 363.5 607 Q355 598 341 598 Q326 598 317 607 Q308 616 308 630 Z M179 630 Q179 646 188 655.5 Q197 665 212 665 Q226 665 234.5 655.5 Q243 646 243 630 Q243 616 234.5 607 Q226 598 212 598 Q197 598 188 607 Q179 616 179 630 Z " />
<glyph glyph-name="ograve" unicode="&#xf2;" horiz-adv-x="551" d="M274 -9 Q223 -9 178.5 11 Q134 31 100.5 66 Q67 101 48 148.5 Q29 196 29 251 Q29 306 48 353.5 Q67 401 100 436 Q133 471 178 490.5 Q223 510 274 510 Q326 510 371 490 Q416 470 449.5 435.5 Q483 401 502.5 354 Q522 307 522 252 Q522 196 503 148.5 Q484 101 450.5 66 Q417 31 371.5 11 Q326 -9 274 -9 Z M274 21 Q320 21 359 39 Q398 57 426.5 88.5 Q455 120 471 162 Q487 204 487 251 Q487 298 471 339.5 Q455 381 426.5 412.5 Q398 444 359 462 Q320 480 274 480 Q229 480 191 462 Q153 444 124.5 412.5 Q96 381 80 339.5 Q64 298 64 251 Q64 204 80 162.5 Q96 121 124.5 89.5 Q153 58 191 39.5 Q229 21 274 21 Z M199 722 L363 586 L345 563 L176 698 L199 722 Z " />
<glyph glyph-name="otilde" unicode="&#xf5;" horiz-adv-x="551" d="M274 -9 Q223 -9 178.5 11 Q134 31 100.5 66 Q67 101 48 148.5 Q29 196 29 251 Q29 306 48 353.5 Q67 401 100 436 Q133 471 178 490.5 Q223 510 274 510 Q326 510 371 490 Q416 470 449.5 435.5 Q483 401 502.5 354 Q522 307 522 252 Q522 196 503 148.5 Q484 101 450.5 66 Q417 31 371.5 11 Q326 -9 274 -9 Z M274 21 Q320 21 359 39 Q398 57 426.5 88.5 Q455 120 471 162 Q487 204 487 251 Q487 298 471 339.5 Q455 381 426.5 412.5 Q398 444 359 462 Q320 480 274 480 Q229 480 191 462 Q153 444 124.5 412.5 Q96 381 80 339.5 Q64 298 64 251 Q64 204 80 162.5 Q96 121 124.5 89.5 Q153 58 191 39.5 Q229 21 274 21 Z M99 610 Q119 643 144 668 Q169 693 202 693 Q223 693 241.5 681.5 Q260 670 276.5 656.5 Q293 643 309.5 631.5 Q326 620 343 620 Q363 620 381.5 636.5 Q400 653 417 681 L440 666 Q420 632 394.5 610 Q369 588 339 588 Q317 588 299 599 Q281 610 265 623.5 Q249 637 233 648.5 Q217 660 200 660 Q174 660 157 641 Q140 622 123 594 L99 610 Z " />
<glyph glyph-name="obreve" unicode="&#x14f;" horiz-adv-x="551" d="M274 -9 Q223 -9 178.5 11 Q134 31 100.5 66 Q67 101 48 148.5 Q29 196 29 251 Q29 306 48 353.5 Q67 401 100 436 Q133 471 178 490.5 Q223 510 274 510 Q326 510 371 490 Q416 470 449.5 435.5 Q483 401 502.5 354 Q522 307 522 252 Q522 196 503 148.5 Q484 101 450.5 66 Q417 31 371.5 11 Q326 -9 274 -9 Z M274 21 Q320 21 359 39 Q398 57 426.5 88.5 Q455 120 471 162 Q487 204 487 251 Q487 298 471 339.5 Q455 381 426.5 412.5 Q398 444 359 462 Q320 480 274 480 Q229 480 191 462 Q153 444 124.5 412.5 Q96 381 80 339.5 Q64 298 64 251 Q64 204 80 162.5 Q96 121 124.5 89.5 Q153 58 191 39.5 Q229 21 274 21 Z M195 688 Q195 662 201.5 644 Q208 626 219.5 615 Q231 604 245.5 599 Q260 594 276 594 Q307 594 331 615 Q355 636 355 688 L389 688 Q389 628 359.5 595.5 Q330 563 276 563 Q222 563 191.5 597 Q161 631 161 688 L195 688 Z " />
<glyph glyph-name="ohungarumlaut" unicode="&#x151;" horiz-adv-x="551" d="M274 -9 Q223 -9 178.5 11 Q134 31 100.5 66 Q67 101 48 148.5 Q29 196 29 251 Q29 306 48 353.5 Q67 401 100 436 Q133 471 178 490.5 Q223 510 274 510 Q326 510 371 490 Q416 470 449.5 435.5 Q483 401 502.5 354 Q522 307 522 252 Q522 196 503 148.5 Q484 101 450.5 66 Q417 31 371.5 11 Q326 -9 274 -9 Z M274 21 Q320 21 359 39 Q398 57 426.5 88.5 Q455 120 471 162 Q487 204 487 251 Q487 298 471 339.5 Q455 381 426.5 412.5 Q398 444 359 462 Q320 480 274 480 Q229 480 191 462 Q153 444 124.5 412.5 Q96 381 80 339.5 Q64 298 64 251 Q64 204 80 162.5 Q96 121 124.5 89.5 Q153 58 191 39.5 Q229 21 274 21 Z M284 584 L416 722 L439 698 L304 563 L284 584 Z M164 584 L296 722 L319 698 L184 563 L164 584 Z " />
<glyph glyph-name="omacron" unicode="&#x14d;" horiz-adv-x="551" d="M274 -9 Q223 -9 178.5 11 Q134 31 100.5 66 Q67 101 48 148.5 Q29 196 29 251 Q29 306 48 353.5 Q67 401 100 436 Q133 471 178 490.5 Q223 510 274 510 Q326 510 371 490 Q416 470 449.5 435.5 Q483 401 502.5 354 Q522 307 522 252 Q522 196 503 148.5 Q484 101 450.5 66 Q417 31 371.5 11 Q326 -9 274 -9 Z M274 21 Q320 21 359 39 Q398 57 426.5 88.5 Q455 120 471 162 Q487 204 487 251 Q487 298 471 339.5 Q455 381 426.5 412.5 Q398 444 359 462 Q320 480 274 480 Q229 480 191 462 Q153 444 124.5 412.5 Q96 381 80 339.5 Q64 298 64 251 Q64 204 80 162.5 Q96 121 124.5 89.5 Q153 58 191 39.5 Q229 21 274 21 Z M141 638 L410 638 L410 607 L141 607 L141 638 Z " />
<glyph glyph-name="racute" unicode="&#x155;" horiz-adv-x="299" d="M68 501 L101 501 L101 403 L103 403 Q124 454 167 482 Q210 510 279 510 L279 480 Q231 480 197.5 466.5 Q164 453 143 428 Q122 403 112 368.5 Q102 334 102 292 L102 0 L68 0 L68 501 Z M77 586 L241 722 L264 698 L95 563 L77 586 Z " />
<glyph glyph-name="rcaron" unicode="&#x159;" horiz-adv-x="299" d="M68 501 L101 501 L101 403 L103 403 Q124 454 167 482 Q210 510 279 510 L279 480 Q231 480 197.5 466.5 Q164 453 143 428 Q122 403 112 368.5 Q102 334 102 292 L102 0 L68 0 L68 501 Z M12 699 L32 722 L165 606 L298 722 L318 699 L165 563 L12 699 Z " />
<glyph glyph-name="rcommaaccent" unicode="&#x157;" horiz-adv-x="299" d="M68 501 L101 501 L101 403 L103 403 Q124 454 167 482 Q210 510 279 510 L279 480 Q231 480 197.5 466.5 Q164 453 143 428 Q122 403 112 368.5 Q102 334 102 292 L102 0 L68 0 L68 501 Z M67 -59 L108 -59 L46 -219 L21 -219 L67 -59 Z " />
<glyph glyph-name="scaron" unicode="&#x161;" horiz-adv-x="391" d="M76 122 Q84 100 94 81 Q104 62 118.5 48.5 Q133 35 154.5 28 Q176 21 206 21 Q229 21 248.5 30 Q268 39 282 54 Q296 69 304 88 Q312 107 312 127 Q312 152 305.5 171 Q299 190 284.5 205 Q270 220 247 232.5 Q224 245 191 258 Q164 268 141 280 Q118 292 100.5 307.5 Q83 323 73.5 343.5 Q64 364 64 393 Q64 418 74.5 439.5 Q85 461 103 477 Q121 493 144.5 501.5 Q168 510 195 510 Q250 510 287 482 Q324 454 335 401 L305 391 Q297 425 270 452.5 Q243 480 195 480 Q150 480 124 454.5 Q98 429 98 394 Q98 359 123 334.5 Q148 310 204 288 Q240 273 266.5 259.5 Q293 246 310.5 229 Q328 212 337 188 Q346 164 346 128 Q346 100 335.5 75 Q325 50 306 31.5 Q287 13 260.5 2 Q234 -9 202 -9 Q167 -9 141 0 Q115 9 96.5 25 Q78 41 65.5 63.5 Q53 86 46 113 L76 122 Z M44 699 L64 722 L197 606 L330 722 L350 699 L197 563 L44 699 Z " />
<glyph glyph-name="sacute" unicode="&#x15b;" horiz-adv-x="391" d="M76 122 Q84 100 94 81 Q104 62 118.5 48.5 Q133 35 154.5 28 Q176 21 206 21 Q229 21 248.5 30 Q268 39 282 54 Q296 69 304 88 Q312 107 312 127 Q312 152 305.5 171 Q299 190 284.5 205 Q270 220 247 232.5 Q224 245 191 258 Q164 268 141 280 Q118 292 100.5 307.5 Q83 323 73.5 343.5 Q64 364 64 393 Q64 418 74.5 439.5 Q85 461 103 477 Q121 493 144.5 501.5 Q168 510 195 510 Q250 510 287 482 Q324 454 335 401 L305 391 Q297 425 270 452.5 Q243 480 195 480 Q150 480 124 454.5 Q98 429 98 394 Q98 359 123 334.5 Q148 310 204 288 Q240 273 266.5 259.5 Q293 246 310.5 229 Q328 212 337 188 Q346 164 346 128 Q346 100 335.5 75 Q325 50 306 31.5 Q287 13 260.5 2 Q234 -9 202 -9 Q167 -9 141 0 Q115 9 96.5 25 Q78 41 65.5 63.5 Q53 86 46 113 L76 122 Z M108 586 L272 722 L295 698 L126 563 L108 586 Z " />
<glyph glyph-name="scedilla" unicode="&#x15f;" horiz-adv-x="391" d="M192 -9 Q127 -6 93.5 27 Q60 60 46 113 L76 122 Q84 100 94 81 Q104 62 118.5 48.5 Q133 35 154.5 28 Q176 21 206 21 Q229 21 248.5 30 Q268 39 282 54 Q296 69 304 88 Q312 107 312 127 Q312 152 305.5 171 Q299 190 284.5 205 Q270 220 247 232.5 Q224 245 191 258 Q164 268 141 280 Q118 292 100.5 307.5 Q83 323 73.5 343.5 Q64 364 64 393 Q64 418 74.5 439.5 Q85 461 103 477 Q121 493 144.5 501.5 Q168 510 195 510 Q250 510 287 482 Q324 454 335 401 L305 391 Q297 425 270 452.5 Q243 480 195 480 Q150 480 124 454.5 Q98 429 98 394 Q98 359 123 334.5 Q148 310 204 288 Q240 273 266.5 259.5 Q293 246 310.5 229 Q328 212 337 188 Q346 164 346 128 Q346 103 337.5 80.5 Q329 58 313.5 40 Q298 22 276.5 10 Q255 -2 228 -6 L164 -135 L131 -135 L192 -9 Z " />
<glyph glyph-name="scircumflex" unicode="&#x15d;" horiz-adv-x="391" d="M76 122 Q84 100 94 81 Q104 62 118.5 48.5 Q133 35 154.5 28 Q176 21 206 21 Q229 21 248.5 30 Q268 39 282 54 Q296 69 304 88 Q312 107 312 127 Q312 152 305.5 171 Q299 190 284.5 205 Q270 220 247 232.5 Q224 245 191 258 Q164 268 141 280 Q118 292 100.5 307.5 Q83 323 73.5 343.5 Q64 364 64 393 Q64 418 74.5 439.5 Q85 461 103 477 Q121 493 144.5 501.5 Q168 510 195 510 Q250 510 287 482 Q324 454 335 401 L305 391 Q297 425 270 452.5 Q243 480 195 480 Q150 480 124 454.5 Q98 429 98 394 Q98 359 123 334.5 Q148 310 204 288 Q240 273 266.5 259.5 Q293 246 310.5 229 Q328 212 337 188 Q346 164 346 128 Q346 100 335.5 75 Q325 50 306 31.5 Q287 13 260.5 2 Q234 -9 202 -9 Q167 -9 141 0 Q115 9 96.5 25 Q78 41 65.5 63.5 Q53 86 46 113 L76 122 Z M44 586 L197 722 L350 586 L330 563 L197 678 L64 563 L44 586 Z " />
<glyph glyph-name="uni0219" unicode="&#x219;" horiz-adv-x="391" d="M76 122 Q84 100 94 81 Q104 62 118.5 48.5 Q133 35 154.5 28 Q176 21 206 21 Q229 21 248.5 30 Q268 39 282 54 Q296 69 304 88 Q312 107 312 127 Q312 152 305.5 171 Q299 190 284.5 205 Q270 220 247 232.5 Q224 245 191 258 Q164 268 141 280 Q118 292 100.5 307.5 Q83 323 73.5 343.5 Q64 364 64 393 Q64 418 74.5 439.5 Q85 461 103 477 Q121 493 144.5 501.5 Q168 510 195 510 Q250 510 287 482 Q324 454 335 401 L305 391 Q297 425 270 452.5 Q243 480 195 480 Q150 480 124 454.5 Q98 429 98 394 Q98 359 123 334.5 Q148 310 204 288 Q240 273 266.5 259.5 Q293 246 310.5 229 Q328 212 337 188 Q346 164 346 128 Q346 100 335.5 75 Q325 50 306 31.5 Q287 13 260.5 2 Q234 -9 202 -9 Q167 -9 141 0 Q115 9 96.5 25 Q78 41 65.5 63.5 Q53 86 46 113 L76 122 Z M189 -59 L230 -59 L168 -219 L143 -219 L189 -59 Z " />
<glyph glyph-name="tbar" unicode="&#x167;" horiz-adv-x="273" d="M20 501 L106 501 L106 650 L140 650 L140 501 L263 501 L263 471 L140 471 L140 288 L236 288 L236 257 L140 257 L140 0 L106 0 L106 257 L37 257 L37 288 L106 288 L106 471 L20 471 L20 501 Z " />
<glyph glyph-name="tcaron" unicode="&#x165;" horiz-adv-x="273" d="M20 501 L106 501 L106 650 L140 650 L140 501 L263 501 L263 471 L140 471 L140 0 L106 0 L106 471 L20 471 L20 501 Z M234 720 L275 720 L213 550 L188 550 L234 720 Z " />
<glyph glyph-name="uni0163" unicode="&#x163;" horiz-adv-x="273" d="M20 501 L106 501 L106 650 L140 650 L140 501 L263 501 L263 471 L140 471 L140 0 L106 0 L106 471 L20 471 L20 501 Z M104 -59 L145 -59 L83 -219 L58 -219 L104 -59 Z " />
<glyph glyph-name="uni021B" unicode="&#x21b;" horiz-adv-x="273" d="M20 501 L106 501 L106 650 L140 650 L140 501 L263 501 L263 471 L140 471 L140 0 L106 0 L106 471 L20 471 L20 501 Z M104 -59 L145 -59 L83 -219 L58 -219 L104 -59 Z " />
<glyph glyph-name="uacute" unicode="&#xfa;" horiz-adv-x="509" d="M58 501 L92 501 L92 205 Q92 167 102.5 133.5 Q113 100 133 75 Q153 50 183.5 35.5 Q214 21 255 21 Q295 21 325 35.5 Q355 50 375.5 75 Q396 100 406.5 133.5 Q417 167 417 205 L417 501 L451 501 L451 213 Q451 168 438 127.5 Q425 87 399.5 56.5 Q374 26 337 8.5 Q300 -9 252 -9 Q205 -9 169 8 Q133 25 108 54.5 Q83 84 70.5 124 Q58 164 58 209 L58 501 Z M167 586 L331 722 L354 698 L185 563 L167 586 Z " />
<glyph glyph-name="ucircumflex" unicode="&#xfb;" horiz-adv-x="509" d="M58 501 L92 501 L92 205 Q92 167 102.5 133.5 Q113 100 133 75 Q153 50 183.5 35.5 Q214 21 255 21 Q295 21 325 35.5 Q355 50 375.5 75 Q396 100 406.5 133.5 Q417 167 417 205 L417 501 L451 501 L451 213 Q451 168 438 127.5 Q425 87 399.5 56.5 Q374 26 337 8.5 Q300 -9 252 -9 Q205 -9 169 8 Q133 25 108 54.5 Q83 84 70.5 124 Q58 164 58 209 L58 501 Z M102 586 L255 722 L408 586 L388 563 L255 678 L122 563 L102 586 Z " />
<glyph glyph-name="udieresis" unicode="&#xfc;" horiz-adv-x="509" d="M58 501 L92 501 L92 205 Q92 167 102.5 133.5 Q113 100 133 75 Q153 50 183.5 35.5 Q214 21 255 21 Q295 21 325 35.5 Q355 50 375.5 75 Q396 100 406.5 133.5 Q417 167 417 205 L417 501 L451 501 L451 213 Q451 168 438 127.5 Q425 87 399.5 56.5 Q374 26 337 8.5 Q300 -9 252 -9 Q205 -9 169 8 Q133 25 108 54.5 Q83 84 70.5 124 Q58 164 58 209 L58 501 Z M287 630 Q287 646 296 655.5 Q305 665 320 665 Q334 665 342.5 655.5 Q351 646 351 630 Q351 616 342.5 607 Q334 598 320 598 Q305 598 296 607 Q287 616 287 630 Z M158 630 Q158 646 167 655.5 Q176 665 191 665 Q205 665 213.5 655.5 Q222 646 222 630 Q222 616 213.5 607 Q205 598 191 598 Q176 598 167 607 Q158 616 158 630 Z " />
<glyph glyph-name="ugrave" unicode="&#xf9;" horiz-adv-x="509" d="M58 501 L92 501 L92 205 Q92 167 102.5 133.5 Q113 100 133 75 Q153 50 183.5 35.5 Q214 21 255 21 Q295 21 325 35.5 Q355 50 375.5 75 Q396 100 406.5 133.5 Q417 167 417 205 L417 501 L451 501 L451 213 Q451 168 438 127.5 Q425 87 399.5 56.5 Q374 26 337 8.5 Q300 -9 252 -9 Q205 -9 169 8 Q133 25 108 54.5 Q83 84 70.5 124 Q58 164 58 209 L58 501 Z M178 722 L342 586 L324 563 L155 698 L178 722 Z " />
<glyph glyph-name="ubreve" unicode="&#x16d;" horiz-adv-x="509" d="M58 501 L92 501 L92 205 Q92 167 102.5 133.5 Q113 100 133 75 Q153 50 183.5 35.5 Q214 21 255 21 Q295 21 325 35.5 Q355 50 375.5 75 Q396 100 406.5 133.5 Q417 167 417 205 L417 501 L451 501 L451 213 Q451 168 438 127.5 Q425 87 399.5 56.5 Q374 26 337 8.5 Q300 -9 252 -9 Q205 -9 169 8 Q133 25 108 54.5 Q83 84 70.5 124 Q58 164 58 209 L58 501 Z M174 688 Q174 662 180.5 644 Q187 626 198.5 615 Q210 604 224.5 599 Q239 594 255 594 Q286 594 310 615 Q334 636 334 688 L368 688 Q368 628 338.5 595.5 Q309 563 255 563 Q201 563 170.5 597 Q140 631 140 688 L174 688 Z " />
<glyph glyph-name="uhungarumlaut" unicode="&#x171;" horiz-adv-x="509" d="M58 501 L92 501 L92 205 Q92 167 102.5 133.5 Q113 100 133 75 Q153 50 183.5 35.5 Q214 21 255 21 Q295 21 325 35.5 Q355 50 375.5 75 Q396 100 406.5 133.5 Q417 167 417 205 L417 501 L451 501 L451 213 Q451 168 438 127.5 Q425 87 399.5 56.5 Q374 26 337 8.5 Q300 -9 252 -9 Q205 -9 169 8 Q133 25 108 54.5 Q83 84 70.5 124 Q58 164 58 209 L58 501 Z M263 584 L395 722 L418 698 L283 563 L263 584 Z M143 584 L275 722 L298 698 L163 563 L143 584 Z " />
<glyph glyph-name="umacron" unicode="&#x16b;" horiz-adv-x="509" d="M58 501 L92 501 L92 205 Q92 167 102.5 133.5 Q113 100 133 75 Q153 50 183.5 35.5 Q214 21 255 21 Q295 21 325 35.5 Q355 50 375.5 75 Q396 100 406.5 133.5 Q417 167 417 205 L417 501 L451 501 L451 213 Q451 168 438 127.5 Q425 87 399.5 56.5 Q374 26 337 8.5 Q300 -9 252 -9 Q205 -9 169 8 Q133 25 108 54.5 Q83 84 70.5 124 Q58 164 58 209 L58 501 Z M120 638 L389 638 L389 607 L120 607 L120 638 Z " />
<glyph glyph-name="uogonek" unicode="&#x173;" horiz-adv-x="509" d="M329 -207 Q258 -207 218.5 -178.5 Q179 -150 179 -109 Q179 -79 199.5 -54 Q220 -29 253 -9 L252 -9 Q205 -9 169 8 Q133 25 108 54.5 Q83 84 70.5 124 Q58 164 58 209 L58 501 L92 501 L92 205 Q92 167 102.5 133.5 Q113 100 133 75 Q153 50 183.5 35.5 Q214 21 255 21 Q295 21 325 35.5 Q355 50 375.5 75 Q396 100 406.5 133.5 Q417 167 417 205 L417 501 L451 501 L451 213 Q451 174 441.5 139 Q432 104 413.5 75.5 Q395 47 367.5 27 Q340 7 305 -2 Q264 -28 238.5 -53 Q213 -78 213 -108 Q213 -134 240 -155 Q267 -176 329 -176 L329 -207 Z " />
<glyph glyph-name="uring" unicode="&#x16f;" horiz-adv-x="509" d="M58 501 L92 501 L92 205 Q92 167 102.5 133.5 Q113 100 133 75 Q153 50 183.5 35.5 Q214 21 255 21 Q295 21 325 35.5 Q355 50 375.5 75 Q396 100 406.5 133.5 Q417 167 417 205 L417 501 L451 501 L451 213 Q451 168 438 127.5 Q425 87 399.5 56.5 Q374 26 337 8.5 Q300 -9 252 -9 Q205 -9 169 8 Q133 25 108 54.5 Q83 84 70.5 124 Q58 164 58 209 L58 501 Z M254 583 Q283 583 302.5 604 Q322 625 322 655 Q322 687 302.5 707.5 Q283 728 254 728 Q225 728 204.5 707.5 Q184 687 184 655 Q184 625 204.5 604 Q225 583 254 583 Z M152 655 Q152 676 160 694.5 Q168 713 182 727 Q196 741 214.5 749 Q233 757 254 757 Q275 757 293.5 749 Q312 741 325.5 727 Q339 713 347 694.5 Q355 676 355 655 Q355 634 347 615.5 Q339 597 325.5 583.5 Q312 570 293.5 562 Q275 554 254 554 Q233 554 214.5 562 Q196 570 182 583.5 Q168 597 160 615.5 Q152 634 152 655 Z " />
<glyph glyph-name="utilde" unicode="&#x169;" horiz-adv-x="509" d="M58 501 L92 501 L92 205 Q92 167 102.5 133.5 Q113 100 133 75 Q153 50 183.5 35.5 Q214 21 255 21 Q295 21 325 35.5 Q355 50 375.5 75 Q396 100 406.5 133.5 Q417 167 417 205 L417 501 L451 501 L451 213 Q451 168 438 127.5 Q425 87 399.5 56.5 Q374 26 337 8.5 Q300 -9 252 -9 Q205 -9 169 8 Q133 25 108 54.5 Q83 84 70.5 124 Q58 164 58 209 L58 501 Z M78 610 Q98 643 123 668 Q148 693 181 693 Q202 693 220.5 681.5 Q239 670 255.5 656.5 Q272 643 288.5 631.5 Q305 620 322 620 Q342 620 360.5 636.5 Q379 653 396 681 L419 666 Q399 632 373.5 610 Q348 588 318 588 Q296 588 278 599 Q260 610 244 623.5 Q228 637 212 648.5 Q196 660 179 660 Q153 660 136 641 Q119 622 102 594 L78 610 Z " />
<glyph glyph-name="wacute" unicode="&#x1e83;" horiz-adv-x="718" d="M23 501 L58 501 L184 85 L363 511 L539 85 L660 501 L693 501 L542 -10 L361 428 L178 -10 L23 501 Z M271 586 L435 722 L458 698 L289 563 L271 586 Z " />
<glyph glyph-name="wcircumflex" unicode="&#x175;" horiz-adv-x="718" d="M23 501 L58 501 L184 85 L363 511 L539 85 L660 501 L693 501 L542 -10 L361 428 L178 -10 L23 501 Z M206 586 L359 722 L512 586 L492 563 L359 678 L226 563 L206 586 Z " />
<glyph glyph-name="wdieresis" unicode="&#x1e85;" horiz-adv-x="718" d="M23 501 L58 501 L184 85 L363 511 L539 85 L660 501 L693 501 L542 -10 L361 428 L178 -10 L23 501 Z M391 630 Q391 646 400 655.5 Q409 665 424 665 Q438 665 446.5 655.5 Q455 646 455 630 Q455 616 446.5 607 Q438 598 424 598 Q409 598 400 607 Q391 616 391 630 Z M262 630 Q262 646 271 655.5 Q280 665 295 665 Q309 665 317.5 655.5 Q326 646 326 630 Q326 616 317.5 607 Q309 598 295 598 Q280 598 271 607 Q262 616 262 630 Z " />
<glyph glyph-name="wgrave" unicode="&#x1e81;" horiz-adv-x="718" d="M23 501 L58 501 L184 85 L363 511 L539 85 L660 501 L693 501 L542 -10 L361 428 L178 -10 L23 501 Z M282 722 L446 586 L428 563 L259 698 L282 722 Z " />
<glyph glyph-name="yacute" unicode="&#xfd;" horiz-adv-x="437" d="M222 56 L9 501 L48 501 L239 101 L399 501 L436 501 L157 -200 L121 -200 L222 56 Z M131 586 L295 722 L318 698 L149 563 L131 586 Z " />
<glyph glyph-name="ydieresis" unicode="&#xff;" horiz-adv-x="437" d="M222 56 L9 501 L48 501 L239 101 L399 501 L436 501 L157 -200 L121 -200 L222 56 Z M251 630 Q251 646 260 655.5 Q269 665 284 665 Q298 665 306.5 655.5 Q315 646 315 630 Q315 616 306.5 607 Q298 598 284 598 Q269 598 260 607 Q251 616 251 630 Z M122 630 Q122 646 131 655.5 Q140 665 155 665 Q169 665 177.5 655.5 Q186 646 186 630 Q186 616 177.5 607 Q169 598 155 598 Q140 598 131 607 Q122 616 122 630 Z " />
<glyph glyph-name="ycircumflex" unicode="&#x177;" horiz-adv-x="437" d="M222 56 L9 501 L48 501 L239 101 L399 501 L436 501 L157 -200 L121 -200 L222 56 Z M66 586 L219 722 L372 586 L352 563 L219 678 L86 563 L66 586 Z " />
<glyph glyph-name="ygrave" unicode="&#x1ef3;" horiz-adv-x="437" d="M222 56 L9 501 L48 501 L239 101 L399 501 L436 501 L157 -200 L121 -200 L222 56 Z M142 722 L306 586 L288 563 L119 698 L142 722 Z " />
<glyph glyph-name="zcaron" unicode="&#x17e;" horiz-adv-x="374" d="M304 471 L24 471 L24 501 L360 501 L71 30 L350 30 L350 0 L14 0 L304 471 Z M35 699 L55 722 L188 606 L321 722 L341 699 L188 563 L35 699 Z " />
<glyph glyph-name="zacute" unicode="&#x17a;" horiz-adv-x="374" d="M304 471 L24 471 L24 501 L360 501 L71 30 L350 30 L350 0 L14 0 L304 471 Z M100 586 L264 722 L287 698 L118 563 L100 586 Z " />
<glyph glyph-name="zdotaccent" unicode="&#x17c;" horiz-adv-x="374" d="M304 471 L24 471 L24 501 L360 501 L71 30 L350 30 L350 0 L14 0 L304 471 Z M155 630 Q155 646 164 655.5 Q173 665 188 665 Q202 665 210.5 655.5 Q219 646 219 630 Q219 616 210.5 607 Q202 598 188 598 Q173 598 164 607 Q155 616 155 630 Z " />
<glyph glyph-name="acute" unicode="&#xb4;" horiz-adv-x="603" d="M214 586 L378 722 L401 698 L232 563 L214 586 Z " />
<glyph glyph-name="grave" unicode="&#x60;" horiz-adv-x="603" d="M225 722 L389 586 L371 563 L202 698 L225 722 Z " />
<glyph glyph-name="circumflex" unicode="&#x2c6;" horiz-adv-x="603" d="M149 586 L302 722 L455 586 L435 563 L302 678 L169 563 L149 586 Z " />
<glyph glyph-name="caron" unicode="&#x2c7;" horiz-adv-x="603" d="M149 699 L169 722 L302 606 L435 722 L455 699 L302 563 L149 699 Z " />
<glyph glyph-name="tilde" unicode="&#x2dc;" horiz-adv-x="603" d="M125 610 Q145 643 170 668 Q195 693 228 693 Q249 693 267.5 681.5 Q286 670 302.5 656.5 Q319 643 335.5 631.5 Q352 620 369 620 Q389 620 407.5 636.5 Q426 653 443 681 L466 666 Q446 632 420.5 610 Q395 588 365 588 Q343 588 325 599 Q307 610 291 623.5 Q275 637 259 648.5 Q243 660 226 660 Q200 660 183 641 Q166 622 149 594 L125 610 Z " />
<glyph glyph-name="dieresis" unicode="&#xa8;" horiz-adv-x="603" d="M334 630 Q334 646 343 655.5 Q352 665 367 665 Q381 665 389.5 655.5 Q398 646 398 630 Q398 616 389.5 607 Q381 598 367 598 Q352 598 343 607 Q334 616 334 630 Z M205 630 Q205 646 214 655.5 Q223 665 238 665 Q252 665 260.5 655.5 Q269 646 269 630 Q269 616 260.5 607 Q252 598 238 598 Q223 598 214 607 Q205 616 205 630 Z " />
<glyph glyph-name="ring" unicode="&#x2da;" horiz-adv-x="603" d="M301 583 Q330 583 349.5 604 Q369 625 369 655 Q369 687 349.5 707.5 Q330 728 301 728 Q272 728 251.5 707.5 Q231 687 231 655 Q231 625 251.5 604 Q272 583 301 583 Z M199 655 Q199 676 207 694.5 Q215 713 229 727 Q243 741 261.5 749 Q280 757 301 757 Q322 757 340.5 749 Q359 741 372.5 727 Q386 713 394 694.5 Q402 676 402 655 Q402 634 394 615.5 Q386 597 372.5 583.5 Q359 570 340.5 562 Q322 554 301 554 Q280 554 261.5 562 Q243 570 229 583.5 Q215 597 207 615.5 Q199 634 199 655 Z " />
<glyph glyph-name="cedilla" unicode="&#xb8;" horiz-adv-x="603" d="M347 10 L383 10 L310 -135 L277 -135 L347 10 Z " />
<glyph glyph-name="hungarumlaut" unicode="&#x2dd;" horiz-adv-x="603" d="M310 584 L442 722 L465 698 L330 563 L310 584 Z M190 584 L322 722 L345 698 L210 563 L190 584 Z " />
<glyph glyph-name="breve" unicode="&#x2d8;" horiz-adv-x="603" d="M221 688 Q221 662 227.5 644 Q234 626 245.5 615 Q257 604 271.5 599 Q286 594 302 594 Q333 594 357 615 Q381 636 381 688 L415 688 Q415 628 385.5 595.5 Q356 563 302 563 Q248 563 217.5 597 Q187 631 187 688 L221 688 Z " />
<glyph glyph-name="macron" unicode="&#xaf;" horiz-adv-x="603" d="M167 638 L436 638 L436 607 L167 607 L167 638 Z " />
<glyph glyph-name="dotaccent" unicode="&#x2d9;" horiz-adv-x="603" d="M269 630 Q269 646 278 655.5 Q287 665 302 665 Q316 665 324.5 655.5 Q333 646 333 630 Q333 616 324.5 607 Q316 598 302 598 Q287 598 278 607 Q269 616 269 630 Z " />
<glyph glyph-name="periodcentered" unicode="&#xb7;" horiz-adv-x="603" d="M269 356 Q269 372 278 381.5 Q287 391 302 391 Q316 391 324.5 381.5 Q333 372 333 356 Q333 342 324.5 333 Q316 324 302 324 Q287 324 278 333 Q269 342 269 356 Z " />
<glyph glyph-name="ogonek" unicode="&#x2db;" horiz-adv-x="603" d="M356 -207 Q285 -207 245.5 -178.5 Q206 -150 206 -109 Q206 -71 237.5 -42 Q269 -13 315 10 L354 10 Q304 -19 272 -46.5 Q240 -74 240 -108 Q240 -134 267 -155 Q294 -176 356 -176 L356 -207 Z " />
<glyph glyph-name="commaaccent" unicode="&#xf6c3;" horiz-adv-x="603" d="M294 -59 L335 -59 L273 -219 L248 -219 L294 -59 Z " />
<glyph glyph-name="period" unicode="&#x2e;" horiz-adv-x="302" d="M118 24 Q118 40 127 49.5 Q136 59 151 59 Q165 59 173.5 49.5 Q182 40 182 24 Q182 10 173.5 1 Q165 -8 151 -8 Q136 -8 127 1 Q118 10 118 24 Z " />
<glyph glyph-name="comma" unicode="&#x2c;" horiz-adv-x="272" d="M121 84 L168 84 L96 -138 L75 -138 L121 84 Z " />
<glyph glyph-name="colon" unicode="&#x3a;" horiz-adv-x="298" d="M118 462 Q118 478 127 487.5 Q136 497 151 497 Q165 497 173.5 487.5 Q182 478 182 462 Q182 448 173.5 439 Q165 430 151 430 Q136 430 127 439 Q118 448 118 462 Z M118 24 Q118 40 127 49.5 Q136 59 151 59 Q165 59 173.5 49.5 Q182 40 182 24 Q182 10 173.5 1 Q165 -8 151 -8 Q136 -8 127 1 Q118 10 118 24 Z " />
<glyph glyph-name="semicolon" unicode="&#x3b;" horiz-adv-x="307" d="M132 462 Q132 478 141 487.5 Q150 497 165 497 Q179 497 187.5 487.5 Q196 478 196 462 Q196 448 187.5 439 Q179 430 165 430 Q150 430 141 439 Q132 448 132 462 Z M139 84 L186 84 L114 -138 L93 -138 L139 84 Z " />
<glyph glyph-name="ellipsis" unicode="&#x2026;" horiz-adv-x="657" d="M478 24 Q478 40 487 49.5 Q496 59 511 59 Q525 59 533.5 49.5 Q542 40 542 24 Q542 10 533.5 1 Q525 -8 511 -8 Q496 -8 487 1 Q478 10 478 24 Z M298 24 Q298 40 307 49.5 Q316 59 331 59 Q345 59 353.5 49.5 Q362 40 362 24 Q362 10 353.5 1 Q345 -8 331 -8 Q316 -8 307 1 Q298 10 298 24 Z M118 24 Q118 40 127 49.5 Q136 59 151 59 Q165 59 173.5 49.5 Q182 40 182 24 Q182 10 173.5 1 Q165 -8 151 -8 Q136 -8 127 1 Q118 10 118 24 Z " />
<glyph glyph-name="question" unicode="&#x3f;" horiz-adv-x="557" d="M222 349 L235 349 Q286 349 326 362.5 Q366 376 393 400.5 Q420 425 434.5 458.5 Q449 492 449 533 Q449 611 402.5 654.5 Q356 698 279 698 Q219 698 168.5 666 Q118 634 94 561 L65 570 Q73 600 90 628.5 Q107 657 133 679.5 Q159 702 195.5 715.5 Q232 729 280 729 Q326 729 363.5 715.5 Q401 702 428 677 Q455 652 470 615.5 Q485 579 485 533 Q485 482 466 443.5 Q447 405 415.5 378.5 Q384 352 343.5 337.5 Q303 323 260 320 L256 163 L227 163 L222 349 Z M209 24 Q209 40 218 49.5 Q227 59 242 59 Q256 59 264.5 49.5 Q273 40 273 24 Q273 10 264.5 1 Q256 -8 242 -8 Q227 -8 218 1 Q209 10 209 24 Z " />
<glyph glyph-name="exclam" unicode="&#x21;" horiz-adv-x="242" d="M104 720 L138 720 L133 163 L109 163 L104 720 Z M88 24 Q88 40 97 49.5 Q106 59 121 59 Q135 59 143.5 49.5 Q152 40 152 24 Q152 10 143.5 1 Q135 -8 121 -8 Q106 -8 97 1 Q88 10 88 24 Z " />
<glyph glyph-name="questiondown" unicode="&#xbf;" horiz-adv-x="557" d="M493 -69 Q485 -99 468 -127.5 Q451 -156 425 -178.5 Q399 -201 362.5 -214.5 Q326 -228 278 -228 Q232 -228 194.5 -214.5 Q157 -201 130 -176 Q103 -151 88 -114.5 Q73 -78 73 -32 Q73 19 92 57.5 Q111 96 142.5 122.5 Q174 149 214.5 163.5 Q255 178 298 181 L302 338 L331 338 L336 152 L323 152 Q272 152 232 138.5 Q192 125 165 100.5 Q138 76 123.5 42 Q109 8 109 -32 Q109 -110 155.5 -153.5 Q202 -197 279 -197 Q309 -197 337 -189.5 Q365 -182 389.5 -165.5 Q414 -149 433 -123 Q452 -97 464 -60 L493 -69 Z M283 475 Q283 491 292 500.5 Q301 510 316 510 Q330 510 338.5 500.5 Q347 491 347 475 Q347 461 338.5 452 Q330 443 316 443 Q301 443 292 452 Q283 461 283 475 Z " />
<glyph glyph-name="exclamdown" unicode="&#xa1;" horiz-adv-x="242" d="M109 338 L133 338 L138 -219 L104 -219 L109 338 Z M87 475 Q87 491 96 500.5 Q105 510 120 510 Q134 510 142.5 500.5 Q151 491 151 475 Q151 461 142.5 452 Q134 443 120 443 Q105 443 96 452 Q87 461 87 475 Z " />
<glyph glyph-name="parenleft" unicode="&#x28;" horiz-adv-x="370" d="M307 -176 Q263 -125 226 -71 Q189 -17 161 41.5 Q133 100 117.5 162 Q102 224 102 292 Q102 359 117 421.5 Q132 484 159 542.5 Q186 601 222.5 655 Q259 709 303 760 L326 741 Q284 690 249.5 638 Q215 586 190 531 Q165 476 151.5 417 Q138 358 138 292 Q138 226 152.5 167.5 Q167 109 192.5 54.5 Q218 0 253.5 -51 Q289 -102 330 -152 L307 -176 Z " />
<glyph glyph-name="parenright" unicode="&#x29;" horiz-adv-x="370" d="M38 -154 Q79 -104 114.5 -52.5 Q150 -1 175.5 53.5 Q201 108 215.5 167 Q230 226 230 292 Q230 358 216 417 Q202 476 177.5 530.5 Q153 585 118.5 637 Q84 689 43 740 L69 760 Q112 709 148 654.5 Q184 600 210.5 542 Q237 484 252 421.5 Q267 359 267 292 Q267 225 251 162.5 Q235 100 207.5 42 Q180 -16 143 -70.5 Q106 -125 63 -176 L38 -154 Z " />
<glyph glyph-name="braceleft" unicode="&#x7b;" horiz-adv-x="380" d="M328 -176 Q285 -169 256.5 -155.5 Q228 -142 211.5 -119.5 Q195 -97 188 -63.5 Q181 -30 181 18 L181 189 Q181 275 81 275 L81 309 Q181 309 181 395 L181 566 Q181 614 188 647.5 Q195 681 211.5 703.5 Q228 726 256.5 739 Q285 752 328 760 L335 734 Q300 729 277 718.5 Q254 708 240 690.5 Q226 673 220.5 648 Q215 623 215 589 L215 415 Q215 358 191.5 326.5 Q168 295 120 292 Q168 289 191.5 257.5 Q215 226 215 169 L215 -5 Q215 -39 220.5 -64 Q226 -89 240 -106.5 Q254 -124 277 -134.5 Q300 -145 335 -150 L328 -176 Z " />
<glyph glyph-name="braceright" unicode="&#x7d;" horiz-adv-x="380" d="M45 -150 Q80 -145 103 -134.5 Q126 -124 140 -106.5 Q154 -89 159.5 -64 Q165 -39 165 -5 L165 169 Q165 226 188.5 257.5 Q212 289 260 292 Q212 295 188.5 326.5 Q165 358 165 415 L165 589 Q165 623 159.5 648 Q154 673 140 690.5 Q126 708 103 718.5 Q80 729 45 734 L52 760 Q95 752 123.5 739 Q152 726 168.5 703.5 Q185 681 192 647.5 Q199 614 199 566 L199 395 Q199 309 299 309 L299 275 Q199 275 199 189 L199 18 Q199 -30 192 -63.5 Q185 -97 168.5 -119.5 Q152 -142 123.5 -155.5 Q95 -169 52 -176 L45 -150 Z " />
<glyph glyph-name="bracketleft" unicode="&#x5b;" horiz-adv-x="375" d="M128 750 L330 750 L330 719 L162 719 L162 -135 L330 -135 L330 -166 L128 -166 L128 750 Z " />
<glyph glyph-name="bracketright" unicode="&#x5d;" horiz-adv-x="372" d="M45 -135 L213 -135 L213 719 L45 719 L45 750 L247 750 L247 -166 L45 -166 L45 -135 Z " />
<glyph glyph-name="slash" unicode="&#x2f;" horiz-adv-x="387" d="M353 720 L387 720 L34 0 L0 0 L353 720 Z " />
<glyph glyph-name="backslash" unicode="&#x5c;" horiz-adv-x="387" d="M0 720 L34 720 L387 0 L353 0 L0 720 Z " />
<glyph glyph-name="underscore" unicode="&#x5f;" horiz-adv-x="471" d="M37 0 L434 0 L434 -28 L37 -28 L37 0 Z " />
<glyph glyph-name="hyphen" unicode="&#x2d;" horiz-adv-x="320" d="M37 285 L282 285 L282 254 L37 254 L37 285 Z " />
<glyph glyph-name="uni00AD" unicode="&#xad;" horiz-adv-x="325" d="" />
<glyph glyph-name="endash" unicode="&#x2013;" horiz-adv-x="500" d="M37 285 L463 285 L463 254 L37 254 L37 285 Z " />
<glyph glyph-name="emdash" unicode="&#x2014;" horiz-adv-x="1000" d="M37 285 L963 285 L963 254 L37 254 L37 285 Z " />
<glyph glyph-name="brokenbar" unicode="&#xa6;" horiz-adv-x="304" d="M135 770 L169 770 L169 348 L135 348 L135 770 Z M135 190 L169 190 L169 -230 L135 -230 L135 190 Z " />
<glyph glyph-name="bar" unicode="&#x7c;" horiz-adv-x="304" d="M135 770 L169 770 L169 -230 L135 -230 L135 770 Z " />
<glyph glyph-name="guillemotleft" unicode="&#xab;" horiz-adv-x="515" d="M93 273 L226 472 L249 454 L137 273 L249 91 L226 73 L93 273 Z M258 273 L391 472 L417 454 L302 273 L417 91 L391 73 L258 273 Z " />
<glyph glyph-name="guillemotright" unicode="&#xbb;" horiz-adv-x="515" d="M213 273 L98 454 L124 472 L257 273 L124 73 L98 91 L213 273 Z M378 273 L266 454 L289 472 L422 273 L289 73 L266 91 L378 273 Z " />
<glyph glyph-name="guilsinglleft" unicode="&#x2039;" horiz-adv-x="349" d="M93 273 L226 472 L249 454 L137 273 L249 91 L226 73 L93 273 Z " />
<glyph glyph-name="guilsinglright" unicode="&#x203a;" horiz-adv-x="349" d="M213 273 L98 454 L124 472 L257 273 L124 73 L98 91 L213 273 Z " />
<glyph glyph-name="quotesinglbase" unicode="&#x201a;" horiz-adv-x="245" d="M115 140 L160 140 L108 -80 L85 -80 L115 140 Z " />
<glyph glyph-name="quotedblbase" unicode="&#x201e;" horiz-adv-x="371" d="M241 140 L285 140 L233 -80 L211 -80 L241 140 Z M115 140 L160 140 L108 -80 L85 -80 L115 140 Z " />
<glyph glyph-name="quoteleft" unicode="&#x2018;" horiz-adv-x="245" d="M140 720 L163 720 L133 500 L88 500 L140 720 Z " />
<glyph glyph-name="quotedblleft" unicode="&#x201c;" horiz-adv-x="371" d="M265 720 L288 720 L258 500 L213 500 L265 720 Z M140 720 L163 720 L133 500 L88 500 L140 720 Z " />
<glyph glyph-name="quoteright" unicode="&#x2019;" horiz-adv-x="245" d="M113 720 L157 720 L105 500 L83 500 L113 720 Z " />
<glyph glyph-name="quotedblright" unicode="&#x201d;" horiz-adv-x="371" d="M238 720 L283 720 L231 500 L208 500 L238 720 Z M113 720 L157 720 L105 500 L83 500 L113 720 Z " />
<glyph glyph-name="quotesingle" unicode="&#x27;" horiz-adv-x="245" d="M100 720 L145 720 L134 500 L111 500 L100 720 Z " />
<glyph glyph-name="quotedbl" unicode="&#x22;" horiz-adv-x="358" d="M213 720 L258 720 L247 500 L224 500 L213 720 Z M100 720 L145 720 L134 500 L111 500 L100 720 Z " />
<glyph glyph-name="bullet" unicode="&#x2022;" horiz-adv-x="326" d="M163 195 Q137 195 119.5 214.5 Q102 234 102 260 Q102 288 119.5 307.5 Q137 327 163 327 Q190 327 208 307.5 Q226 288 226 260 Q226 234 208 214.5 Q190 195 163 195 Z " />
<glyph glyph-name="ampersand" unicode="&#x26;" horiz-adv-x="561" d="M243 374 Q210 372 180.5 360.5 Q151 349 129 328 Q107 307 94 275.5 Q81 244 81 203 Q81 155 99 120.5 Q117 86 145.5 64 Q174 42 210.5 31.5 Q247 21 284 21 Q326 21 362.5 32.5 Q399 44 425.5 67 Q452 90 467.5 124.5 Q483 159 483 205 Q483 239 473 268 Q463 297 445.5 319.5 Q428 342 403.5 356 Q379 370 349 374 L349 405 L550 405 L550 374 L422 374 Q464 351 491 307.5 Q518 264 518 208 Q518 158 500.5 118 Q483 78 452 49.5 Q421 21 378.5 6 Q336 -9 286 -9 Q239 -9 195.5 5 Q152 19 119 45.5 Q86 72 66 111.5 Q46 151 46 202 Q46 242 57 273 Q68 304 86.5 327 Q105 350 130 365.5 Q155 381 183 390 Q162 398 143.5 412 Q125 426 111 446 Q97 466 89 492 Q81 518 81 551 Q81 631 131 680 Q181 729 269 729 Q302 729 331.5 720.5 Q361 712 384.5 698.5 Q408 685 424.5 666.5 Q441 648 449 629 L424 613 Q412 636 395 652 Q378 668 357 678.5 Q336 689 313 693.5 Q290 698 267 698 Q225 698 196 685.5 Q167 673 149.5 652 Q132 631 124 605 Q116 579 116 552 Q116 520 126 494 Q136 468 153 449 Q170 430 193 418.5 Q216 407 243 405 L243 374 Z " />
<glyph glyph-name="paragraph" unicode="&#xb6;" horiz-adv-x="588" d="M396 720 L431 720 L431 0 L396 0 L396 720 Z M321 232 Q268 232 221.5 250.5 Q175 269 140.5 302 Q106 335 86 380.5 Q66 426 66 480 Q66 530 83.5 573.5 Q101 617 134 649.5 Q167 682 214.5 701 Q262 720 322 720 L356 720 L356 0 L321 0 L321 232 Z " />
<glyph glyph-name="dagger" unicode="&#x2020;" horiz-adv-x="459" d="M68 577 L212 577 L212 712 L247 712 L247 577 L391 577 L391 542 L247 542 L247 0 L212 0 L212 542 L68 542 L68 577 Z " />
<glyph glyph-name="daggerdbl" unicode="&#x2021;" horiz-adv-x="459" d="M68 -60 L212 -60 L212 542 L68 542 L68 577 L212 577 L212 712 L247 712 L247 577 L391 577 L391 542 L247 542 L247 -60 L391 -60 L391 -95 L247 -95 L247 -230 L212 -230 L212 -95 L68 -95 L68 -60 Z " />
<glyph glyph-name="section" unicode="&#xa7;" horiz-adv-x="465" d="M82 103 Q92 60 124.5 29.5 Q157 -1 217 -1 Q280 -1 315.5 26.5 Q351 54 351 102 Q351 130 342 150 Q333 170 315.5 185 Q298 200 272.5 210 Q247 220 215 228 Q182 236 153 248.5 Q124 261 102.5 279.5 Q81 298 68.5 322.5 Q56 347 56 380 Q56 433 85 467.5 Q114 502 155 516 Q78 554 78 634 Q78 689 116 724.5 Q154 760 223 760 Q263 760 293 749.5 Q323 739 343.5 720.5 Q364 702 376 677.5 Q388 653 393 625 L364 618 Q350 676 317.5 702.5 Q285 729 222 729 Q192 729 171 721 Q150 713 137 699.5 Q124 686 118.5 669 Q113 652 113 633 Q113 589 144 562.5 Q175 536 240 521 Q275 513 306 501.5 Q337 490 359.5 471.5 Q382 453 395 425.5 Q408 398 408 358 Q408 307 379 275 Q350 243 307 231 Q342 213 364 184 Q386 155 386 108 Q386 79 375.5 54 Q365 29 344 9.5 Q323 -10 291.5 -21 Q260 -32 218 -32 Q151 -32 105.5 2.5 Q60 37 46 95 L82 103 Z M226 261 Q251 255 273 246 Q314 256 343.5 282.5 Q373 309 373 357 Q373 388 362.5 409.5 Q352 431 333.5 446.5 Q315 462 288.5 472.5 Q262 483 229 491 Q218 493 207.5 496 Q197 499 188 502 Q143 491 117 458 Q91 425 91 383 Q91 333 125.5 305.5 Q160 278 226 261 Z " />
<glyph glyph-name="asterisk" unicode="&#x2a;" horiz-adv-x="534" d="M267 485 L150 323 L132 339 L248 498 L60 561 L66 584 L256 522 L256 720 L280 720 L280 522 L469 584 L475 561 L287 498 L403 339 L385 323 L267 485 Z " />
<glyph glyph-name="trademark" unicode="&#x2122;" horiz-adv-x="674" d="M291 727 L452 443 L614 727 L654 360 L621 360 L591 635 L451 388 L314 635 L283 360 L250 360 L291 727 Z M5 720 L263 720 L263 690 L150 690 L150 360 L117 360 L117 690 L5 690 L5 720 Z " />
<glyph glyph-name="registered" unicode="&#xae;" horiz-adv-x="734" d="M366 211 Q300 211 244 235.5 Q188 260 147.5 302.5 Q107 345 84 404 Q61 463 61 532 Q61 601 84 659.5 Q107 718 148 760.5 Q189 803 245 827.5 Q301 852 367 852 Q433 852 489.5 827.5 Q546 803 587 760.5 Q628 718 651 659.5 Q674 601 674 532 Q674 463 651 404 Q628 345 587 302.5 Q546 260 489.5 235.5 Q433 211 366 211 Z M366 238 Q425 238 475.5 259.5 Q526 281 563 320 Q600 359 621 413 Q642 467 642 532 Q642 596 621 650 Q600 704 563.5 743 Q527 782 476.5 803.5 Q426 825 367 825 Q308 825 257.5 803.5 Q207 782 170.5 743 Q134 704 113 650 Q92 596 92 532 Q92 467 112.5 413 Q133 359 170 320 Q207 281 257 259.5 Q307 238 366 238 Z M370 498 Q364 497 357.5 497 Q351 497 345 497 L303 497 L303 360 L269 360 L269 720 L357 720 Q412 720 447 693 Q482 666 482 612 Q482 567 461 541.5 Q440 516 405 505 L505 360 L464 360 L370 498 Z M303 687 L303 529 L349 529 Q391 529 419 549 Q447 569 447 612 Q447 651 420.5 669 Q394 687 353 687 L303 687 Z " />
<glyph glyph-name="copyright" unicode="&#xa9;" horiz-adv-x="965" d="M483 -79 Q388 -79 309 -46.5 Q230 -14 173 44 Q116 102 84 183 Q52 264 52 360 Q52 456 84 537 Q116 618 173 676 Q230 734 309 766.5 Q388 799 483 799 Q577 799 656 766.5 Q735 734 792 676 Q849 618 880.5 537 Q912 456 912 360 Q912 264 880.5 183 Q849 102 792 44 Q735 -14 656 -46.5 Q577 -79 483 -79 Z M481 -48 Q569 -48 642.5 -18 Q716 12 768.5 66 Q821 120 850 194.5 Q879 269 879 358 Q879 447 850 522 Q821 597 768.5 652 Q716 707 643 737.5 Q570 768 481 768 Q392 768 319.5 737 Q247 706 195.5 651.5 Q144 597 115.5 521.5 Q87 446 87 358 Q87 270 115.5 195.5 Q144 121 196 67 Q248 13 320.5 -17.5 Q393 -48 481 -48 Z M614 121 Q591 107 566.5 104 Q542 101 514 101 Q456 101 408 120 Q360 139 325.5 173 Q291 207 272 254.5 Q253 302 253 360 Q253 416 272.5 463.5 Q292 511 327 545 Q362 579 409.5 598 Q457 617 514 617 Q539 617 563 613.5 Q587 610 610 597 L610 554 Q587 570 562 574.5 Q537 579 512 579 Q464 579 424 563 Q384 547 355 518 Q326 489 310 448 Q294 407 294 358 Q294 308 310 268 Q326 228 355 199 Q384 170 423.5 154.5 Q463 139 511 139 Q538 139 564 142.5 Q590 146 614 160 L614 121 Z " />
<glyph glyph-name="at" unicode="&#x40;" horiz-adv-x="962" d="M409 21 Q461 21 505 42.5 Q549 64 580.5 101.5 Q612 139 629.5 191 Q647 243 647 304 Q647 385 609.5 431.5 Q572 478 506 478 Q454 478 410.5 457 Q367 436 335.5 399 Q304 362 286.5 311 Q269 260 269 199 Q269 118 307 69.5 Q345 21 409 21 Z M636 -197 Q601 -204 567.5 -207 Q534 -210 497 -210 Q405 -210 323.5 -181 Q242 -152 181 -95 Q120 -38 84 46 Q48 130 48 241 Q48 342 85 429.5 Q122 517 185.5 581.5 Q249 646 335 683 Q421 720 520 720 Q601 720 674 693 Q747 666 802.5 614.5 Q858 563 890.5 486.5 Q923 410 923 311 Q923 251 907.5 193.5 Q892 136 862.5 91 Q833 46 791.5 18.5 Q750 -9 698 -9 Q661 -9 635.5 15.5 Q610 40 610 97 L607 97 Q576 46 521.5 18.5 Q467 -9 406 -9 Q364 -9 331.5 7 Q299 23 276.5 51.5 Q254 80 242.5 117.5 Q231 155 231 199 Q231 263 251 319.5 Q271 376 307.5 418 Q344 460 395 484 Q446 508 507 508 Q572 508 614.5 470.5 Q657 433 663 368 L666 368 L694 504 L732 504 L658 147 Q655 130 653 116.5 Q651 103 651 91 Q651 21 707 21 Q743 21 775.5 44.5 Q808 68 833 107.5 Q858 147 873 200 Q888 253 888 312 Q888 399 858 469 Q828 539 777 588 Q726 637 659.5 663.5 Q593 690 521 690 Q423 690 343 653 Q263 616 205 553.5 Q147 491 115.5 409.5 Q84 328 84 238 Q84 138 117.5 60 Q151 -18 207.5 -71 Q264 -124 339 -152 Q414 -180 498 -180 Q532 -180 566 -177.5 Q600 -175 636 -166 L636 -197 Z " />
<glyph glyph-name="ordfeminine" unicode="&#xaa;" horiz-adv-x="429" d="M342 435 L340 435 Q320 392 285.5 370.5 Q251 349 206 349 Q165 349 131.5 363.5 Q98 378 74 403.5 Q50 429 37 463.5 Q24 498 24 539 Q24 578 37 612.5 Q50 647 74 672.5 Q98 698 131.5 713 Q165 728 206 728 Q252 728 286 707 Q320 686 340 648 L342 648 L342 720 L376 720 L376 356 L342 356 L342 435 Z M200 378 Q231 378 257 389.5 Q283 401 302 422 Q321 443 331.5 472.5 Q342 502 342 538 Q342 612 302 654.5 Q262 697 200 697 Q170 697 144 686 Q118 675 99.5 654.5 Q81 634 70 604.5 Q59 575 59 538 Q59 502 70 472.5 Q81 443 99.5 422 Q118 401 144 389.5 Q170 378 200 378 Z " />
<glyph glyph-name="ordmasculine" unicode="&#xba;" horiz-adv-x="402" d="M201 349 Q162 349 129 363.5 Q96 378 72 403.5 Q48 429 34 463.5 Q20 498 20 539 Q20 579 34 613.5 Q48 648 72 673.5 Q96 699 129 713.5 Q162 728 201 728 Q240 728 273.5 713.5 Q307 699 331 673.5 Q355 648 369 613.5 Q383 579 383 539 Q383 498 369 463.5 Q355 429 331 403.5 Q307 378 273.5 363.5 Q240 349 201 349 Z M200 378 Q231 378 258 389.5 Q285 401 305 422 Q325 443 336.5 472.5 Q348 502 348 538 Q348 574 336.5 603.5 Q325 633 305 654 Q285 675 258 686 Q231 697 200 697 Q170 697 143.5 686 Q117 675 97.5 654.5 Q78 634 66.5 604.5 Q55 575 55 538 Q55 502 66.5 472.5 Q78 443 97.5 422 Q117 401 143.5 389.5 Q170 378 200 378 Z " />
<glyph glyph-name="numbersign" unicode="&#x23;" horiz-adv-x="628" d="M135 556 L224 556 L268 720 L299 720 L256 556 L472 556 L516 720 L548 720 L504 556 L584 556 L572 525 L496 525 L409 195 L505 195 L494 164 L401 164 L358 0 L325 0 L368 164 L153 164 L110 0 L77 0 L120 164 L44 164 L55 195 L128 195 L216 525 L124 525 L135 556 Z M161 195 L376 195 L464 525 L248 525 L161 195 Z " />
<glyph glyph-name="Euro" unicode="&#x20ac;" horiz-adv-x="573" d="M16 460 L110 460 Q123 517 149.5 566.5 Q176 616 215.5 652 Q255 688 306.5 708.5 Q358 729 420 729 Q461 729 494 720 Q527 711 556 695 L556 656 Q530 673 492.5 685.5 Q455 698 405 698 Q354 698 311 679.5 Q268 661 235 629 Q202 597 179 553.5 Q156 510 144 460 L435 460 L435 429 L138 429 Q136 412 134.5 394 Q133 376 133 358 Q133 339 134.5 321 Q136 303 138 286 L435 286 L435 255 L145 255 Q157 205 179.5 162.5 Q202 120 235 89 Q268 58 310.5 40 Q353 22 404 22 Q457 22 491.5 30.5 Q526 39 555 56 L555 20 Q530 9 494.5 0 Q459 -9 418 -9 Q355 -9 303.5 11 Q252 31 213 66.5 Q174 102 148 150.5 Q122 199 110 255 L16 255 L16 286 L104 286 Q102 303 100.5 321 Q99 339 99 357 Q99 375 100 393 Q101 411 104 429 L16 429 L16 460 Z " />
<glyph glyph-name="dollar" unicode="&#x24;" horiz-adv-x="525" d="M67 136 Q80 117 98.5 97 Q117 77 141 60.5 Q165 44 195.5 33.5 Q226 23 263 23 Q352 23 399.5 65 Q447 107 447 184 Q447 228 434 257 Q421 286 397 305.5 Q373 325 339.5 337.5 Q306 350 266 361 Q164 389 113.5 433.5 Q63 478 63 557 Q63 591 74.5 621.5 Q86 652 109 675 Q132 698 165.5 712 Q199 726 243 728 L243 821 L277 821 L277 728 Q340 724 388 696.5 Q436 669 466 625 L440 606 Q402 656 358.5 677 Q315 698 255 698 Q214 698 184.5 686.5 Q155 675 136 655.5 Q117 636 108 610 Q99 584 99 556 Q99 532 106.5 508.5 Q114 485 133.5 464.5 Q153 444 186 426 Q219 408 269 395 Q311 384 350 369.5 Q389 355 418.5 332.5 Q448 310 465.5 276.5 Q483 243 483 193 Q483 157 472 121.5 Q461 86 436.5 57.5 Q412 29 372.5 11 Q333 -7 277 -8 L277 -101 L243 -101 L243 -7 Q204 -4 173 7.5 Q142 19 117.5 35.5 Q93 52 74 73 Q55 94 40 115 L67 136 Z " />
<glyph glyph-name="yen" unicode="&#xa5;" horiz-adv-x="486" d="M89 295 L223 295 L5 720 L44 720 L245 322 L444 720 L481 720 L265 295 L398 295 L398 264 L262 264 L262 149 L398 149 L398 118 L262 118 L262 0 L228 0 L228 118 L89 118 L89 149 L228 149 L228 264 L89 264 L89 295 Z " />
<glyph glyph-name="sterling" unicode="&#xa3;" horiz-adv-x="504" d="M30 317 L110 317 L110 516 Q110 569 126.5 608.5 Q143 648 169.5 674.5 Q196 701 230 714 Q264 727 300 727 Q451 727 491 577 L462 571 Q447 629 407 662.5 Q367 696 301 696 Q269 696 240.5 685.5 Q212 675 190.5 652.5 Q169 630 156.5 595.5 Q144 561 144 513 L144 317 L331 317 L331 286 L144 286 L144 31 L499 31 L499 0 L30 0 L30 31 L110 31 L110 286 L30 286 L30 317 Z " />
<glyph glyph-name="cent" unicode="&#xa2;" horiz-adv-x="455" d="M437 125 Q406 109 373 102 Q340 95 301 95 L297 95 L297 0 L263 0 L263 97 Q213 103 170 125.5 Q127 148 96 183 Q65 218 47.5 264.5 Q30 311 30 367 Q30 418 45.5 462.5 Q61 507 91 541 Q121 575 164 597 Q207 619 263 625 L263 720 L297 720 L297 628 L306 628 Q345 628 374 620.5 Q403 613 432 600 L432 561 Q406 575 374 585.5 Q342 596 294 596 Q238 596 195.5 578 Q153 560 124 528.5 Q95 497 80 455.5 Q65 414 65 368 Q65 311 82.5 266 Q100 221 131.5 190.5 Q163 160 206.5 143.5 Q250 127 301 127 Q340 127 374 135.5 Q408 144 437 158 L437 125 Z " />
<glyph glyph-name="florin" unicode="&#x192;" horiz-adv-x="513" d="M186 469 L274 469 L289 553 Q306 643 349.5 686 Q393 729 459 729 Q469 729 480 727.5 Q491 726 503 721 L503 690 Q492 694 476 695.5 Q460 697 448 697 Q397 697 366 659 Q335 621 324 557 L308 469 L433 469 L433 438 L303 438 L223 -17 Q206 -110 167 -160 Q128 -210 55 -210 Q43 -210 32.5 -208.5 Q22 -207 10 -204 L10 -173 Q20 -176 33 -177 Q46 -178 63 -178 Q161 -178 187 -27 L269 438 L186 438 L186 469 Z " />
<glyph glyph-name="currency" unicode="&#xa4;" horiz-adv-x="584" d="M65 154 L134 223 Q114 249 103 282.5 Q92 316 92 354 Q92 391 102.5 423.5 Q113 456 133 482 L65 552 L93 580 L159 511 Q185 535 219.5 549 Q254 563 293 563 Q331 563 364 549.5 Q397 536 423 512 L491 580 L519 552 L450 484 Q470 457 481.5 424 Q493 391 493 354 Q493 315 481 281.5 Q469 248 449 222 L519 154 L491 125 L422 194 Q396 171 363 158.5 Q330 146 293 146 Q255 146 221 159 Q187 172 161 195 L93 125 L65 154 Z M293 178 Q328 178 358.5 190 Q389 202 411 224.5 Q433 247 445.5 279.5 Q458 312 458 353 Q458 393 445.5 426 Q433 459 411 482.5 Q389 506 358.5 518.5 Q328 531 293 531 Q257 531 226.5 518.5 Q196 506 174 482.5 Q152 459 139.5 426 Q127 393 127 353 Q127 312 139.5 279.5 Q152 247 174 224.5 Q196 202 226.5 190 Q257 178 293 178 Z " />
<glyph glyph-name="zero" unicode="0" horiz-adv-x="621" d="M309 -9 Q238 -9 187 22 Q136 53 103.5 105 Q71 157 55.5 223.5 Q40 290 40 361 Q40 432 56 498.5 Q72 565 105 616 Q138 667 189 698 Q240 729 311 729 Q382 729 433 698 Q484 667 517 616 Q550 565 566 498.5 Q582 432 582 361 Q582 290 566 223 Q550 156 516.5 104.5 Q483 53 431.5 22 Q380 -9 309 -9 Z M308 23 Q372 23 417.5 51 Q463 79 492 126 Q521 173 534 233 Q547 293 547 358 Q547 423 534 484 Q521 545 492.5 592.5 Q464 640 418 668.5 Q372 697 307 697 Q243 697 198.5 668 Q154 639 126.5 591.5 Q99 544 87 483 Q75 422 75 358 Q75 294 87.5 234 Q100 174 127.5 127 Q155 80 199.5 51.5 Q244 23 308 23 Z " />
<glyph glyph-name="one" unicode="1" horiz-adv-x="281" d="M68 720 L185 720 L185 0 L151 0 L151 690 L47 690 L68 720 Z " />
<glyph glyph-name="two" unicode="2" horiz-adv-x="472" d="M0 27 Q84 112 147.5 175.5 Q211 239 256.5 286.5 Q302 334 331.5 370 Q361 406 378.5 435.5 Q396 465 403 492 Q410 519 410 549 Q410 584 396.5 611.5 Q383 639 359.5 658 Q336 677 304.5 687 Q273 697 237 697 Q171 697 124 659 Q77 621 62 562 L31 568 Q41 613 64.5 644 Q88 675 118 693.5 Q148 712 181.5 720.5 Q215 729 245 729 Q279 729 314.5 718.5 Q350 708 379 686 Q408 664 426.5 629.5 Q445 595 445 548 Q445 523 440 499 Q435 475 419.5 445.5 Q404 416 376.5 379 Q349 342 304 293 Q259 244 195 179.5 Q131 115 43 31 L457 31 L457 0 L0 0 L0 27 Z " />
<glyph glyph-name="three" unicode="3" horiz-adv-x="506" d="M62 129 Q77 104 94.5 84 Q112 64 135 50.5 Q158 37 187.5 30 Q217 23 255 23 Q295 23 328.5 34.5 Q362 46 386 68 Q410 90 423.5 121 Q437 152 437 191 Q437 276 382.5 316 Q328 356 219 356 L171 356 L171 387 L217 387 Q261 387 297.5 398 Q334 409 360 429.5 Q386 450 400.5 479.5 Q415 509 415 545 Q415 582 403 610 Q391 638 369 657.5 Q347 677 317.5 687 Q288 697 254 697 Q181 697 135 665 Q89 633 72 572 L41 579 Q49 614 69 642 Q89 670 116.5 689.5 Q144 709 178.5 719 Q213 729 249 729 Q291 729 327.5 717.5 Q364 706 391 683 Q418 660 434 626 Q450 592 450 547 Q450 411 302 374 Q393 357 432.5 312 Q472 267 472 194 Q472 146 454.5 108 Q437 70 407.5 44 Q378 18 338 4.5 Q298 -9 253 -9 Q172 -9 117 24 Q62 57 35 114 L62 129 Z " />
<glyph glyph-name="four" unicode="4" horiz-adv-x="457" d="M357 738 L357 189 L455 189 L455 158 L357 158 L357 0 L323 0 L323 158 L-13 158 L357 738 Z M323 189 L323 625 L44 189 L323 189 Z " />
<glyph glyph-name="five" unicode="5" horiz-adv-x="465" d="M44 128 Q53 101 68.5 81 Q84 61 105 48 Q126 35 150 28.5 Q174 22 200 22 Q242 22 279 36 Q316 50 343 76.5 Q370 103 385.5 141.5 Q401 180 401 230 Q401 287 383 327.5 Q365 368 334.5 393.5 Q304 419 265 431 Q226 443 184 443 Q146 443 116.5 433.5 Q87 424 61 412 L152 720 L402 720 L402 689 L174 689 L107 461 Q121 466 140.5 470 Q160 474 187 474 Q237 474 282.5 459.5 Q328 445 362 415.5 Q396 386 416 340 Q436 294 436 231 Q436 175 418 131 Q400 87 368.5 55.5 Q337 24 294 7.5 Q251 -9 201 -9 Q169 -9 139.5 -1 Q110 7 85 23 Q60 39 41.5 63.5 Q23 88 14 120 L44 128 Z " />
<glyph glyph-name="six" unicode="6" horiz-adv-x="555" d="M313 720 L353 720 L104 404 Q141 449 180.5 468 Q220 487 271 487 Q328 487 374 467.5 Q420 448 452 414.5 Q484 381 501.5 336 Q519 291 519 239 Q519 186 502.5 140.5 Q486 95 455 62 Q424 29 380.5 10 Q337 -9 282 -9 Q238 -9 194 7 Q150 23 115 55 Q80 87 58 134.5 Q36 182 36 245 Q36 291 47 330.5 Q58 370 78.5 407.5 Q99 445 127 482.5 Q155 520 189 563 L313 720 Z M281 23 Q327 23 365 39.5 Q403 56 429.5 84.5 Q456 113 470.5 152 Q485 191 485 237 Q485 282 469.5 321.5 Q454 361 426 391 Q398 421 358 438 Q318 455 270 455 Q224 455 187 438 Q150 421 124 391.5 Q98 362 84 322.5 Q70 283 70 239 Q70 193 85 153.5 Q100 114 127.5 85 Q155 56 194 39.5 Q233 23 281 23 Z " />
<glyph glyph-name="seven" unicode="7" horiz-adv-x="429" d="M369 689 L13 689 L13 720 L415 720 L123 0 L87 0 L369 689 Z " />
<glyph glyph-name="eight" unicode="8" horiz-adv-x="494" d="M21 190 Q21 267 64 315 Q107 363 173 380 Q119 398 86 439.5 Q53 481 53 543 Q53 585 67.5 619.5 Q82 654 107.5 678.5 Q133 703 169 716 Q205 729 247 729 Q289 729 324.5 715.5 Q360 702 385.5 678 Q411 654 425.5 619.5 Q440 585 440 543 Q440 482 407 440 Q374 398 321 380 Q387 363 430 315 Q473 267 473 189 Q473 144 456 107.5 Q439 71 408.5 45 Q378 19 337 5 Q296 -9 248 -9 Q200 -9 158.5 3.5 Q117 16 86.5 41 Q56 66 38.5 103.5 Q21 141 21 190 Z M55 186 Q55 147 70 116.5 Q85 86 110.5 65 Q136 44 170.5 33 Q205 22 244 22 Q284 22 319.5 32.5 Q355 43 381.5 64 Q408 85 423.5 115.5 Q439 146 439 186 Q439 227 424.5 260 Q410 293 384 316 Q358 339 322.5 351 Q287 363 246 363 Q205 363 170 350.5 Q135 338 109.5 315 Q84 292 69.5 259.5 Q55 227 55 186 Z M87 550 Q87 515 98.5 487 Q110 459 131 439 Q152 419 180.5 408 Q209 397 244 397 Q279 397 308.5 408 Q338 419 360 439 Q382 459 394 487 Q406 515 406 550 Q406 584 394 611.5 Q382 639 360.5 658 Q339 677 309.5 687.5 Q280 698 246 698 Q212 698 183 687.5 Q154 677 132.5 658 Q111 639 99 611.5 Q87 584 87 550 Z " />
<glyph glyph-name="nine" unicode="9" horiz-adv-x="555" d="M450 315 Q413 271 374 252 Q335 233 284 233 Q227 233 181 252.5 Q135 272 103 305.5 Q71 339 53.5 384 Q36 429 36 481 Q36 534 52.5 579 Q69 624 99.5 657 Q130 690 174 709 Q218 728 273 728 Q317 728 361 712.5 Q405 697 440 665 Q475 633 497 585.5 Q519 538 519 475 Q519 427 507.5 387 Q496 347 476 310.5 Q456 274 428 237 Q400 200 366 157 L242 0 L202 0 L450 315 Z M285 265 Q331 265 368 282 Q405 299 431 328.5 Q457 358 471 397.5 Q485 437 485 481 Q485 527 470 566.5 Q455 606 427.5 634.5 Q400 663 361 679.5 Q322 696 274 696 Q227 696 189.5 680 Q152 664 125.5 635.5 Q99 607 84.5 568 Q70 529 70 483 Q70 438 85.5 398.5 Q101 359 129 329 Q157 299 197 282 Q237 265 285 265 Z " />
<glyph glyph-name="degree" unicode="&#xb0;" horiz-adv-x="385" d="M192 500 Q240 500 267 529 Q294 558 294 603 Q294 649 267 677 Q240 705 192 705 Q146 705 119.5 677 Q93 649 93 603 Q93 558 119.5 529 Q146 500 192 500 Z M193 475 Q137 475 101 511 Q65 547 65 603 Q65 659 101 694.5 Q137 730 193 730 Q249 730 285 694.5 Q321 659 321 603 Q321 547 285 511 Q249 475 193 475 Z " />
<glyph glyph-name="percent" unicode="&#x25;" horiz-adv-x="693" d="M497 19 Q527 19 548.5 32 Q570 45 583.5 67 Q597 89 603.5 117.5 Q610 146 610 176 Q610 206 604 235 Q598 264 585 286 Q572 308 550.5 321.5 Q529 335 499 335 Q468 335 446.5 321.5 Q425 308 411.5 286 Q398 264 391.5 235.5 Q385 207 385 176 Q385 146 391 117.5 Q397 89 410.5 67 Q424 45 445.5 32 Q467 19 497 19 Z M499 -9 Q462 -9 434.5 6.5 Q407 22 388.5 47.5 Q370 73 361 107 Q352 141 352 178 Q352 215 361 248.5 Q370 282 388 307.5 Q406 333 433.5 348 Q461 363 498 363 Q535 363 563 348 Q591 333 609.5 307.5 Q628 282 637 248.5 Q646 215 646 178 Q646 141 637 107 Q628 73 609.5 47.5 Q591 22 563.5 6.5 Q536 -9 499 -9 Z M194 354 Q157 354 129.5 369.5 Q102 385 83.5 410.5 Q65 436 56 470 Q47 504 47 541 Q47 578 56 611.5 Q65 645 83 670.5 Q101 696 128.5 711 Q156 726 193 726 Q230 726 258 711 Q286 696 304.5 670.5 Q323 645 332 611.5 Q341 578 341 541 Q341 504 332 470 Q323 436 304.5 410.5 Q286 385 258.5 369.5 Q231 354 194 354 Z M192 382 Q222 382 243.5 395 Q265 408 278.5 430 Q292 452 298.5 480.5 Q305 509 305 539 Q305 569 299 598 Q293 627 280 649 Q267 671 245.5 684.5 Q224 698 194 698 Q163 698 141.5 684.5 Q120 671 106.5 649 Q93 627 86.5 598.5 Q80 570 80 539 Q80 509 86 480.5 Q92 452 105.5 430 Q119 408 140.5 395 Q162 382 192 382 Z M587 720 L627 720 L109 0 L69 0 L587 720 Z " />
<glyph glyph-name="perthousand" unicode="&#x2030;" horiz-adv-x="1023" d="M829 -9 Q792 -9 764.5 6.5 Q737 22 718.5 47.5 Q700 73 691 107 Q682 141 682 178 Q682 215 691 248.5 Q700 282 718 307.5 Q736 333 763.5 348 Q791 363 828 363 Q865 363 893 348 Q921 333 939.5 307.5 Q958 282 967 248.5 Q976 215 976 178 Q976 141 967 107 Q958 73 939.5 47.5 Q921 22 893.5 6.5 Q866 -9 829 -9 Z M827 19 Q857 19 878.5 32 Q900 45 913.5 67 Q927 89 933.5 117.5 Q940 146 940 176 Q940 206 934 235 Q928 264 915 286 Q902 308 880.5 321.5 Q859 335 829 335 Q798 335 776.5 321.5 Q755 308 741.5 286 Q728 264 721.5 235.5 Q715 207 715 176 Q715 146 721 117.5 Q727 89 740.5 67 Q754 45 775.5 32 Q797 19 827 19 Z M497 19 Q527 19 548.5 32 Q570 45 583.5 67 Q597 89 603.5 117.5 Q610 146 610 176 Q610 206 604 235 Q598 264 585 286 Q572 308 550.5 321.5 Q529 335 499 335 Q468 335 446.5 321.5 Q425 308 411.5 286 Q398 264 391.5 235.5 Q385 207 385 176 Q385 146 391 117.5 Q397 89 410.5 67 Q424 45 445.5 32 Q467 19 497 19 Z M499 -9 Q462 -9 434.5 6.5 Q407 22 388.5 47.5 Q370 73 361 107 Q352 141 352 178 Q352 215 361 248.5 Q370 282 388 307.5 Q406 333 433.5 348 Q461 363 498 363 Q535 363 563 348 Q591 333 609.5 307.5 Q628 282 637 248.5 Q646 215 646 178 Q646 141 637 107 Q628 73 609.5 47.5 Q591 22 563.5 6.5 Q536 -9 499 -9 Z M194 354 Q157 354 129.5 369.5 Q102 385 83.5 410.5 Q65 436 56 470 Q47 504 47 541 Q47 578 56 611.5 Q65 645 83 670.5 Q101 696 128.5 711 Q156 726 193 726 Q230 726 258 711 Q286 696 304.5 670.5 Q323 645 332 611.5 Q341 578 341 541 Q341 504 332 470 Q323 436 304.5 410.5 Q286 385 258.5 369.5 Q231 354 194 354 Z M192 382 Q222 382 243.5 395 Q265 408 278.5 430 Q292 452 298.5 480.5 Q305 509 305 539 Q305 569 299 598 Q293 627 280 649 Q267 671 245.5 684.5 Q224 698 194 698 Q163 698 141.5 684.5 Q120 671 106.5 649 Q93 627 86.5 598.5 Q80 570 80 539 Q80 509 86 480.5 Q92 452 105.5 430 Q119 408 140.5 395 Q162 382 192 382 Z M587 720 L627 720 L109 0 L69 0 L587 720 Z " />
<glyph glyph-name="fraction" unicode="&#x2044;" horiz-adv-x="129" d="M305 720 L342 720 L-174 0 L-213 0 L305 720 Z " />
<glyph glyph-name="uni2215" unicode="&#x2215;" horiz-adv-x="129" d="M305 720 L342 720 L-174 0 L-213 0 L305 720 Z " />
<glyph glyph-name="onesuperior" unicode="&#xb9;" horiz-adv-x="271" d="M89 720 L163 720 L163 360 L129 360 L129 689 L73 689 L89 720 Z " />
<glyph glyph-name="twosuperior" unicode="&#xb2;" horiz-adv-x="271" d="M12 390 Q67 444 104.5 480.5 Q142 517 164.5 544 Q187 571 196.5 590.5 Q206 610 206 629 Q206 658 186 676 Q166 694 135 694 Q103 694 81 675 Q59 656 47 625 L17 636 Q30 679 62 702.5 Q94 726 136 726 Q181 725 211 700 Q241 675 241 628 Q241 607 232 586 Q223 565 201.5 539 Q180 513 144 477.5 Q108 442 55 391 L249 391 L249 360 L12 360 L12 390 Z " />
<glyph glyph-name="threesuperior" unicode="&#xb3;" horiz-adv-x="271" d="M51 441 Q77 387 144 387 Q184 387 205.5 409.5 Q227 432 227 463 Q227 495 201.5 513 Q176 531 137 531 L99 531 L99 562 L136 562 Q173 562 195.5 580 Q218 598 218 628 Q218 657 198.5 676 Q179 695 142 695 Q107 695 85.5 678 Q64 661 56 636 L26 647 Q37 683 67 704.5 Q97 726 138 727 Q168 727 189.5 719 Q211 711 225.5 697.5 Q240 684 246.5 666 Q253 648 253 628 Q253 596 235.5 577.5 Q218 559 190 549 Q222 541 242 521 Q262 501 262 462 Q262 436 251.5 415.5 Q241 395 224 381.5 Q207 368 185.5 361 Q164 354 141 354 Q97 354 67 372.5 Q37 391 22 426 L51 441 Z " />
<glyph glyph-name="foursuperior" unicode="&#x2074;" horiz-adv-x="271" d="M204 720 L209 720 L209 464 L248 464 L248 433 L209 433 L209 360 L175 360 L175 433 L11 433 L204 720 Z M175 464 L175 627 L66 464 L175 464 Z " />
<glyph glyph-name="onehalf" unicode="&#xbd;" horiz-adv-x="723" d="M89 720 L163 720 L163 360 L129 360 L129 689 L73 689 L89 720 Z M586 720 L623 720 L107 0 L68 0 L586 720 Z M420 30 Q475 84 512.5 120.5 Q550 157 572.5 184 Q595 211 604.5 230.5 Q614 250 614 269 Q614 298 594 316 Q574 334 543 334 Q511 334 489 315 Q467 296 455 265 L425 276 Q438 319 470 342.5 Q502 366 544 366 Q589 365 619 340 Q649 315 649 268 Q649 247 640 226 Q631 205 609.5 179 Q588 153 552 117.5 Q516 82 463 31 L657 31 L657 0 L420 0 L420 30 Z " />
<glyph glyph-name="onequarter" unicode="&#xbc;" horiz-adv-x="723" d="M89 720 L163 720 L163 360 L129 360 L129 689 L73 689 L89 720 Z M612 720 L649 720 L133 0 L94 0 L612 720 Z M612 360 L617 360 L617 104 L656 104 L656 73 L617 73 L617 0 L583 0 L583 73 L419 73 L612 360 Z M583 104 L583 267 L474 104 L583 104 Z " />
<glyph glyph-name="threequarters" unicode="&#xbe;" horiz-adv-x="723" d="M51 441 Q77 387 144 387 Q184 387 205.5 409.5 Q227 432 227 463 Q227 495 201.5 513 Q176 531 137 531 L99 531 L99 562 L136 562 Q173 562 195.5 580 Q218 598 218 628 Q218 657 198.5 676 Q179 695 142 695 Q107 695 85.5 678 Q64 661 56 636 L26 647 Q37 683 67 704.5 Q97 726 138 727 Q168 727 189.5 719 Q211 711 225.5 697.5 Q240 684 246.5 666 Q253 648 253 628 Q253 596 235.5 577.5 Q218 559 190 549 Q222 541 242 521 Q262 501 262 462 Q262 436 251.5 415.5 Q241 395 224 381.5 Q207 368 185.5 361 Q164 354 141 354 Q97 354 67 372.5 Q37 391 22 426 L51 441 Z M626 720 L663 720 L147 0 L108 0 L626 720 Z M612 360 L617 360 L617 104 L656 104 L656 73 L617 73 L617 0 L583 0 L583 73 L419 73 L612 360 Z M583 104 L583 267 L474 104 L583 104 Z " />
<glyph glyph-name="plus" unicode="&#x2b;" horiz-adv-x="510" d="M84 349 L238 349 L238 504 L272 504 L272 349 L426 349 L426 318 L272 318 L272 163 L238 163 L238 318 L84 318 L84 349 Z " />
<glyph glyph-name="minus" unicode="&#x2212;" horiz-adv-x="510" d="M84 349 L426 349 L426 318 L84 318 L84 349 Z " />
<glyph glyph-name="multiply" unicode="&#xd7;" horiz-adv-x="510" d="M255 310 L125 180 L102 202 L232 333 L102 464 L125 487 L255 356 L386 487 L409 464 L278 333 L408 203 L385 180 L255 310 Z " />
<glyph glyph-name="divide" unicode="&#xf7;" horiz-adv-x="510" d="M84 349 L426 349 L426 318 L84 318 L84 349 Z M255 475 Q238 475 227 488 Q216 501 216 515 Q216 529 227 542 Q238 555 255 555 Q272 555 282.5 542 Q293 529 293 515 Q293 501 282.5 488 Q272 475 255 475 Z M255 112 Q238 112 227 125 Q216 138 216 152 Q216 166 227 179 Q238 192 255 192 Q272 192 282.5 179 Q293 166 293 152 Q293 138 282.5 125 Q272 112 255 112 Z " />
<glyph glyph-name="equal" unicode="&#x3d;" horiz-adv-x="510" d="M84 258 L426 258 L426 227 L84 227 L84 258 Z M84 440 L426 440 L426 409 L84 409 L84 440 Z " />
<glyph glyph-name="logicalnot" unicode="&#xac;" horiz-adv-x="510" d="M84 415 L426 415 L426 210 L395 210 L395 384 L84 384 L84 415 Z " />
<glyph glyph-name="asciitilde" unicode="&#x7e;" horiz-adv-x="510" d="M88 318 Q113 353 136.5 366.5 Q160 380 180 380 Q201 380 221 372 Q241 364 260 354.5 Q279 345 297 337 Q315 329 333 329 Q350 329 367.5 339 Q385 349 403 372 L422 360 Q397 324 373.5 311 Q350 298 330 298 Q309 298 289 306 Q269 314 250.5 323 Q232 332 213.5 340 Q195 348 177 348 Q160 348 142.5 338.5 Q125 329 107 306 L88 318 Z " />
<glyph glyph-name="less" unicode="&#x3c;" horiz-adv-x="510" d="M85 347 L425 519 L425 482 L119 334 L425 185 L425 147 L85 320 L85 347 Z " />
<glyph glyph-name="greater" unicode="&#x3e;" horiz-adv-x="510" d="M85 185 L391 334 L85 482 L85 519 L425 347 L425 320 L85 147 L85 185 Z " />
<glyph glyph-name="plusminus" unicode="&#xb1;" horiz-adv-x="510" d="M84 349 L238 349 L238 504 L272 504 L272 349 L426 349 L426 318 L272 318 L272 163 L238 163 L238 318 L84 318 L84 349 Z M84 31 L426 31 L426 0 L84 0 L84 31 Z " />
<glyph glyph-name="asciicircum" unicode="&#x5e;" horiz-adv-x="510" d="M238 750 L272 750 L423 461 L387 461 L255 716 L123 461 L87 461 L238 750 Z " />
<glyph glyph-name="notequal" unicode="&#x2260;" horiz-adv-x="510" d="M84 440 L315 440 L367 509 L406 509 L354 440 L426 440 L426 409 L331 409 L218 258 L426 258 L426 227 L195 227 L143 157 L104 157 L156 227 L84 227 L84 258 L179 258 L292 409 L84 409 L84 440 Z " />
<glyph glyph-name="approxequal" unicode="&#x2248;" horiz-adv-x="510" d="M88 218 Q113 253 136.5 266.5 Q160 280 180 280 Q201 280 221 272 Q241 264 260 254.5 Q279 245 297 237 Q315 229 333 229 Q350 229 367.5 239 Q385 249 403 272 L422 260 Q397 224 373.5 211 Q350 198 330 198 Q309 198 289 206 Q269 214 250.5 223 Q232 232 213.5 240 Q195 248 177 248 Q160 248 142.5 238.5 Q125 229 107 206 L88 218 Z M88 408 Q113 443 136.5 456.5 Q160 470 180 470 Q201 470 221 462 Q241 454 260 444.5 Q279 435 297 427 Q315 419 333 419 Q350 419 367.5 429 Q385 439 403 462 L422 450 Q397 414 373.5 401 Q350 388 330 388 Q309 388 289 396 Q269 404 250.5 413 Q232 422 213.5 430 Q195 438 177 438 Q160 438 142.5 428.5 Q125 419 107 396 L88 408 Z " />
<glyph glyph-name="lessequal" unicode="&#x2264;" horiz-adv-x="510" d="M84 31 L426 31 L426 0 L84 0 L84 31 Z M85 347 L425 519 L425 482 L119 334 L425 185 L425 147 L85 320 L85 347 Z " />
<glyph glyph-name="greaterequal" unicode="&#x2265;" horiz-adv-x="510" d="M84 31 L426 31 L426 0 L84 0 L84 31 Z M85 185 L391 334 L85 482 L85 519 L425 347 L425 320 L85 147 L85 185 Z " />
<glyph glyph-name="infinity" unicode="&#x221e;" horiz-adv-x="671" d="M175 187 Q145 187 118 199 Q91 211 70.5 232.5 Q50 254 38.5 283.5 Q27 313 27 348 Q27 382 38 411 Q49 440 68.5 461.5 Q88 483 115.5 495 Q143 507 175 507 Q202 507 224.5 496 Q247 485 266.5 466.5 Q286 448 303 424 Q320 400 336 375 Q352 400 369.5 424 Q387 448 407 466.5 Q427 485 450.5 496 Q474 507 503 507 Q531 507 557 495 Q583 483 602 462 Q621 441 632.5 411.5 Q644 382 644 348 Q644 313 632.5 284 Q621 255 601.5 233 Q582 211 556.5 199 Q531 187 504 187 Q476 187 453 198 Q430 209 410 227.5 Q390 246 372 269.5 Q354 293 338 319 Q321 293 304 269.5 Q287 246 267 227.5 Q247 209 224.5 198 Q202 187 175 187 Z M177 218 Q199 218 218.5 229 Q238 240 255 258 Q272 276 287.5 299.5 Q303 323 319 348 Q303 373 287 396 Q271 419 253.5 437 Q236 455 216.5 465.5 Q197 476 174 476 Q147 476 126 465 Q105 454 91 435.5 Q77 417 69.5 393.5 Q62 370 62 346 Q62 319 70 296 Q78 273 93 255.5 Q108 238 129 228 Q150 218 177 218 Z M499 219 Q524 219 544.5 229.5 Q565 240 579.5 257.5 Q594 275 602 298 Q610 321 610 346 Q610 371 602 394.5 Q594 418 580 436 Q566 454 546 465 Q526 476 502 476 Q478 476 458 465 Q438 454 420 436 Q402 418 386 394 Q370 370 354 345 Q369 321 384.5 298 Q400 275 417.5 257.5 Q435 240 455 229.5 Q475 219 499 219 Z " />
<glyph glyph-name="lozenge" unicode="&#x25ca;" horiz-adv-x="500" d="M418 359 L250 688 L82 359 L250 32 L418 359 Z M45 358 L231 720 L269 720 L456 358 L269 0 L231 0 L45 358 Z " />
<glyph glyph-name="radical" unicode="&#x221a;" horiz-adv-x="543" d="M42 462 L80 462 L254 42 L479 720 L513 720 L273 0 L234 0 L42 462 Z " />
<glyph glyph-name="integral" unicode="&#x222b;" horiz-adv-x="362" d="M10 -129 Q21 -132 35 -134.5 Q49 -137 74 -137 Q116 -137 140 -105 Q164 -73 164 -10 L164 568 Q164 649 199.5 689 Q235 729 296 729 Q315 729 326.5 728 Q338 727 352 722 L352 689 Q341 692 326 694.5 Q311 697 288 697 Q246 697 222 666 Q198 635 198 570 L198 -10 Q198 -88 162.5 -128.5 Q127 -169 66 -169 Q47 -169 34.5 -167.5 Q22 -166 10 -162 L10 -129 Z " />
<glyph glyph-name="partialdiff" unicode="&#x2202;" horiz-adv-x="551" d="M274 21 Q320 21 359 38.5 Q398 56 426.5 86.5 Q455 117 471 159 Q487 201 487 251 Q487 300 471 342 Q455 384 426.5 414.5 Q398 445 359 462.5 Q320 480 274 480 Q229 480 191 462.5 Q153 445 125 414.5 Q97 384 81 342 Q65 300 65 251 Q65 201 81 159 Q97 117 125 86.5 Q153 56 191 38.5 Q229 21 274 21 Z M221 738 Q328 685 388.5 622 Q449 559 478.5 496 Q508 433 515 377 Q522 321 522 282 Q522 215 503 161.5 Q484 108 450.5 70 Q417 32 371.5 11.5 Q326 -9 274 -9 Q223 -9 178.5 11 Q134 31 101 66 Q68 101 49 148.5 Q30 196 30 252 Q30 307 49 354 Q68 401 101.5 435.5 Q135 470 180.5 490 Q226 510 279 510 Q308 510 336.5 504 Q365 498 391.5 483 Q418 468 442 444 Q466 420 485 384 Q470 444 446 492 Q422 540 388 579.5 Q354 619 309 651 Q264 683 206 711 L221 738 Z " />
<glyph glyph-name="product" unicode="&#x220f;" horiz-adv-x="570" d="M459 689 L111 689 L111 -100 L77 -100 L77 720 L493 720 L493 -100 L459 -100 L459 689 Z " />
<glyph glyph-name="pi" unicode="&#x3c0;" horiz-adv-x="563" d="M421 470 L142 470 L142 0 L107 0 L107 470 L27 470 L27 501 L536 501 L536 470 L456 470 L456 0 L421 0 L421 470 Z " />
<glyph glyph-name="mu" unicode="&#xb5;" horiz-adv-x="519" d="M65 501 L99 501 L99 205 Q99 167 109.5 133.5 Q120 100 141 75 Q162 50 193 35.5 Q224 21 265 21 Q305 21 335 35.5 Q365 50 385.5 75 Q406 100 416.5 133.5 Q427 167 427 205 L427 501 L461 501 L461 213 Q461 168 448 127.5 Q435 87 409.5 56.5 Q384 26 347 8.5 Q310 -9 262 -9 Q205 -9 164 16.5 Q123 42 99 88 L99 -200 L65 -200 L65 501 Z " />
<glyph glyph-name="summation" unicode="&#x2211;" horiz-adv-x="509" d="M10 718 L10 720 L489 720 L489 689 L65 689 L308 310 L65 -69 L489 -69 L489 -100 L10 -100 L10 -98 L267 310 L10 718 Z " />
<glyph glyph-name="Omega" unicode="&#x2126;" horiz-adv-x="821" d="M37 31 L274 31 Q226 45 185 76 Q144 107 113.5 150 Q83 193 65.5 245 Q48 297 48 354 Q48 439 74.5 508.5 Q101 578 149.5 627 Q198 676 265.5 702.5 Q333 729 414 729 Q494 729 560 702 Q626 675 673.5 625.5 Q721 576 747 507 Q773 438 773 354 Q773 298 755.5 246 Q738 194 707.5 151 Q677 108 636 77 Q595 46 548 31 L784 31 L784 0 L477 0 L477 31 Q537 47 585.5 78 Q634 109 668 153 Q702 197 720 251.5 Q738 306 738 368 Q738 440 714 501 Q690 562 647 606 Q604 650 543.5 674.5 Q483 699 411 699 Q338 699 278 674.5 Q218 650 174.5 606 Q131 562 107 501.5 Q83 441 83 368 Q83 305 101 250.5 Q119 196 152.5 152.5 Q186 109 234.5 77.5 Q283 46 344 31 L344 0 L37 0 L37 31 Z " />
<glyph glyph-name="uni03A9" unicode="&#x3a9;" horiz-adv-x="821" d="M37 31 L274 31 Q226 45 185 76 Q144 107 113.5 150 Q83 193 65.5 245 Q48 297 48 354 Q48 439 74.5 508.5 Q101 578 149.5 627 Q198 676 265.5 702.5 Q333 729 414 729 Q494 729 560 702 Q626 675 673.5 625.5 Q721 576 747 507 Q773 438 773 354 Q773 298 755.5 246 Q738 194 707.5 151 Q677 108 636 77 Q595 46 548 31 L784 31 L784 0 L477 0 L477 31 Q537 47 585.5 78 Q634 109 668 153 Q702 197 720 251.5 Q738 306 738 368 Q738 440 714 501 Q690 562 647 606 Q604 650 543.5 674.5 Q483 699 411 699 Q338 699 278 674.5 Q218 650 174.5 606 Q131 562 107 501.5 Q83 441 83 368 Q83 305 101 250.5 Q119 196 152.5 152.5 Q186 109 234.5 77.5 Q283 46 344 31 L344 0 L37 0 L37 31 Z " />
<glyph glyph-name="Delta" unicode="&#x2206;" horiz-adv-x="720" d="M352 720 L368 720 L682 0 L38 0 L352 720 Z M360 660 L88 31 L632 31 L360 660 Z " />
<glyph glyph-name="uni0394" unicode="&#x394;" horiz-adv-x="720" d="M352 720 L368 720 L682 0 L38 0 L352 720 Z M360 660 L88 31 L632 31 L360 660 Z " />
<glyph glyph-name="uni2113" unicode="&#x2113;" horiz-adv-x="486" d="M38 109 Q64 123 88 137 Q112 151 135 165 Q129 197 125.5 235.5 Q122 274 122 322 Q122 422 135 498 Q148 574 171.5 625 Q195 676 228 702 Q261 728 301 728 Q366 728 399.5 686 Q433 644 433 561 Q433 489 415.5 431.5 Q398 374 364.5 326 Q331 278 282.5 236 Q234 194 172 154 Q186 96 217 59 Q248 22 304 22 Q349 22 374.5 52.5 Q400 83 422 132 L449 120 Q423 51 386 21 Q349 -9 301 -9 Q276 -9 252.5 -2.5 Q229 4 208.5 20.5 Q188 37 171 65 Q154 93 142 135 Q121 121 98.5 108.5 Q76 96 52 82 L38 109 Z M399 558 Q399 627 372.5 662 Q346 697 302 697 Q263 697 235 666.5 Q207 636 189.5 585 Q172 534 164 468 Q156 402 156 332 Q156 294 158 256.5 Q160 219 166 184 Q225 223 269 264 Q313 305 342 350.5 Q371 396 385 447 Q399 498 399 558 Z " />
<glyph glyph-name="estimated" unicode="&#x212e;" horiz-adv-x="715" d="M163 104 Q163 95 170 86 Q205 49 253.5 27.5 Q302 6 358 6 Q418 6 468.5 30 Q519 54 555 96 L599 96 Q557 48 494.5 18.5 Q432 -11 357 -11 Q294 -11 238 10.5 Q182 32 140.5 69.5 Q99 107 75 157 Q51 207 51 264 Q51 321 75 371.5 Q99 422 140.5 459.5 Q182 497 238 519 Q294 541 357 541 Q420 541 476 519 Q532 497 573.5 459.5 Q615 422 639 371.5 Q663 321 663 264 L663 257 L167 257 Q163 257 163 254 L163 104 Z M548 272 Q551 272 551 276 L551 427 Q551 438 543 446 Q508 482 460.5 503 Q413 524 358 524 Q303 524 254.5 502.5 Q206 481 171 443 Q163 437 163 424 L163 276 Q163 272 167 272 L548 272 Z " />
<glyph glyph-name="heart" unicode="&#x2665;" horiz-adv-x="602" d="M305 435 Q321 464 346.5 482 Q372 500 403 500 Q446 500 474 470.5 Q502 441 502 395 Q502 365 488.5 330 Q475 295 449.5 260 Q424 225 386.5 192.5 Q349 160 301 135 Q253 160 215.5 192.5 Q178 225 152.5 260 Q127 295 113.5 330 Q100 365 100 395 Q100 441 128 470.5 Q156 500 199 500 Q230 500 255.5 482 Q281 464 297 435 L305 435 Z " />
</font>
</svg>
